<svg xmlns="http://www.w3.org/2000/svg" version="1.1" viewBox="5.01 3.02 25.98 29.99"> <path d="M 24.59 28.92   C 21.32 34.42 14.62 34.31 11.33 28.97   Q 11.07 28.54 10.56 28.54   Q 4.21 28.64 5.13 22.11   C 6.03 15.69 5.54 8.52 12.15 4.71   C 20.12 0.12 29.09 5.39 29.83 14.50   C 30.19 18.87 34.06 29.03 25.38 28.50   Q 24.86 28.47 24.59 28.92   Z   M 20.88 28.50   L 15.22 28.48   A 0.13 0.13 0.0 0 0 15.09 28.60   L 15.09 28.67   A 2.78 1.22 0.3 0 0 17.87 29.91   L 18.23 29.91   A 2.78 1.22 0.3 0 0 21.01 28.71   L 21.01 28.64   A 0.13 0.13 0.0 0 0 20.88 28.50   Z"></path> </svg>