<svg fill="none" xmlns="http://www.w3.org/2000/svg" viewBox="1.5 2.25 15 13.5"> <path d="M2.25 2.25C1.83579 2.25 1.5 2.58579 1.5 3V4.5C1.5 4.91421 1.83579 5.25 2.25 5.25H15.75C16.1642 5.25 16.5 4.91421 16.5 4.5V3C16.5 2.58579 16.1642 2.25 15.75 2.25H2.25Z" ></path> <path fill-rule="evenodd" clip-rule="evenodd" d="M15.75 6.75H2.25L2.25 12.6289C2.24999 13.0243 2.24998 13.3653 2.27293 13.6463C2.29715 13.9428 2.35064 14.2377 2.49524 14.5215C2.71095 14.9448 3.05516 15.289 3.47852 15.5048C3.76231 15.6494 4.05722 15.7028 4.35373 15.7271C4.63466 15.75 4.97574 15.75 5.37111 15.75H12.6289C13.0243 15.75 13.3653 15.75 13.6463 15.7271C13.9428 15.7028 14.2377 15.6494 14.5215 15.5048C14.9448 15.289 15.2891 14.9448 15.5048 14.5215C15.6494 14.2377 15.7028 13.9428 15.7271 13.6463C15.75 13.3653 15.75 13.0243 15.75 12.6289L15.75 6.75ZM6.75 9C6.75 8.58579 7.08579 8.25 7.5 8.25H10.5C10.9142 8.25 11.25 8.58579 11.25 9C11.25 9.41421 10.9142 9.75 10.5 9.75H7.5C7.08579 9.75 6.75 9.41421 6.75 9Z"></path> </svg>