<svg fill="none" xmlns="http://www.w3.org/2000/svg" viewBox="3.04 4.54 17.92 15"> <path fill-rule="evenodd" clip-rule="evenodd" d="M4.12472 12.5391C4.19693 12.7438 4.3149 12.936 4.47865 13.0997L10.0644 18.6855C10.2597 18.8808 10.2597 19.1974 10.0644 19.3926C9.86917 19.5879 9.55259 19.5879 9.35733 19.3926L3.77154 13.8068C2.79523 12.8305 2.79523 11.2476 3.77154 10.2713L9.35733 4.68551C9.55259 4.49025 9.86917 4.49025 10.0644 4.68551C10.2597 4.88077 10.2597 5.19735 10.0644 5.39262L4.47865 10.9784C4.3149 11.1421 4.19693 11.3343 4.12472 11.5391H20.4609C20.737 11.5391 20.9609 11.7629 20.9609 12.0391C20.9609 12.3152 20.737 12.5391 20.4609 12.5391H4.12472Z"></path> </svg>