<svg xmlns="http://www.w3.org/2000/svg" width="26" height="27" viewBox="0 0 26 27" fill="none">
  <ellipse cx="12.9999" cy="13.5002" rx="10.2931" ry="10.4" fill="#1D1924"/>
  <path fill-rule="evenodd" clip-rule="evenodd" d="M23.7219 13.5002C23.7219 7.51712 18.9215 2.66687 12.9999 2.66687C7.07825 2.66687 2.27783 7.51712 2.27783 13.5002C2.27783 19.4833 7.07825 24.3335 12.9999 24.3335C18.9215 24.3335 23.7219 19.4833 23.7219 13.5002ZM15.6153 14.3127L13.5034 16.4465C13.1894 16.7638 13.1894 17.2783 13.5034 17.5956C13.8175 17.9129 14.3266 17.9129 14.6407 17.5956L17.7463 14.4577C18.2697 13.9289 18.2697 13.0715 17.7463 12.5427L14.6407 9.40485C14.3266 9.08754 13.8175 9.08754 13.5034 9.40485C13.1894 9.72215 13.1894 10.2366 13.5034 10.5539L15.6153 12.6877H8.443C7.99888 12.6877 7.63885 13.0515 7.63885 13.5002C7.63885 13.9489 7.99888 14.3127 8.443 14.3127H15.6153Z" fill="#5F586A"/>
</svg>