<svg fill="none" xmlns="http://www.w3.org/2000/svg" viewBox="1 4.5 22 16"> <path fill-rule="evenodd" clip-rule="evenodd" d="M1 6.5C1 5.39543 1.89543 4.5 3 4.5H21C22.1046 4.5 23 5.39543 23 6.5V18.5C23 19.6046 22.1046 20.5 21 20.5H3C1.89543 20.5 1 19.6046 1 18.5V6.5ZM9.5 12.5C9.5 11.1193 10.6193 10 12 10C13.3807 10 14.5 11.1193 14.5 12.5C14.5 13.8807 13.3807 15 12 15C10.6193 15 9.5 13.8807 9.5 12.5ZM3 7.5C3 6.94772 3.44772 6.5 4 6.5H5C5.55228 6.5 6 6.94772 6 7.5C6 8.05228 5.55228 8.5 5 8.5H4C3.44772 8.5 3 8.05228 3 7.5ZM19 16.5C18.4477 16.5 18 16.9477 18 17.5C18 18.0523 18.4477 18.5 19 18.5H20C20.5523 18.5 21 18.0523 21 17.5C21 16.9477 20.5523 16.5 20 16.5H19Z" fill="#BDB7C7"></path> </svg>