<svg width="18" height="19" viewBox="0 0 18 19" fill="none" xmlns="http://www.w3.org/2000/svg">
<g id="bitcoin">
<g id="Icon">
<path d="M9.9375 11.375C10.2482 11.375 10.5 11.1232 10.5 10.8125C10.5 10.5018 10.2482 10.25 9.9375 10.25H8.25V11.375H9.9375Z" fill="#9B95A5"/>
<path d="M8.25 7.625H9.9375C10.2482 7.625 10.5 7.87684 10.5 8.1875C10.5 8.49816 10.2482 8.75 9.9375 8.75H8.25V7.625Z" fill="#9B95A5"/>
<path fill-rule="evenodd" clip-rule="evenodd" d="M1.5 9.5C1.5 5.35786 4.85786 2 9 2C13.1421 2 16.5 5.35786 16.5 9.5C16.5 13.6421 13.1421 17 9 17C4.85786 17 1.5 13.6421 1.5 9.5ZM6.375 6.125C5.96079 6.125 5.625 6.46079 5.625 6.875C5.625 7.28921 5.96079 7.625 6.375 7.625H6.75V11.375H6.375C5.96079 11.375 5.625 11.7108 5.625 12.125C5.625 12.5392 5.96079 12.875 6.375 12.875H8.25V13.25C8.25 13.6642 8.58579 14 9 14C9.41421 14 9.75 13.6642 9.75 13.25V12.875H9.9375C11.0766 12.875 12 11.9516 12 10.8125C12 10.3139 11.8231 9.8566 11.5286 9.5C11.8231 9.1434 12 8.68611 12 8.1875C12 7.04841 11.0766 6.125 9.9375 6.125H9.75V5.75C9.75 5.33579 9.41421 5 9 5C8.58579 5 8.25 5.33579 8.25 5.75V6.125H6.375Z" fill="#9B95A5"/>
</g>
</g>
</svg>
