<svg fill="none" xmlns="http://www.w3.org/2000/svg" viewBox="2.25 1.5 13.5 15"> <path fill-rule="evenodd" clip-rule="evenodd" d="M8.25 3C7.83579 3 7.5 3.33579 7.5 3.75H10.5C10.5 3.33579 10.1642 3 9.75 3H8.25ZM12 3.75C12 2.50736 10.9926 1.5 9.75 1.5H8.25C7.00736 1.5 6 2.50736 6 3.75H4.5C3.25736 3.75 2.25 4.75736 2.25 6V13.5C2.25 14.7426 3.25736 15.75 4.5 15.75C4.5 16.1642 4.83579 16.5 5.25 16.5C5.66421 16.5 6 16.1642 6 15.75H12C12 16.1642 12.3358 16.5 12.75 16.5C13.1642 16.5 13.5 16.1642 13.5 15.75C14.7426 15.75 15.75 14.7426 15.75 13.5V6C15.75 4.75736 14.7426 3.75 13.5 3.75H12ZM6.75 6.75C7.16421 6.75 7.5 7.08579 7.5 7.5V12C7.5 12.4142 7.16421 12.75 6.75 12.75C6.33579 12.75 6 12.4142 6 12V7.5C6 7.08579 6.33579 6.75 6.75 6.75ZM11.25 6.75C11.6642 6.75 12 7.08579 12 7.5V12C12 12.4142 11.6642 12.75 11.25 12.75C10.8358 12.75 10.5 12.4142 10.5 12V7.5C10.5 7.08579 10.8358 6.75 11.25 6.75Z"  ></path> </svg>