<svg xmlns="http://www.w3.org/2000/svg" width="24" height="25" viewBox="0 0 24 25" fill="none">
  <path d="M3 3.5C2.44772 3.5 2 3.94772 2 4.5V6.5C2 7.05228 2.44772 7.5 3 7.5H21C21.5523 7.5 22 7.05228 22 6.5V4.5C22 3.94772 21.5523 3.5 21 3.5H3Z" fill="#BDB7C7"/>
  <path fill-rule="evenodd" clip-rule="evenodd" d="M21 9.5H3L3 15.7413C2.99999 16.5463 2.99998 17.2106 3.04419 17.7518C3.09012 18.3139 3.18868 18.8306 3.43597 19.316C3.81947 20.0686 4.43139 20.6805 5.18404 21.064C5.66937 21.3113 6.18608 21.4099 6.74817 21.4558C7.28938 21.5 7.95374 21.5 8.75873 21.5H15.2413C16.0463 21.5 16.7106 21.5 17.2518 21.4558C17.8139 21.4099 18.3306 21.3113 18.816 21.064C19.5686 20.6805 20.1805 20.0686 20.564 19.316C20.8113 18.8306 20.9099 18.3139 20.9558 17.7518C21 17.2106 21 16.5463 21 15.7413V9.5ZM9 12.5C9 11.9477 9.44772 11.5 10 11.5H14C14.5523 11.5 15 11.9477 15 12.5C15 13.0523 14.5523 13.5 14 13.5H10C9.44772 13.5 9 13.0523 9 12.5Z" fill="#BDB7C7"/>
</svg>