<svg fill="none" xmlns="http://www.w3.org/2000/svg" viewBox="0 0 22 22"> <g clip-path="url(#clip0_656_21870)"> <path d="M11 22C17.0751 22 22 17.0751 22 11C22 4.92487 17.0751 0 11 0C4.92487 0 0 4.92487 0 11C0 17.0751 4.92487 22 11 22Z" fill="#F7931A"></path> <path d="M15.9424 9.63875C16.1583 8.19775 15.0603 7.42294 13.5602 6.90594L14.047 4.95344L12.859 4.65781L12.3846 6.55875C12.0725 6.48038 11.7521 6.4075 11.4324 6.33463L11.9102 4.42131L10.7222 4.125L10.2355 6.07681C9.97697 6.01769 9.7226 5.95994 9.47647 5.89806L9.47785 5.89187L7.83885 5.48281L7.5226 6.75194C7.5226 6.75194 8.40466 6.95406 8.3861 6.96644C8.86735 7.08675 8.95397 7.40506 8.93954 7.65806L8.38541 9.88213C8.41841 9.89038 8.46104 9.90275 8.50916 9.92131L8.38335 9.89038L7.60647 13.0061C7.54735 13.1519 7.39816 13.3712 7.06129 13.288C7.07366 13.3052 6.19779 13.0728 6.19779 13.0728L5.60791 14.4327L7.15479 14.8184C7.44216 14.8906 7.72404 14.9662 8.0011 15.037L7.50954 17.0115L8.69685 17.3071L9.1836 15.3546C9.5081 15.4419 9.82297 15.5231 10.131 15.6001L9.6456 17.5443L10.8336 17.8399L11.3252 15.8696C13.3519 16.2532 14.8754 16.0985 15.5168 14.2656C16.0338 12.7903 15.4914 11.9384 14.4251 11.3836C15.202 11.2049 15.7863 10.6941 15.9424 9.63875ZM13.2268 13.4461C12.8603 14.9222 10.375 14.124 9.56929 13.9239L10.2224 11.308C11.0282 11.5094 13.6111 11.9075 13.2268 13.4461ZM13.5946 9.61744C13.2598 10.9601 11.1918 10.2774 10.5215 10.1104L11.1127 7.7385C11.783 7.90556 13.9438 8.217 13.5946 9.61744Z" fill="white"></path> </g> <defs> <clipPath id="clip0_656_21870"> <rect width="22" height="22" rx="11" fill="white"></rect> </clipPath> </defs> </svg>