<svg fill="none" xmlns="http://www.w3.org/2000/svg" viewBox="1.5 1.5 15 15"> <path fill-rule="evenodd" clip-rule="evenodd" d="M1.5 9C1.5 4.85786 4.85786 1.5 9 1.5C13.1421 1.5 16.5 4.85786 16.5 9C16.5 13.1421 13.1421 16.5 9 16.5C4.85786 16.5 1.5 13.1421 1.5 9ZM7.28033 6.21967C6.98744 5.92678 6.51256 5.92678 6.21967 6.21967C5.92678 6.51256 5.92678 6.98744 6.21967 7.28033L7.93934 9L6.21967 10.7197C5.92678 11.0126 5.92678 11.4874 6.21967 11.7803C6.51256 12.0732 6.98744 12.0732 7.28033 11.7803L9 10.0607L10.7197 11.7803C11.0126 12.0732 11.4874 12.0732 11.7803 11.7803C12.0732 11.4874 12.0732 11.0126 11.7803 10.7197L10.0607 9L11.7803 7.28033C12.0732 6.98744 12.0732 6.51256 11.7803 6.21967C11.4874 5.92678 11.0126 5.92678 10.7197 6.21967L9 7.93934L7.28033 6.21967Z" fill="#D92D20"></path> </svg>