<svg fill="none" xmlns="http://www.w3.org/2000/svg" viewBox="2 1.5 15 15"> <path fill-rule="evenodd" clip-rule="evenodd" d="M9.5 1.5C5.35786 1.5 2 4.85786 2 9C2 13.1421 5.35786 16.5 9.5 16.5C13.6421 16.5 17 13.1421 17 9C17 4.85786 13.6421 1.5 9.5 1.5ZM12.3305 7.59995C12.5928 7.27937 12.5455 6.80685 12.2249 6.54455C11.9043 6.28226 11.4318 6.32951 11.1695 6.65009L8.31932 10.1337L7.40533 9.21969C7.11244 8.9268 6.63756 8.9268 6.34467 9.21969C6.05178 9.51259 6.05178 9.98746 6.34467 10.2804L7.84467 11.7804C7.9945 11.9302 8.20073 12.0096 8.41236 11.9991C8.62399 11.9885 8.82129 11.8889 8.95547 11.725L12.3305 7.59995Z" fill="white"></path> </svg>