<svg xmlns="http://www.w3.org/2000/svg" width="18" height="18" viewBox="0 0 18 18" fill="none">
  <path fill-rule="evenodd" clip-rule="evenodd" d="M5.41475 5.41475C5.63442 5.19508 5.99058 5.19508 6.21025 5.41475L9 8.2045L11.7898 5.41475C12.0094 5.19508 12.3656 5.19508 12.5852 5.41475C12.8049 5.63442 12.8049 5.99058 12.5852 6.21025L9.79549 9L12.5852 11.7898C12.8049 12.0094 12.8049 12.3656 12.5852 12.5852C12.3656 12.8049 12.0094 12.8049 11.7898 12.5852L9 9.79549L6.21025 12.5852C5.99058 12.8049 5.63442 12.8049 5.41475 12.5852C5.19508 12.3656 5.19508 12.0094 5.41475 11.7898L8.2045 9L5.41475 6.21025C5.19508 5.99058 5.19508 5.63442 5.41475 5.41475Z" fill="#BDB7C7"/>
</svg>