<svg fill="none" xmlns="http://www.w3.org/2000/svg" viewBox="0.94 1.5 16.12 15"> <path fill-rule="evenodd" clip-rule="evenodd" d="M1.71967 1.71967C2.01256 1.42678 2.48744 1.42678 2.78033 1.71967L5.51087 4.45021L5.51302 4.45235L13.548 12.4873L13.55 12.4893L16.2803 15.2197C16.5732 15.5126 16.5732 15.9874 16.2803 16.2803C15.9874 16.5732 15.5126 16.5732 15.2197 16.2803L12.9023 13.963C11.013 15.0164 8.90282 15.2724 6.89503 14.7082C4.70312 14.0922 2.69391 12.5172 1.23308 10.0635C0.843855 9.4098 0.842191 8.59359 1.23223 7.93828C1.97312 6.69351 2.85473 5.67474 3.83133 4.89199L1.71967 2.78033C1.42678 2.48744 1.42678 2.01256 1.71967 1.71967ZM6.00018 9.00017C6.00018 8.44413 6.1519 7.92289 6.41565 7.47631L7.55087 8.61153C7.51778 8.73542 7.50018 8.86566 7.50018 9.00017C7.50018 9.8286 8.17176 10.5002 9.00018 10.5002C9.13469 10.5002 9.26494 10.4826 9.38883 10.4495L10.524 11.5847C10.0775 11.8485 9.55622 12.0002 9.00018 12.0002C7.34333 12.0002 6.00018 10.657 6.00018 9.00017Z" fill="#5F586A"></path> <path d="M16.7671 10.0626C16.3155 10.8213 15.8112 11.4959 15.2656 12.084L6.57129 3.38969C7.36183 3.13115 8.17746 3.00001 8.9996 3C11.9634 2.99998 14.8425 4.70424 16.7671 7.93735C17.1568 8.59188 17.1568 9.40805 16.7671 10.0626Z" fill="#5F586A"></path> </svg>