<svg xmlns="http://www.w3.org/2000/svg" width="24" height="25" viewBox="0 0 24 25" fill="none">
  <path fill-rule="evenodd" clip-rule="evenodd" d="M19.16 4.25C19.62 4.63 20 5.16 20 5.82V11.19C20 11.45 19.88 11.77 19.53 12.12C19.17 12.48 18.63 12.83 17.89 13.15C16.42 13.78 14.34 14.19 12 14.19C9.66 14.19 7.58 13.78 6.11 13.15C5.37 12.83 4.82 12.48 4.47 12.12C4.12 11.77 4 11.45 4 11.19V5.82C4 5.16 4.38 4.63 4.84 4.25C5.3 3.86 5.92 3.55 6.62 3.3C8.03 2.8 9.93 2.5 12 2.5C14.07 2.5 15.97 2.8 17.38 3.3C18.08 3.55 18.7 3.86 19.16 4.25ZM7.12 4.72C6.51 4.93 6.07 5.17 5.8 5.4C5.52 5.64 5.5 5.78 5.5 5.83C5.5 5.88 5.52 6.03 5.8 6.26C6.07 6.48 6.51 6.72 7.12 6.94C8.34 7.37 10.06 7.65 12 7.65C13.94 7.65 15.67 7.37 16.88 6.94C17.49 6.73 17.93 6.49 18.2 6.26C18.48 6.02 18.5 5.88 18.5 5.83C18.5 5.78 18.48 5.63 18.2 5.4C17.93 5.18 17.49 4.94 16.88 4.72C15.66 4.29 13.94 4.01 12 4.01C10.06 4.01 8.33 4.29 7.12 4.72Z" fill="#BDB7C7"/>
  <path d="M5.52 14.5304C7.21 15.2604 9.51 15.6904 12 15.6904C14.49 15.6904 16.78 15.2604 18.48 14.5304C19.05 14.2904 19.56 14.0104 20 13.6904V19.1804C20 19.8504 19.62 20.3804 19.16 20.7604C18.7 21.1504 18.08 21.4604 17.38 21.7104C15.97 22.2104 14.07 22.5104 12 22.5104C9.93 22.5104 8.03 22.2104 6.62 21.7104C5.92 21.4604 5.3 21.1504 4.84 20.7604C4.38 20.3704 4 19.8404 4 19.1804V13.6904C4.44 14.0104 4.96 14.2904 5.52 14.5304Z" fill="#BDB7C7"/>
</svg>
