<svg xmlns="http://www.w3.org/2000/svg" width="24" height="25" viewBox="0 0 24 25" fill="none">
  <path fill-rule="evenodd" clip-rule="evenodd" d="M17.3214 3.5H11.1786C10.6367 3.5 10.1996 3.49999 9.84569 3.52891C9.48126 3.55868 9.16117 3.62159 8.86502 3.77248C8.39462 4.01217 8.01217 4.39462 7.77248 4.86502C7.62159 5.16117 7.55868 5.48126 7.52891 5.84569C7.49999 6.19962 7.5 6.63669 7.5 7.17857V7.5H6.6786C6.13671 7.5 5.69963 7.49999 5.34569 7.52891C4.98126 7.55868 4.66117 7.62159 4.36502 7.77248C3.89462 8.01217 3.51217 8.39462 3.27248 8.86502C3.12159 9.16117 3.05868 9.48126 3.02891 9.84569C2.99999 10.1996 3 10.6367 3 11.1786V17.8214C3 18.3633 2.99999 18.8004 3.02891 19.1543C3.05868 19.5187 3.12159 19.8388 3.27248 20.135C3.51217 20.6054 3.89462 20.9878 4.36502 21.2275C4.66117 21.3784 4.98126 21.4413 5.34569 21.4711C5.69958 21.5 6.1366 21.5 6.67839 21.5H13.3214C13.8632 21.5 14.3004 21.5 14.6543 21.4711C15.0187 21.4413 15.3388 21.3784 15.635 21.2275C16.1054 20.9878 16.4878 20.6054 16.7275 20.135C16.8784 19.8388 16.9413 19.5187 16.9711 19.1543C17 18.8004 17 18.3633 17 17.8215V17.5H17.3214C17.8633 17.5 18.3004 17.5 18.6543 17.4711C19.0187 17.4413 19.3388 17.3784 19.635 17.2275C20.1054 16.9878 20.4878 16.6054 20.7275 16.135C20.8784 15.8388 20.9413 15.5187 20.9711 15.1543C21 14.8004 21 14.3634 21 13.8216V7.17858C21 6.63677 21 6.19959 20.9711 5.84569C20.9413 5.48126 20.8784 5.16117 20.7275 4.86502C20.4878 4.39462 20.1054 4.01217 19.635 3.77248C19.3388 3.62159 19.0187 3.55868 18.6543 3.52891C18.3004 3.49999 17.8633 3.5 17.3214 3.5ZM17 16.5H17.3C17.8683 16.5 18.2645 16.4996 18.5729 16.4744C18.8755 16.4497 19.0493 16.4036 19.181 16.3365C19.4632 16.1927 19.6927 15.9632 19.8365 15.681C19.9036 15.5493 19.9497 15.3755 19.9744 15.0729C19.9996 14.7645 20 14.3683 20 13.8V7.2C20 6.6317 19.9996 6.23554 19.9744 5.92712C19.9497 5.62454 19.9036 5.45069 19.8365 5.31901C19.6927 5.03677 19.4632 4.8073 19.181 4.66349C19.0493 4.5964 18.8755 4.55031 18.5729 4.52559C18.2645 4.50039 17.8683 4.5 17.3 4.5H11.2C10.6317 4.5 10.2355 4.50039 9.92712 4.52559C9.62454 4.55031 9.45069 4.5964 9.31901 4.66349C9.03677 4.8073 8.8073 5.03677 8.66349 5.31901C8.5964 5.45069 8.55031 5.62454 8.52559 5.92712C8.50039 6.23554 8.5 6.6317 8.5 7.2V7.5H13.3214C13.8633 7.5 14.3004 7.49999 14.6543 7.52891C15.0187 7.55868 15.3388 7.62159 15.635 7.77248C16.1054 8.01217 16.4878 8.39462 16.7275 8.86502C16.8784 9.16117 16.9413 9.48126 16.9711 9.84569C17 10.1996 17 10.6367 17 11.1785V16.5Z" fill="#9B95A5" stroke="#9B95A5" stroke-linecap="round" stroke-linejoin="round"/>
</svg>