<svg xmlns="http://www.w3.org/2000/svg" width="18" height="18" viewBox="0 0 18 18" fill="none">
  <path fill-rule="evenodd" clip-rule="evenodd" d="M5.56298 3.75C6.14157 2.42586 7.46228 1.5 9.0007 1.5C10.5391 1.5 11.8598 2.42586 12.4384 3.75H15.75C16.1642 3.75 16.5 4.08579 16.5 4.5C16.5 4.91421 16.1642 5.25 15.75 5.25H14.9517L14.3417 14.3997C14.2629 15.5816 13.2812 16.5 12.0967 16.5H5.90333C4.71879 16.5 3.73711 15.5816 3.65831 14.3997L3.04834 5.25H2.25C1.83579 5.25 1.5 4.91421 1.5 4.5C1.5 4.08579 1.83579 3.75 2.25 3.75H5.56298ZM7.32346 3.75C7.73569 3.28959 8.33476 3 9.0007 3C9.66664 3 10.2657 3.28959 10.6779 3.75H7.32346ZM8.25 8.25C8.25 7.83579 7.91421 7.5 7.5 7.5C7.08579 7.5 6.75 7.83579 6.75 8.25V12C6.75 12.4142 7.08579 12.75 7.5 12.75C7.91421 12.75 8.25 12.4142 8.25 12V8.25ZM10.5 7.5C10.9142 7.5 11.25 7.83579 11.25 8.25V12C11.25 12.4142 10.9142 12.75 10.5 12.75C10.0858 12.75 9.75 12.4142 9.75 12V8.25C9.75 7.83579 10.0858 7.5 10.5 7.5Z" fill="#5F586A"/>
</svg>