<svg fill="none" xmlns="http://www.w3.org/2000/svg" viewBox="2.25 2.25 13.5 13.5"> <path fill-rule="evenodd" clip-rule="evenodd" d="M2.25 3C2.25 2.58579 2.58579 2.25 3 2.25H3.75C4.99264 2.25 6 3.25736 6 4.5V9.84451C7.05421 10.1158 7.88415 10.9458 8.15549 12H15C15.4142 12 15.75 12.3358 15.75 12.75C15.75 13.1642 15.4142 13.5 15 13.5H8.15549C7.82245 14.7939 6.64788 15.75 5.25 15.75C3.59315 15.75 2.25 14.4069 2.25 12.75C2.25 11.3521 3.20608 10.1775 4.5 9.84451V4.5C4.5 4.08579 4.16421 3.75 3.75 3.75H3C2.58579 3.75 2.25 3.41421 2.25 3ZM5.25 11.25C6.07843 11.25 6.75 11.9216 6.75 12.75C6.75 13.5784 6.07843 14.25 5.25 14.25C4.42157 14.25 3.75 13.5784 3.75 12.75C3.75 11.9216 4.42157 11.25 5.25 11.25Z" fill="white"></path> <path d="M9.75 3H10.875V6C10.875 6.41421 11.2108 6.75 11.625 6.75C12.0392 6.75 12.375 6.41421 12.375 6V3H13.5C14.7426 3 15.75 4.00736 15.75 5.25V8.25C15.75 9.49264 14.7426 10.5 13.5 10.5H9.75C8.50736 10.5 7.5 9.49264 7.5 8.25V5.25C7.5 4.00736 8.50736 3 9.75 3Z" fill="white"></path> </svg>