<svg fill="none" xmlns="http://www.w3.org/2000/svg" viewBox="2 2.5 20 20"> <path fill-rule="evenodd" clip-rule="evenodd" d="M2 12.5C2 6.97715 6.47715 2.5 12 2.5C17.5228 2.5 22 6.97715 22 12.5C22 18.0228 17.5228 22.5 12 22.5C6.47715 22.5 2 18.0228 2 12.5ZM13 6.49902C13 5.94674 12.5523 5.49902 12 5.49902C11.4477 5.49902 11 5.94674 11 6.49902V7.09658C10.4868 7.20212 10.0007 7.40116 9.5877 7.72679C8.87526 8.28848 8.51312 9.12195 8.51312 10.1009C8.51312 11.2451 8.98398 12.0418 9.70589 12.5735C10.2701 12.989 10.9814 13.2264 11.5142 13.4042C11.5713 13.4232 11.6263 13.4416 11.6789 13.4594L11.7814 13.4941C12.4007 13.7037 12.8105 13.8424 13.1081 14.0616C13.3245 14.221 13.4869 14.4231 13.4869 14.9239C13.4869 15.3808 13.3386 15.5977 13.174 15.7274C12.9727 15.8861 12.6004 16.0246 12 16.0246C11.2819 16.0246 10.8536 15.7025 10.6439 15.326C10.3751 14.8436 9.76608 14.6703 9.28361 14.9391C8.80115 15.2079 8.62792 15.8169 8.8967 16.2994C9.33233 17.0814 10.0684 17.6595 11 17.9007V18.5C11 19.0523 11.4477 19.5 12 19.5C12.5523 19.5 13 19.0523 13 18.5V17.9282C13.5132 17.8226 13.9993 17.6236 14.4123 17.2979C15.1247 16.7363 15.4869 15.9028 15.4869 14.9239C15.4869 13.7797 15.016 12.9829 14.2941 12.4512C13.7299 12.0357 13.0186 11.7983 12.4858 11.6206C12.4287 11.6015 12.3737 11.5831 12.3211 11.5653L12.2186 11.5306C11.5992 11.321 11.1895 11.1823 10.8919 10.9631C10.6755 10.8038 10.5131 10.6016 10.5131 10.1009C10.5131 9.64395 10.6614 9.42708 10.826 9.29738C11.0273 9.13866 11.3996 9.00018 12 9.00018C12.7181 9.00018 13.1464 9.32219 13.3561 9.6987C13.6249 10.1812 14.2339 10.3544 14.7164 10.0856C15.1989 9.81684 15.3721 9.20783 15.1033 8.72536C14.6677 7.94338 13.9316 7.36525 13 7.12409V6.49902Z" fill="#BDB7C7"></path> </svg>