<svg xmlns="http://www.w3.org/2000/svg" width="20" height="20" viewBox="0 0 20 20" fill="none">
  <path d="M9.99984 6.25006C8.77821 6.25006 7.92744 6.80412 7.92744 8.00064C7.92744 9.37144 8.98283 9.66546 9.99984 10.0102C11.0168 10.355 12.0722 10.649 12.0722 12.0198C12.0722 13.2163 11.2215 13.7704 9.99984 13.7704M9.99984 6.25006C10.8839 6.25006 11.5281 6.66789 11.8579 7.25994M9.99984 6.25006V4.79163M9.99984 13.7704C9.11573 13.7704 8.47157 13.3526 8.14174 12.7605M9.99984 13.7704V15.2083M17.7082 9.99996C17.7082 14.2572 14.257 17.7083 9.99984 17.7083C5.74264 17.7083 2.2915 14.2572 2.2915 9.99996C2.2915 5.74276 5.74264 2.29163 9.99984 2.29163C14.257 2.29163 17.7082 5.74276 17.7082 9.99996Z" stroke="white" stroke-width="1.5" stroke-linecap="round" stroke-linejoin="round"/>
</svg>