<svg xmlns="http://www.w3.org/2000/svg" width="50" height="15" viewBox="0 0 50 15" fill="none">
  <path d="M48.8536 7.85355C49.0488 7.65829 49.0488 7.34171 48.8536 7.14645L45.6716 3.96447C45.4763 3.7692 45.1597 3.7692 44.9645 3.96447C44.7692 4.15973 44.7692 4.47631 44.9645 4.67157L47.7929 7.5L44.9645 10.3284C44.7692 10.5237 44.7692 10.8403 44.9645 11.0355C45.1597 11.2308 45.4763 11.2308 45.6716 11.0355L48.8536 7.85355ZM0.5 8H2.5V7H0.5V8ZM6.5 8H10.5V7H6.5V8ZM14.5 8H18.5V7H14.5V8ZM22.5 8H26.5V7H22.5V8ZM30.5 8H34.5V7H30.5V8ZM38.5 8H42.5V7H38.5V8ZM46.5 8H48.5V7H46.5V8ZM49.2071 8.20711C49.5976 7.81658 49.5976 7.18342 49.2071 6.79289L42.8431 0.428932C42.4526 0.0384078 41.8195 0.0384078 41.4289 0.428932C41.0384 0.819457 41.0384 1.45262 41.4289 1.84315L47.0858 7.5L41.4289 13.1569C41.0384 13.5474 41.0384 14.1805 41.4289 14.5711C41.8195 14.9616 42.4526 14.9616 42.8431 14.5711L49.2071 8.20711ZM0.5 8.5H2.5V6.5H0.5V8.5ZM6.5 8.5H10.5V6.5H6.5V8.5ZM14.5 8.5H18.5V6.5H14.5V8.5ZM22.5 8.5H26.5V6.5H22.5V8.5ZM30.5 8.5H34.5V6.5H30.5V8.5ZM38.5 8.5H42.5V6.5H38.5V8.5ZM46.5 8.5H48.5V6.5H46.5V8.5Z" fill="#8962F8"/>
</svg>