<svg fill="none" xmlns="http://www.w3.org/2000/svg" viewBox="2.7 1.16 31.61 33.68"> <path d="M13.9375 2.38367C16.7608 0.753648 20.2392 0.753648 23.0625 2.38367L29.7425 6.24035C32.5657 7.87037 34.305 10.8828 34.305 14.1428V21.8562C34.305 25.1162 32.5657 28.1286 29.7425 29.7587L23.0625 33.6153C20.2392 35.2454 16.7608 35.2454 13.9375 33.6154L7.25754 29.7587C4.43425 28.1286 2.69504 25.1162 2.69504 21.8562V14.1428C2.69504 10.8828 4.43425 7.87038 7.25754 6.24035L13.9375 2.38367Z" fill="#7E5DDC"></path> <path d="M7.91087 23V14.2727H13.7915V15.794H9.75604V17.8736H13.489V19.3949H9.75604V21.4787H13.8086V23H7.91087ZM16.9886 14.2727L18.7486 17.2472H18.8168L20.5852 14.2727H22.669L20.0057 18.6364L22.7287 23H20.6065L18.8168 20.0213H18.7486L16.9588 23H14.8452L17.5767 18.6364L14.8963 14.2727H16.9886ZM23.8366 23V14.2727H27.2798C27.9418 14.2727 28.5057 14.3991 28.9716 14.652C29.4375 14.902 29.7926 15.25 30.0369 15.696C30.2841 16.1392 30.4077 16.6506 30.4077 17.2301C30.4077 17.8097 30.2827 18.321 30.0327 18.7642C29.7827 19.2074 29.4205 19.5526 28.946 19.7997C28.4744 20.0469 27.9034 20.1705 27.233 20.1705H25.0384V18.6918H26.9347C27.2898 18.6918 27.5824 18.6307 27.8125 18.5085C28.0455 18.3835 28.2188 18.2116 28.3324 17.9929C28.4489 17.7713 28.5071 17.517 28.5071 17.2301C28.5071 16.9403 28.4489 16.6875 28.3324 16.4716C28.2188 16.2528 28.0455 16.0838 27.8125 15.9645C27.5795 15.8423 27.2841 15.7812 26.9261 15.7812H25.6818V23H23.8366Z" fill="white"></path> </svg>