<svg fill="none" xmlns="http://www.w3.org/2000/svg" viewBox="2.25 1.76 13.5 15.24"> <path fill-rule="evenodd" clip-rule="evenodd" d="M9 16.9994C12.7279 16.9994 15.75 13.9774 15.75 10.2494V5.98047C15.75 5.08655 15.2208 4.27741 14.4018 3.91911L9.90184 1.95036C9.32692 1.69884 8.67308 1.69884 8.09816 1.95036L3.59816 3.91911C2.77919 4.27741 2.25 5.08655 2.25 5.98047V10.2494C2.25 13.9774 5.27208 16.9994 9 16.9994ZM11.7803 8.52977C12.0732 8.23687 12.0732 7.762 11.7803 7.46911C11.4874 7.17621 11.0126 7.17621 10.7197 7.46911L8.25 9.93878L7.28033 8.96911C6.98744 8.67621 6.51256 8.67621 6.21967 8.96911C5.92678 9.262 5.92678 9.73687 6.21967 10.0298L7.71967 11.5298C8.01256 11.8227 8.48744 11.8227 8.78033 11.5298L11.7803 8.52977Z" fill="#9B95A5"></path> </svg>