<svg xmlns="http://www.w3.org/2000/svg" fill="none" viewBox="3 1.21 12 15.29"> <path fill-rule="evenodd" clip-rule="evenodd" d="M14.6431 3.11126C14.9958 3.32834 15.1058 3.7903 14.8887 4.14307L13.2845 6.75H14.25C14.6642 6.75 15 7.08579 15 7.5V14.25C15 15.4926 13.9926 16.5 12.75 16.5H5.25C4.00736 16.5 3 15.4926 3 14.25V7.5C3 7.08579 3.33579 6.75 3.75 6.75H11.5232L13.6113 3.35693C13.8283 3.00416 14.2903 2.89417 14.6431 3.11126ZM7.5 9.75C7.08579 9.75 6.75 10.0858 6.75 10.5C6.75 10.9142 7.08579 11.25 7.5 11.25H10.5C10.9142 11.25 11.25 10.9142 11.25 10.5C11.25 10.0858 10.9142 9.75 10.5 9.75H7.5Z"  ></path> <path d="M8.88756 2.30589C8.96013 2.26961 9.01898 2.21076 9.05527 2.13819L9.41395 1.42081C9.55215 1.14442 9.94658 1.14442 10.0848 1.42081L10.4435 2.13819C10.4797 2.21076 10.5386 2.26961 10.6112 2.30589L11.3285 2.66458C11.6049 2.80278 11.6049 3.1972 11.3285 3.3354L10.6112 3.69409C10.5386 3.73038 10.4797 3.78922 10.4435 3.86179L10.0848 4.57917C9.94658 4.85556 9.55215 4.85556 9.41395 4.57917L9.05527 3.86179C9.01898 3.78922 8.96013 3.73038 8.88756 3.69409L8.17019 3.3354C7.89379 3.1972 7.89379 2.80278 8.17019 2.66458L8.88756 2.30589Z"  ></path> <path d="M4.88756 3.55589C4.96013 3.51961 5.01898 3.46076 5.05527 3.38819L5.28895 2.92081C5.42715 2.64442 5.82158 2.64442 5.95977 2.92081L6.19346 3.38819C6.22975 3.46076 6.2886 3.51961 6.36117 3.55589L6.82854 3.78958C7.10494 3.92778 7.10494 4.3222 6.82854 4.4604L6.36117 4.69409C6.2886 4.73038 6.22975 4.78922 6.19346 4.86179L5.95978 5.32917C5.82158 5.60556 5.42715 5.60556 5.28895 5.32917L5.05527 4.86179C5.01898 4.78922 4.96013 4.73038 4.88756 4.69409L4.42019 4.4604C4.14379 4.32221 4.14379 3.92778 4.42019 3.78958L4.88756 3.55589Z"  ></path> </svg>
