<svg fill="none" xmlns="http://www.w3.org/2000/svg" viewBox="3 1.21 12 15.29"> <path fill-rule="evenodd" clip-rule="evenodd" d="M14.6431 3.11118C14.9958 3.32827 15.1058 3.79023 14.8887 4.143L13.2845 6.74992H14.25C14.6642 6.74992 15 7.08571 15 7.49992V14.2499C15 15.4926 13.9926 16.4999 12.75 16.4999H5.25C4.00736 16.4999 3 15.4926 3 14.2499V7.49992C3 7.08571 3.33579 6.74992 3.75 6.74992H11.5232L13.6113 3.35685C13.8283 3.00408 14.2903 2.89409 14.6431 3.11118ZM7.5 9.74992C7.08579 9.74992 6.75 10.0857 6.75 10.4999C6.75 10.9141 7.08579 11.2499 7.5 11.2499H10.5C10.9142 11.2499 11.25 10.9141 11.25 10.4999C11.25 10.0857 10.9142 9.74992 10.5 9.74992H7.5Z" fill="#9B95A5"></path> <path d="M8.88756 2.30582C8.96013 2.26953 9.01898 2.21068 9.05527 2.13811L9.41395 1.42073C9.55215 1.14434 9.94658 1.14434 10.0848 1.42073L10.4435 2.13811C10.4797 2.21068 10.5386 2.26953 10.6112 2.30582L11.3285 2.6645C11.6049 2.8027 11.6049 3.19713 11.3285 3.33532L10.6112 3.69401C10.5386 3.7303 10.4797 3.78915 10.4435 3.86172L10.0848 4.57909C9.94658 4.85549 9.55215 4.85549 9.41395 4.57909L9.05527 3.86172C9.01898 3.78915 8.96013 3.7303 8.88756 3.69401L8.17019 3.33532C7.89379 3.19713 7.89379 2.8027 8.17019 2.6645L8.88756 2.30582Z" fill="#9B95A5"></path> <path d="M4.88756 3.55582C4.96013 3.51953 5.01898 3.46068 5.05527 3.38811L5.28895 2.92074C5.42715 2.64434 5.82158 2.64434 5.95977 2.92074L6.19346 3.38811C6.22975 3.46068 6.2886 3.51953 6.36117 3.55582L6.82854 3.7895C7.10494 3.9277 7.10494 4.32213 6.82854 4.46032L6.36117 4.69401C6.2886 4.7303 6.22975 4.78915 6.19346 4.86172L5.95978 5.32909C5.82158 5.60549 5.42715 5.60549 5.28895 5.32909L5.05527 4.86172C5.01898 4.78915 4.96013 4.7303 4.88756 4.69401L4.42019 4.46033C4.14379 4.32213 4.14379 3.9277 4.42019 3.7895L4.88756 3.55582Z" fill="#9B95A5"></path> </svg>