<svg xmlns="http://www.w3.org/2000/svg" width="24" height="24" viewBox="0 0 24 24" fill="none">
  <g clip-path="url(#clip0_1454_19540)">
    <path d="M0 0H5.25047L11.0686 6.89906C11.0723 6.90353 11.0744 6.90917 11.0744 6.915C11.0744 6.92083 11.0723 6.92647 11.0686 6.93094L7.31391 11.3892C7.31225 11.3911 7.31023 11.3927 7.30796 11.3938C7.3057 11.395 7.30323 11.3956 7.3007 11.3958C7.29818 11.396 7.29564 11.3957 7.29324 11.3948C7.29084 11.394 7.28862 11.3928 7.28672 11.3911L0 5.24719V0Z" fill="#BDB7C7"/>
    <path d="M18.7516 0H23.9997V5.25047L10.1711 16.905C10.1659 16.9094 10.1592 16.9116 10.1524 16.9113C10.1455 16.9109 10.139 16.908 10.1341 16.9031L7.09236 13.8619C7.08904 13.8585 7.0871 13.8539 7.08693 13.8492C7.08675 13.8444 7.08836 13.8397 7.09143 13.8361L18.7516 0Z" fill="#BDB7C7"/>
    <path d="M16.9101 13.8605L13.8618 16.9088C13.8587 16.9118 13.8546 16.9136 13.8503 16.9138C13.846 16.914 13.8417 16.9125 13.8384 16.9097L13.1085 16.2961C13.1067 16.2945 13.1051 16.2925 13.1041 16.2902C13.1031 16.2879 13.1025 16.2855 13.1025 16.283C13.1025 16.2805 13.1031 16.278 13.1041 16.2758C13.1051 16.2735 13.1067 16.2715 13.1085 16.2698L16.5182 13.3978C16.5217 13.3948 16.5262 13.3934 16.5308 13.3937C16.5354 13.3941 16.5396 13.3962 16.5426 13.3997L16.911 13.837C16.9139 13.8403 16.9153 13.8446 16.9151 13.8489C16.915 13.8533 16.9132 13.8574 16.9101 13.8605Z" fill="#BDB7C7"/>
    <path d="M8.13047 18.8783C8.12722 18.8751 8.12284 18.8733 8.11828 18.8733C8.11372 18.8733 8.10934 18.8751 8.10609 18.8783L5.59266 21.3918C5.59085 21.3935 5.58859 21.3948 5.58612 21.3953C5.58366 21.3959 5.58109 21.3957 5.57871 21.3949C5.57633 21.3941 5.57422 21.3926 5.57263 21.3906C5.57103 21.3887 5.57001 21.3863 5.56969 21.3838C5.355 19.8224 4.16578 18.6613 2.61187 18.4279C2.61012 18.4277 2.60845 18.427 2.60707 18.4259C2.60568 18.4248 2.60464 18.4233 2.60405 18.4217C2.60346 18.42 2.60336 18.4182 2.60375 18.4165C2.60414 18.4148 2.605 18.4132 2.60625 18.4119L5.11922 15.8994C5.12343 15.895 5.12578 15.8892 5.12578 15.8831C5.12578 15.8771 5.12343 15.8713 5.11922 15.8671L4.15359 14.9015C4.15192 14.8998 4.15059 14.8978 4.14969 14.8957C4.14878 14.8935 4.14832 14.8912 4.14832 14.8888C4.14832 14.8865 4.14878 14.8841 4.14969 14.882C4.15059 14.8798 4.15192 14.8778 4.15359 14.8762L5.12484 13.9049C5.12769 13.902 5.1316 13.9004 5.13572 13.9004C5.13985 13.9004 5.14385 13.902 5.14687 13.9049L10.0931 18.8516C10.095 18.8535 10.0965 18.8556 10.0975 18.8581C10.0985 18.8605 10.099 18.8631 10.099 18.8657C10.099 18.8683 10.0985 18.8709 10.0975 18.8733C10.0965 18.8757 10.095 18.8779 10.0931 18.8797L9.12562 19.8477C9.12212 19.8511 9.11741 19.8531 9.1125 19.8531C9.10759 19.8531 9.10288 19.8511 9.09937 19.8477L8.13047 18.8783Z" fill="#BDB7C7"/>
    <path d="M18.8819 15.8673C18.8778 15.8714 18.8755 15.8769 18.8755 15.8827C18.8755 15.8885 18.8778 15.8941 18.8819 15.8982L21.3916 18.4074C21.3931 18.409 21.3941 18.4109 21.3946 18.413C21.395 18.415 21.3949 18.4172 21.3942 18.4192C21.3936 18.4213 21.3923 18.4231 21.3907 18.4245C21.3891 18.4258 21.3871 18.4268 21.385 18.4271C19.8241 18.6657 18.6588 19.8169 18.4286 21.384C18.4283 21.3861 18.4273 21.3881 18.426 21.3897C18.4246 21.3913 18.4228 21.3925 18.4207 21.3932C18.4187 21.3939 18.4165 21.394 18.4145 21.3935C18.4124 21.3931 18.4105 21.392 18.4089 21.3905L15.902 18.8837C15.8899 18.8715 15.8777 18.8715 15.8655 18.8837L14.9027 19.8469C14.8992 19.8504 14.8944 19.8523 14.8895 19.8523C14.8846 19.8523 14.8799 19.8504 14.8764 19.8469L13.908 18.8785C13.9062 18.8767 13.9048 18.8746 13.9038 18.8723C13.9028 18.8699 13.9023 18.8674 13.9023 18.8649C13.9023 18.8624 13.9028 18.8599 13.9038 18.8576C13.9048 18.8552 13.9062 18.8531 13.908 18.8513L18.8519 13.9069C18.8556 13.9033 18.8606 13.9013 18.8659 13.9014C18.8712 13.9015 18.8762 13.9036 18.88 13.9074L19.8475 14.8744C19.8493 14.8762 19.8507 14.8784 19.8517 14.8807C19.8526 14.883 19.8531 14.8855 19.8531 14.888C19.8531 14.8906 19.8526 14.8931 19.8517 14.8954C19.8507 14.8977 19.8493 14.8999 19.8475 14.9016L18.8819 15.8673Z" fill="#BDB7C7"/>
    <path d="M2.21437 24H1.99875C1.19812 23.9284 0.611875 23.5516 0.24 22.8694C0.105625 22.6231 0.025625 22.3383 0 22.0149V21.7594C0.076875 20.9778 0.441094 20.4053 1.09266 20.0419C1.73578 19.6833 2.56594 19.7006 3.20906 20.0944C4.23469 20.722 4.51078 22.0692 3.87422 23.0461C3.49859 23.623 2.94531 23.9409 2.21437 24Z" fill="#BDB7C7"/>
    <path d="M24.0002 21.7767V22.0116C23.9041 23.1089 23.0941 23.9283 21.9944 24H21.7802C21.0839 23.9331 20.5506 23.6389 20.1803 23.1174C19.7186 22.4681 19.6572 21.6375 20.0134 20.9367C20.5722 19.837 21.9728 19.448 23.0111 20.1024C23.6064 20.4777 23.9361 21.0358 24.0002 21.7767Z" fill="#BDB7C7"/>
  </g>
  <defs>
    <clipPath id="clip0_1454_19540">
      <rect width="24" height="24" fill="white"/>
    </clipPath>
  </defs>
</svg>