<svg fill="none" xmlns="http://www.w3.org/2000/svg" viewBox="0.05 0.31 98.37 19.22"> <path fill-rule="evenodd" clip-rule="evenodd" d="M0.0527344 1.29441C0.0527344 0.750113 0.493979 0.308868 1.03828 0.308868H5.33532C5.87959 0.308868 6.32082 0.750113 6.32082 1.29441V18.1277C6.32082 18.6719 5.87959 19.1132 5.33532 19.1132H1.03828C0.493979 19.1132 0.0527344 18.6719 0.0527344 18.1277V1.29441ZM62.734 6.98124C62.734 6.43692 63.175 5.99569 63.7193 5.99569H67.4326V2.96573C67.4326 2.42143 67.8739 1.98018 68.4183 1.98018H72.9287C73.473 1.98018 73.9139 2.42143 73.9139 2.96573V5.99569H77.6276C78.172 5.99569 78.6129 6.43692 78.6129 6.98124V9.02566C78.6129 9.56997 78.172 10.0112 77.6276 10.0112H73.9139V18.1275C73.9139 18.6718 73.473 19.113 72.9287 19.113H68.4183C67.8739 19.113 67.4326 18.6718 67.4326 18.1275V10.0112H63.7193C63.175 10.0112 62.734 9.56997 62.734 9.02566V6.98124ZM49.2068 19.5309C46.3504 19.5309 43.9704 19.2941 42.0661 18.8205C40.18 18.3469 38.7609 17.591 37.8088 16.5527C36.8747 15.5145 36.4077 14.1483 36.4077 12.4543C36.4077 10.7604 36.8747 9.39424 37.8088 8.35596C38.7609 7.29951 40.18 6.53448 42.0661 6.06086C43.9704 5.56908 46.3504 5.32317 49.2068 5.32317C52.0451 5.32317 54.398 5.56908 56.2664 6.06086C58.1525 6.53448 59.5626 7.29951 60.497 8.35596C61.431 9.39424 61.8982 10.7604 61.8982 12.4543C61.8982 14.1483 61.431 15.5145 60.497 16.5527C59.5626 17.591 58.1525 18.3469 56.2664 18.8205C54.398 19.2941 52.0451 19.5309 49.2068 19.5309ZM49.2068 15.5691C50.5361 15.5691 51.6498 15.4598 52.5479 15.2413C53.4463 15.0045 54.1287 14.6584 54.5959 14.203C55.0627 13.7294 55.2965 13.1465 55.2965 12.4543C55.2965 11.7622 55.0627 11.1793 54.5959 10.7057C54.1469 10.2321 53.4729 9.87694 52.5749 9.64011C51.6769 9.40333 50.5539 9.28493 49.2068 9.28493C47.8775 9.28493 46.7457 9.40333 45.8117 9.64011C44.8955 9.87694 44.1949 10.2321 43.71 10.7057C43.2428 11.1611 43.0094 11.744 43.0094 12.4543C43.0094 13.1465 43.2428 13.7294 43.71 14.203C44.1768 14.6584 44.8685 15.0045 45.7847 15.2413C46.7187 15.4598 47.8594 15.5691 49.2068 15.5691ZM14.4863 18.8205C16.3905 19.2941 18.7707 19.5309 21.6269 19.5309C24.4651 19.5309 26.8184 19.2941 28.6866 18.8205C30.5727 18.3469 31.9829 17.591 32.917 16.5527C33.8511 15.5145 34.3182 14.1483 34.3182 12.4543C34.3182 10.7604 33.8511 9.39424 32.917 8.35596C31.9829 7.29951 30.5727 6.53448 28.6866 6.06086C26.8184 5.56908 24.4651 5.32317 21.6269 5.32317C18.7707 5.32317 16.3905 5.56908 14.4863 6.06086C12.6002 6.53448 11.1811 7.29951 10.229 8.35596C9.2949 9.39424 8.82783 10.7604 8.82783 12.4543C8.82783 14.1483 9.2949 15.5145 10.229 16.5527C11.1811 17.591 12.6002 18.3469 14.4863 18.8205ZM24.9681 15.2413C24.0699 15.4598 22.9562 15.5691 21.6269 15.5691C20.2796 15.5691 19.1389 15.4598 18.2048 15.2413C17.2887 15.0045 16.5971 14.6584 16.13 14.203C15.663 13.7294 15.4295 13.1465 15.4295 12.4543C15.4295 11.744 15.663 11.1611 16.13 10.7057C16.615 10.2321 17.3156 9.87694 18.2318 9.64011C19.1659 9.40333 20.2976 9.28493 21.6269 9.28493C22.9741 9.28493 24.0969 9.40333 24.9951 9.64011C25.8932 9.87694 26.5668 10.2321 27.0159 10.7057C27.483 11.1793 27.7165 11.7622 27.7165 12.4543C27.7165 13.1465 27.483 13.7294 27.0159 14.203C26.5489 14.6584 25.8663 15.0045 24.9681 15.2413ZM93.7593 9.38536C93.2376 9.38536 92.8742 9.4133 92.669 9.46923C92.4643 9.51889 92.3618 9.62138 92.3618 9.77668C92.3618 9.86366 92.4021 9.92887 92.4829 9.97236C92.5637 10.0096 92.6723 10.0282 92.8088 10.0282H95.5574C96.1724 10.0282 96.6569 10.0717 97.0107 10.1587C97.3648 10.2519 97.6135 10.404 97.7561 10.6152C97.9051 10.8326 97.9798 11.1277 97.9798 11.5003C97.9798 11.7936 97.7419 12.0314 97.4488 12.0314H95.9951C95.8562 12.0314 95.7435 11.9188 95.7435 11.7798C95.7435 11.5935 95.66 11.4817 95.492 11.4444C95.3305 11.4134 95.0728 11.3978 94.7187 11.3978H92.1195C91.6785 11.3978 91.3212 11.3668 91.0478 11.3047C90.7809 11.2426 90.5758 11.1587 90.4328 11.0531C90.2963 10.9475 90.2031 10.8295 90.1534 10.6991C90.1102 10.5748 90.0884 10.4506 90.0884 10.3264C90.0884 10.0593 90.1877 9.85122 90.3864 9.70214C90.5851 9.54688 90.8895 9.43818 91.2994 9.37603C91.5643 9.33593 91.876 9.30876 92.2342 9.29455C91.9967 9.26208 91.7783 9.22093 91.5792 9.17106C91.0074 9.02198 90.5851 8.80151 90.3121 8.50957C90.0387 8.2114 89.9018 7.83874 89.9018 7.39153C89.9018 6.97534 90.0355 6.61512 90.3024 6.31073C90.5697 6.00017 90.9856 5.75794 91.5509 5.58402C92.1223 5.41011 92.8584 5.32313 93.7593 5.32313H94.3089H94.8584H97.817C98.149 5.32313 98.4179 5.59202 98.4179 5.92365C98.4179 6.24455 98.1651 6.5115 97.8445 6.49866C97.6273 6.48998 97.4084 6.4708 97.1879 6.4412C97.0014 6.41289 96.8209 6.38075 96.6472 6.34473C96.6787 6.36097 96.7098 6.3776 96.7405 6.3946C96.9953 6.53125 97.2004 6.69583 97.3555 6.8884C97.511 7.08094 97.5885 7.31078 97.5885 7.57785C97.5885 7.96295 97.4548 8.29216 97.1879 8.56545C96.9271 8.83256 96.514 9.03753 95.9487 9.18039C95.3898 9.31704 94.6598 9.38536 93.7593 9.38536ZM94.747 8.07165C94.4982 8.13379 94.1691 8.16484 93.7593 8.16484C93.343 8.16484 93.0074 8.13379 92.753 8.07165C92.4982 8.00333 92.3121 7.91328 92.1938 7.80147C92.0819 7.68966 92.0262 7.56545 92.0262 7.4288C92.0262 7.2735 92.0852 7.13997 92.2031 7.02816C92.3214 6.91635 92.5075 6.82941 92.7623 6.76727C93.0171 6.70516 93.349 6.67411 93.7593 6.67411C94.1752 6.67411 94.5075 6.70516 94.7563 6.76727C95.0046 6.82941 95.1847 6.91635 95.2965 7.02816C95.4084 7.13997 95.4641 7.2735 95.4641 7.4288C95.4641 7.56545 95.4084 7.68966 95.2965 7.80147C95.1847 7.91328 95.0014 8.00333 94.747 8.07165ZM83.8873 9.46923C84.0924 9.41334 84.4554 9.3854 84.9771 9.3854C85.878 9.3854 86.6077 9.31708 87.1669 9.18043C87.7322 9.03757 88.1453 8.8326 88.4062 8.56549C88.6731 8.2922 88.8067 7.96299 88.8067 7.57789C88.8067 7.31082 88.7288 7.08098 88.5737 6.88844C88.4183 6.69587 88.2136 6.53129 87.9588 6.39464C87.9277 6.37764 87.8966 6.36101 87.8655 6.34477C88.0391 6.38079 88.2192 6.41293 88.4062 6.4412C88.6266 6.47084 88.8455 6.49002 89.0627 6.4987C89.3834 6.51154 89.6357 6.24455 89.6357 5.92369C89.6357 5.59202 89.3668 5.32317 89.0353 5.32317H86.0767H85.5271H84.9771C84.0767 5.32317 83.3405 5.41015 82.7692 5.58406C82.2039 5.75798 81.7879 6.00021 81.5206 6.31077C81.2537 6.61512 81.1201 6.97538 81.1201 7.39153C81.1201 7.83878 81.2566 8.21144 81.5299 8.50961C81.8033 8.80151 82.2257 9.02202 82.797 9.1711C82.9965 9.22097 83.215 9.26212 83.4524 9.29459C83.0938 9.3088 82.7825 9.33593 82.5176 9.37607C82.1078 9.43818 81.8033 9.54688 81.6046 9.70218C81.406 9.85126 81.3066 10.0593 81.3066 10.3264C81.3066 10.4507 81.328 10.5749 81.3716 10.6991C81.4213 10.8295 81.5146 10.9476 81.6511 11.0532C81.794 11.1588 81.9991 11.2426 82.266 11.3047C82.5394 11.3668 82.8964 11.3979 83.3377 11.3979H85.937C86.2911 11.3979 86.5487 11.4134 86.7102 11.4445C86.8782 11.4817 86.9618 11.5935 86.9618 11.7799C86.9618 11.9188 87.0744 12.0314 87.2134 12.0314H88.667C88.9602 12.0314 89.198 11.7937 89.198 11.5004C89.198 11.1277 89.1233 10.8326 88.9743 10.6152C88.8314 10.4041 88.583 10.2519 88.2289 10.1587C87.8748 10.0717 87.3906 10.0283 86.7756 10.0283H84.027C83.8905 10.0283 83.7815 10.0096 83.7007 9.97236C83.62 9.92887 83.5796 9.86366 83.5796 9.77672C83.5796 9.62142 83.6822 9.51894 83.8873 9.46923ZM84.9771 8.16484C85.3874 8.16484 85.7165 8.13379 85.9648 8.07169C86.2196 8.00337 86.4029 7.91332 86.5148 7.80151C86.6266 7.6897 86.6824 7.56545 86.6824 7.4288C86.6824 7.27355 86.6266 7.13997 86.5148 7.0282C86.4029 6.91639 86.2228 6.82941 85.9741 6.76731C85.7258 6.7052 85.3934 6.67415 84.9771 6.67415C84.5673 6.67415 84.235 6.7052 83.9806 6.76731C83.7258 6.82941 83.5392 6.91639 83.4213 7.0282C83.3034 7.13997 83.2444 7.27355 83.2444 7.4288C83.2444 7.56545 83.3002 7.6897 83.412 7.80151C83.5299 7.91332 83.7165 8.00337 83.9713 8.07169C84.2257 8.13379 84.5612 8.16484 84.9771 8.16484ZM80.4934 19.184C81.7629 19.184 82.7918 18.155 82.7918 16.8858C82.7918 15.6164 81.7629 14.5874 80.4934 14.5874C79.2242 14.5874 78.1954 15.6164 78.1954 16.8858C78.1954 18.155 79.2242 19.184 80.4934 19.184Z" fill="white" style="fill:white;fill:white;fill-opacity:1;"></path> </svg>