<svg fill="none" xmlns="http://www.w3.org/2000/svg" viewBox="3 3 18 18"> <path fill-rule="evenodd" clip-rule="evenodd" d="M5.75 4.5C5.05964 4.5 4.5 5.05964 4.5 5.75L4.5 18.25C4.5 18.9404 5.05964 19.5 5.75 19.5H11.25C11.6642 19.5 12 19.8358 12 20.25C12 20.6642 11.6642 21 11.25 21H5.75C4.23122 21 3 19.7688 3 18.25L3 5.75C3 4.23122 4.23122 3 5.75 3L11.25 3C11.6642 3 12 3.33579 12 3.75C12 4.16421 11.6642 4.5 11.25 4.5L5.75 4.5ZM15.2197 6.96967C15.5126 6.67678 15.9874 6.67678 16.2803 6.96967L20.7803 11.4697C21.0732 11.7626 21.0732 12.2374 20.7803 12.5303L16.2803 17.0303C15.9874 17.3232 15.5126 17.3232 15.2197 17.0303C14.9268 16.7374 14.9268 16.2626 15.2197 15.9697L18.4393 12.75L9 12.75C8.58579 12.75 8.25 12.4142 8.25 12C8.25 11.5858 8.58579 11.25 9 11.25L18.4393 11.25L15.2197 8.03033C14.9268 7.73744 14.9268 7.26256 15.2197 6.96967Z"></path> </svg>