<svg fill="none" xmlns="http://www.w3.org/2000/svg" viewBox="1.61 1.61 20.78 20.78"> <path d="M6.92885 3.21651C10.0669 1.40476 13.9331 1.40476 17.0712 3.21651C20.2092 5.02825 22.1423 8.3765 22.1423 12C22.1423 15.6235 20.2092 18.9717 17.0712 20.7835C13.9331 22.5952 10.0669 22.5952 6.92885 20.7835C3.79081 18.9717 1.8577 15.6235 1.8577 12C1.8577 8.3765 3.79081 5.02825 6.92885 3.21651Z" fill="url(#paint0_linear_290_12322)" stroke="url(#paint1_linear_290_12322)" stroke-width="0.5"></path> <path d="M16.3404 11.771H16.7771V12.8026C16.7771 13.1561 17.0637 13.4426 17.4171 13.4426C17.7706 13.4426 18.0571 13.1561 18.0571 12.8026V11.771H18.4938C18.7251 11.771 18.9125 11.5836 18.9125 11.3523C18.9125 11.121 18.7251 10.9336 18.4938 10.9336H18.0571V10.8361C18.0571 10.4826 17.7706 10.1961 17.4171 10.1961C17.0637 10.1961 16.7771 10.4826 16.7771 10.8361V10.9336H16.3404C16.1092 10.9336 15.9217 11.121 15.9217 11.3523C15.9217 11.5836 16.1092 11.771 16.3404 11.771Z" fill="url(#paint2_linear_290_12322)" stroke="url(#paint3_linear_290_12322)" stroke-width="0.1"></path> <path d="M15.6814 11.4219C15.5022 11.222 15.2347 11.0807 14.8847 10.9939C14.5384 10.9041 14.1045 10.8597 13.5843 10.8597C13.0608 10.8597 12.6221 10.9041 12.2693 10.9939C11.9191 11.0806 11.6502 11.222 11.4678 11.4217L11.4677 11.4217C11.2872 11.6195 11.199 11.8783 11.199 12.1929C11.199 12.5074 11.2872 12.7662 11.4677 12.964L11.4677 12.964L11.4681 12.9644C11.6505 13.1606 11.9194 13.3002 12.2695 13.3869L12.2696 13.3869C12.6222 13.4734 13.0608 13.5162 13.5843 13.5162C14.1046 13.5162 14.5383 13.4735 14.8846 13.3869L14.8724 13.3384L14.8845 13.3869C15.2345 13.3002 15.502 13.1605 15.6813 12.964C15.8618 12.7662 15.95 12.5074 15.95 12.1929C15.95 11.8784 15.8618 11.6197 15.6814 11.4219ZM15.6814 11.4219C15.6815 11.4219 15.6815 11.422 15.6815 11.422L15.6443 11.4554L15.6813 11.4217C15.6813 11.4218 15.6814 11.4218 15.6814 11.4219ZM12.9649 11.6865C12.7977 11.7291 12.6699 11.793 12.5814 11.8782C12.4962 11.9601 12.4536 12.065 12.4536 12.1929C12.4536 12.3174 12.4962 12.4223 12.5814 12.5075M12.9649 11.6865L12.977 11.735C12.977 11.735 12.9771 11.735 12.9771 11.7349M12.9649 11.6865C13.1353 11.6439 13.3418 11.6226 13.5843 11.6226C13.8302 11.6226 14.035 11.6439 14.1989 11.6865C14.3628 11.7291 14.4857 11.793 14.5676 11.8782L12.9599 12.6943M12.9649 11.6865L12.9772 11.7349C12.9772 11.7349 12.9771 11.7349 12.9771 11.7349M12.9771 11.7349C12.8152 11.7762 12.6963 11.837 12.6161 11.9142L12.616 11.9142C12.5415 11.9859 12.5036 12.0774 12.5036 12.1929C12.5036 12.3045 12.5411 12.3964 12.6164 12.4718M12.9771 11.7349C13.1424 11.6936 13.3445 11.6726 13.5843 11.6726C13.8276 11.6726 14.0279 11.6937 14.1863 11.7349C14.3449 11.7761 14.4582 11.8366 14.5316 11.9129L14.5316 11.9129L14.5323 11.9136C14.6078 11.9891 14.6454 12.0811 14.6454 12.1929C14.6454 12.3045 14.6079 12.3964 14.5326 12.4718C14.4557 12.5456 14.3403 12.6046 14.1818 12.6458C14.0231 12.6839 13.8243 12.7033 13.5843 12.7033C13.3412 12.7033 13.1372 12.6839 12.9717 12.6457M12.6164 12.4718C12.6163 12.4717 12.6162 12.4716 12.616 12.4715L12.5814 12.5075M12.6164 12.4718C12.6931 12.5454 12.8099 12.6044 12.9717 12.6457M12.6164 12.4718C12.6165 12.4719 12.6166 12.472 12.6167 12.4722L12.5814 12.5075M12.5814 12.5075C12.6666 12.5895 12.7928 12.6517 12.9599 12.6943M12.9717 12.6457C12.9716 12.6457 12.9714 12.6457 12.9712 12.6456L12.9599 12.6943M12.9717 12.6457C12.9719 12.6458 12.9721 12.6458 12.9723 12.6459L12.9599 12.6943" fill="url(#paint4_linear_290_12322)" stroke="url(#paint5_linear_290_12322)" stroke-width="0.1"></path> <path d="M10.8845 11.4219C10.7053 11.222 10.4379 11.0807 10.0879 10.9939C9.74149 10.9041 9.30764 10.8597 8.78746 10.8597C8.26393 10.8597 7.82522 10.9041 7.47242 10.9939C7.12227 11.0806 6.85331 11.222 6.67089 11.4217L6.67086 11.4217C6.49037 11.6195 6.40215 11.8783 6.40215 12.1929C6.40215 12.5074 6.49037 12.7662 6.67086 12.964L6.67086 12.964L6.67119 12.9644C6.85363 13.1606 7.12254 13.3002 7.47258 13.3869L7.47269 13.3869C7.82535 13.4734 8.26395 13.5162 8.78746 13.5162C9.30768 13.5162 9.74146 13.4735 10.0877 13.3869L10.0756 13.3384L10.0876 13.3869C10.4376 13.3002 10.7051 13.1605 10.8844 12.964C11.0649 12.7662 11.1531 12.5074 11.1531 12.1929C11.1531 11.8784 11.0649 11.6197 10.8845 11.4219ZM10.8845 11.4219C10.8846 11.4219 10.8846 11.422 10.8847 11.422L10.8474 11.4554L10.8844 11.4217C10.8844 11.4218 10.8845 11.4218 10.8845 11.4219ZM8.16799 11.6865C8.00083 11.7291 7.873 11.793 7.7845 11.8782C7.69929 11.9601 7.65668 12.065 7.65668 12.1929C7.65668 12.3174 7.69929 12.4223 7.7845 12.5075M8.16799 11.6865L8.18011 11.735C8.18015 11.735 8.18018 11.735 8.18021 11.7349M8.16799 11.6865C8.33842 11.6439 8.54491 11.6226 8.78746 11.6226C9.03328 11.6226 9.23813 11.6439 9.40201 11.6865C9.56589 11.7291 9.6888 11.793 9.77075 11.8782L8.16307 12.6943M8.16799 11.6865L8.18034 11.7349C8.1803 11.7349 8.18026 11.7349 8.18021 11.7349M8.18021 11.7349C8.0183 11.7762 7.8994 11.837 7.81919 11.9142L7.81916 11.9142C7.7446 11.9859 7.70668 12.0774 7.70668 12.1929C7.70668 12.3045 7.74425 12.3964 7.81951 12.4718M8.18021 11.7349C8.34549 11.6936 8.54762 11.6726 8.78746 11.6726C9.03076 11.6726 9.23105 11.6937 9.38943 11.7349C9.54803 11.7761 9.66136 11.8366 9.7347 11.9129L9.7347 11.9129L9.73539 11.9136C9.81089 11.9891 9.84857 12.0811 9.84857 12.1929C9.84857 12.3045 9.811 12.3964 9.73573 12.4718C9.65887 12.5456 9.54345 12.6046 9.38497 12.6458C9.22625 12.6839 9.0274 12.7033 8.78746 12.7033C8.5443 12.7033 8.34037 12.6839 8.17487 12.6457M7.81951 12.4718C7.81939 12.4717 7.81928 12.4716 7.81916 12.4715L7.7845 12.5075M7.81951 12.4718C7.89619 12.5454 8.01303 12.6044 8.17487 12.6457M7.81951 12.4718C7.81963 12.4719 7.81974 12.472 7.81986 12.4722L7.7845 12.5075M7.7845 12.5075C7.86972 12.5895 7.99591 12.6517 8.16307 12.6943M8.17487 12.6457C8.17468 12.6457 8.1745 12.6457 8.17431 12.6456L8.16307 12.6943M8.17487 12.6457C8.17505 12.6458 8.17524 12.6458 8.17542 12.6459L8.16307 12.6943" fill="url(#paint6_linear_290_12322)" stroke="url(#paint7_linear_290_12322)" stroke-width="0.1"></path> <path d="M5.58997 9.95C5.23653 9.95 4.95 10.2365 4.95 10.59V12.8024C4.95 13.1558 5.23653 13.4423 5.58997 13.4423C5.94342 13.4423 6.22995 13.1558 6.22995 12.8024V10.59C6.22995 10.2365 5.94342 9.95 5.58997 9.95Z" fill="url(#paint8_linear_290_12322)" stroke="url(#paint9_linear_290_12322)" stroke-width="0.1"></path> <defs> <linearGradient id="paint0_linear_290_12322" x1="-2.16" y1="4.92" x2="29.64" y2="20.28" gradientUnits="userSpaceOnUse"> <stop stop-color="#FDB022"></stop> <stop offset="0.276042" stop-color="#FEC84B"></stop> <stop offset="1" stop-color="#FEDF89"></stop> </linearGradient> <linearGradient id="paint1_linear_290_12322" x1="4" y1="4" x2="18" y2="21" gradientUnits="userSpaceOnUse"> <stop stop-color="#FFFAEB"></stop> <stop offset="0.532845" stop-color="#FDB022"></stop> <stop offset="1" stop-color="#FEDF89"></stop> </linearGradient> <linearGradient id="paint2_linear_290_12322" x1="15.9717" y1="9.79219" x2="19.258" y2="12.4566" gradientUnits="userSpaceOnUse"> <stop offset="0.015625" stop-color="#FEC84B"></stop> <stop offset="0.553212" stop-color="#FDB022"></stop> <stop offset="1" stop-color="#FFD96E"></stop> </linearGradient> <linearGradient id="paint3_linear_290_12322" x1="15.7115" y1="10.8911" x2="19.6583" y2="12.6426" gradientUnits="userSpaceOnUse"> <stop stop-color="white"></stop> <stop offset="0.445903" stop-color="#FEC84B"></stop> <stop offset="1" stop-color="#FEDF89"></stop> </linearGradient> <linearGradient id="paint4_linear_290_12322" x1="11.249" y1="10.5409" x2="13.6986" y2="14.4733" gradientUnits="userSpaceOnUse"> <stop offset="0.015625" stop-color="#FEC84B"></stop> <stop offset="0.553212" stop-color="#FDB022"></stop> <stop offset="1" stop-color="#FFD96E"></stop> </linearGradient> <linearGradient id="paint5_linear_290_12322" x1="10.8304" y1="11.4338" x2="15.1192" y2="15.2024" gradientUnits="userSpaceOnUse"> <stop stop-color="white"></stop> <stop offset="0.445903" stop-color="#FEC84B"></stop> <stop offset="1" stop-color="#FEDF89"></stop> </linearGradient> <linearGradient id="paint6_linear_290_12322" x1="6.45215" y1="10.5409" x2="8.90168" y2="14.4733" gradientUnits="userSpaceOnUse"> <stop offset="0.015625" stop-color="#FEC84B"></stop> <stop offset="0.553212" stop-color="#FDB022"></stop> <stop offset="1" stop-color="#FFD96E"></stop> </linearGradient> <linearGradient id="paint7_linear_290_12322" x1="6.03356" y1="11.4338" x2="10.3223" y2="15.2024" gradientUnits="userSpaceOnUse"> <stop stop-color="white"></stop> <stop offset="0.445903" stop-color="#FEC84B"></stop> <stop offset="1" stop-color="#FEDF89"></stop> </linearGradient> <linearGradient id="paint8_linear_290_12322" x1="5" y1="9.51063" x2="7.03167" y2="10.1342" gradientUnits="userSpaceOnUse"> <stop offset="0.015625" stop-color="#FEC84B"></stop> <stop offset="0.553212" stop-color="#FDB022"></stop> <stop offset="1" stop-color="#FFD96E"></stop> </linearGradient> <linearGradient id="paint9_linear_290_12322" x1="4.8938" y1="10.6954" x2="6.76906" y2="11.0105" gradientUnits="userSpaceOnUse"> <stop stop-color="white"></stop> <stop offset="0.445903" stop-color="#FEC84B"></stop> <stop offset="1" stop-color="#FEDF89"></stop> </linearGradient> </defs> </svg>