<svg fill="none" xmlns="http://www.w3.org/2000/svg" viewBox="1.07 5.23 19.93 12.18"> <path d="M13.7238 6.53076H8.34814V16.1099H13.7238V6.53076Z" fill="#FF5F00"></path> <path d="M8.66652 11.322C8.66552 10.3993 8.87628 9.48854 9.28282 8.65858C9.68936 7.82862 10.281 7.10126 11.013 6.53159C10.1067 5.82533 9.01826 5.38615 7.87211 5.26424C6.72596 5.14234 5.56834 5.34262 4.53155 5.8422C3.49477 6.34179 2.62065 7.12051 2.0091 8.08939C1.39755 9.05826 1.07324 10.1782 1.07324 11.3212C1.07324 12.4641 1.39755 13.5841 2.0091 14.5529C2.62065 15.5218 3.49477 16.3005 4.53155 16.8001C5.56834 17.2997 6.72596 17.5 7.87211 17.3781C9.01826 17.2562 10.1067 16.817 11.013 16.1107C10.2813 15.5412 9.68973 14.8142 9.28319 13.9845C8.87666 13.1549 8.66578 12.2444 8.66652 11.322Z" fill="#EB001B"></path> <path d="M21.0003 11.3213C21.0002 12.4643 20.6759 13.5843 20.0642 14.5532C19.4525 15.5221 18.5783 16.3008 17.5414 16.8004C16.5045 17.2999 15.3467 17.5 14.2005 17.3779C13.0543 17.2559 11.9658 16.8165 11.0596 16.11C11.791 15.54 12.3824 14.8127 12.7891 13.983C13.1957 13.1533 13.407 12.2429 13.407 11.3204C13.407 10.3979 13.1957 9.4875 12.7891 8.65781C12.3824 7.82812 11.791 7.10083 11.0596 6.53083C11.9658 5.82435 13.0543 5.38496 14.2005 5.26287C15.3467 5.14079 16.5045 5.34095 17.5414 5.84046C18.5783 6.33997 19.4525 7.11869 20.0642 8.08759C20.6759 9.05649 21.0002 10.1765 21.0003 11.3196V11.3213Z" fill="#F79E1B"></path> </svg>