<svg fill="none" xmlns="http://www.w3.org/2000/svg" viewBox="2 1.5 21.04 21.01"> <path d="M18 7.5C18 9.15685 16.6569 10.5 15 10.5C13.6165 10.5 12.4518 9.56353 12.1051 8.28991C11.7115 6.844 12.4917 5.26637 13.8949 4.71009C14.2369 4.57451 14.6098 4.5 15 4.5C16.6569 4.5 18 5.84315 18 7.5Z" fill="#BDB7C7"></path> <path d="M7 14.5C7 13.9477 6.55228 13.5 6 13.5H4C3.44772 13.5 3 13.9477 3 14.5V20.5C3 21.0523 3.44772 21.5 4 21.5H6C6.55228 21.5 7 21.0523 7 20.5V14.5Z" fill="#BDB7C7"></path> <path d="M13.8949 4.71009C13.5482 3.43647 12.3835 2.5 11 2.5C9.34315 2.5 8 3.84315 8 5.5C8 7.15685 9.34315 8.5 11 8.5C11.3902 8.5 11.7631 8.42549 12.1051 8.28991M13.8949 4.71009C14.2369 4.57451 14.6098 4.5 15 4.5C16.6569 4.5 18 5.84315 18 7.5C18 9.15685 16.6569 10.5 15 10.5C13.6165 10.5 12.4518 9.56353 12.1051 8.28991M13.8949 4.71009C12.4917 5.26637 11.7115 6.844 12.1051 8.28991M7 20.5V14.5C7 13.9477 6.55228 13.5 6 13.5H4C3.44772 13.5 3 13.9477 3 14.5V20.5C3 21.0523 3.44772 21.5 4 21.5H6C6.55228 21.5 7 21.0523 7 20.5ZM7 20.5H9C9 20.5 11.3916 21.4234 13 21.5C16.5463 21.6689 19.3633 20.0191 21.645 17.5098C22.1661 16.9367 22.1573 16.0716 21.6735 15.4668C21.0497 14.6871 19.8774 14.624 19.0953 15.2447C18.2335 15.9286 17.0898 16.6979 16 17C14.4947 17.4173 13 17.5 13 17.5C21 17 18 10.4999 7 15.0001" stroke="#BDB7C7" stroke-width="2" stroke-linejoin="round"></path> </svg>