<svg xmlns="http://www.w3.org/2000/svg" width="76" height="48" viewBox="0 0 76 48" fill="none">
  <path d="M42.4462 28.0356L37.3769 29.394L36.018 24.3224L46.3589 9.48588C46.3628 9.48029 46.3687 9.4764 46.3754 9.47496C46.3821 9.47352 46.3892 9.47464 46.3952 9.4781L50.1204 11.6285C50.1245 11.6309 50.1275 11.6348 50.1289 11.6393C50.1303 11.6439 50.13 11.6488 50.128 11.6531L42.4462 28.0356Z" fill="#BDB7C7"/>
  <path d="M47.8193 7.05184C47.8232 7.0541 47.8279 7.0547 47.8323 7.05352C47.8367 7.05234 47.8405 7.04947 47.8428 7.04553L49.6201 3.96721C49.6214 3.96504 49.6232 3.96327 49.6255 3.96211C49.6277 3.96094 49.6302 3.96042 49.6328 3.9606C49.6353 3.96078 49.6377 3.96166 49.6397 3.96314C49.6418 3.96461 49.6434 3.96663 49.6443 3.96896C50.2558 5.4216 51.705 6.23534 53.2664 6.05864C53.2682 6.05837 53.2699 6.0586 53.2716 6.0593C53.2732 6.06 53.2746 6.06115 53.2756 6.06261C53.2766 6.06406 53.2771 6.06577 53.2772 6.06754C53.2773 6.0693 53.2769 6.07105 53.276 6.07258L51.4989 9.14987C51.496 9.15523 51.4952 9.16149 51.4968 9.16732C51.4984 9.17315 51.5021 9.1781 51.5073 9.18112L52.6899 9.86391C52.692 9.86508 52.6938 9.86664 52.6952 9.86851C52.6966 9.87037 52.6977 9.8725 52.6983 9.87477C52.6989 9.87705 52.6991 9.87942 52.6988 9.88175C52.6984 9.88408 52.6977 9.88633 52.6965 9.88836L52.0097 11.0779C52.0077 11.0814 52.0043 11.084 52.0004 11.0851C51.9964 11.0861 51.9921 11.0856 51.9884 11.0836L45.9304 7.58562C45.9281 7.58433 45.9261 7.58261 45.9245 7.58054C45.9229 7.57847 45.9217 7.5761 45.9211 7.57357C45.9204 7.57104 45.9202 7.5684 45.9206 7.5658C45.9209 7.56321 45.9218 7.56071 45.9231 7.55845L46.6071 6.37306C46.6096 6.36884 46.6137 6.36576 46.6184 6.36449C46.6232 6.36322 46.6282 6.36386 46.6325 6.36627L47.8193 7.05184Z" fill="#BDB7C7"/>
  <path d="M52.2082 0.573409L52.4165 0.517602C53.2084 0.379509 53.8722 0.591809 54.408 1.1545C54.6015 1.35758 54.7525 1.61202 54.861 1.9178L54.9271 2.16456C55.0551 2.93939 54.8515 3.58665 54.3162 4.10634C53.7878 4.61917 52.9814 4.81728 52.2583 4.6034C51.1052 4.26258 50.4898 3.03275 50.8518 1.92441C51.0654 1.26997 51.5175 0.81964 52.2082 0.573409Z" fill="#BDB7C7"/>
  <path d="M70.7763 45.541C70.4118 46.2275 69.5158 46.3855 68.7422 46.4651C68.6076 46.479 68.4725 46.4928 68.3375 46.5067C63.8928 46.9621 59.398 47.3841 54.9824 46.7253C54.1435 46.6002 53.3093 46.4362 52.4709 46.3136C51.9436 46.2366 51.4151 46.1755 50.8831 46.1505C48.1937 46.0254 45.5463 46.8249 42.8812 47.1963C41.86 47.3386 40.8367 47.4179 39.807 47.3586C37.9487 47.2517 36.1242 46.6924 34.2637 46.7452C32.8379 46.7859 31.4475 47.1846 30.0389 47.4049C29.5974 47.4742 29.1546 47.5257 28.7079 47.543C26.2596 47.6382 23.8832 46.7088 21.4561 46.4301C21.0098 46.379 20.5614 46.35 20.1107 46.3531C18.3342 46.3656 16.6028 46.8829 14.838 47.0876C13.5368 47.2387 12.2222 47.2197 10.9123 47.2002C10.7176 47.1971 10.5232 47.1946 10.3284 47.1915C8.62418 47.166 6.91957 47.1409 5.21536 47.1154C4.64554 47.1068 4.07578 47.0959 3.50596 47.0898C1.40743 47.0673 0.839248 47.0935 0.80263 46.937C0.735294 46.6491 2.52745 46.0029 2.82331 45.8951C3.67854 45.5836 12.1097 41.8875 18.0203 36.3145C19.7479 34.6857 21.0521 32.6547 22.7459 30.9908C23.803 29.9523 24.9999 29.0684 26.1028 28.0789C28.0697 26.3141 29.7099 24.232 31.253 22.0967C32.5572 20.2925 32.9689 19.2393 34.3809 19.8917C34.722 20.0488 35.1219 20.3059 35.6067 20.6765C36.7383 21.5405 38.3178 21.482 39.6198 22.0577C41.54 22.9066 42.5663 24.9592 43.9381 26.5482C46.5785 29.6077 50.6263 31.0206 53.8 33.5222C56.6223 35.7458 58.7728 38.8455 61.9461 40.5306C64.052 41.6491 66.4513 42.0556 68.7088 42.8235C69.3247 43.033 69.9528 43.2837 70.4039 43.7529C70.8551 44.2221 71.0815 44.9662 70.7763 45.541Z" fill="#C0B2B7"/>
  <path d="M75.198 45.8211C75.1283 46.2017 73.286 46.0097 68.7425 46.4651C68.5763 46.4817 68.4371 46.4962 68.3378 46.5066C68.3789 46.4763 68.4162 46.4417 68.4469 46.4002C68.7161 46.037 68.3209 45.5535 67.9426 45.3063C65.2748 43.5623 61.7639 43.5091 59.1113 41.743C58.1456 41.1002 57.3331 40.2535 56.3981 39.5674C53.8849 37.7234 50.5194 37.0486 48.4858 34.686C47.7789 33.8653 47.2785 32.884 46.5752 32.0598C44.8537 30.0422 42.0543 29.1151 40.5298 26.9447C39.5926 25.6105 39.1455 23.8276 37.7451 22.9926C37.0387 22.5714 36.1552 22.4459 35.5553 21.8836C35.0488 21.4087 34.8372 20.7097 34.5216 20.0916C34.4908 20.0314 34.4424 19.9639 34.3813 19.8916C34.7225 20.0488 35.1224 20.3058 35.6072 20.6764C36.7387 21.5404 38.3182 21.4819 39.6203 22.0576C41.5405 22.9065 42.5668 24.9591 43.9385 26.5482C46.579 29.6076 50.6267 31.0205 53.8005 33.5221C56.6228 35.7457 58.7732 38.8455 61.9466 40.5306C63.2456 41.2204 65.1407 41.4626 68.7092 42.8235C69.2793 43.0408 70.1877 43.4289 72.0045 44.2051C74.8561 45.4233 75.2308 45.6422 75.198 45.8211Z" fill="#B4A4B2"/>
  <path d="M52.4707 46.3135C51.9435 46.2365 51.415 46.1754 50.883 46.1503C50.3064 46.1235 49.732 46.1391 49.1585 46.1841C48.0352 46.272 46.9162 46.4719 45.7986 46.6836C44.8264 46.8676 43.855 47.0602 42.8811 47.1961C43.3161 46.9896 43.7135 46.7299 44.0325 46.3663C45.035 45.2253 44.8927 43.4683 44.3658 42.0437C43.8394 40.6187 42.9897 39.3006 42.7226 37.8051C42.5751 36.9792 42.5928 36.0719 42.098 35.3941C41.8024 34.9893 41.3168 34.6257 41.3726 34.1279C42.269 34.1504 42.8971 34.9889 43.3824 35.743C44.8515 38.0242 46.3203 40.3054 47.7894 42.5865C48.2846 43.3557 48.7893 44.1357 49.4802 44.7353C50.239 45.3928 51.1801 45.7962 52.1116 46.1707C52.2309 46.2187 52.3508 46.2663 52.4707 46.3135Z" fill="#B4A4B2"/>
  <path d="M30.9475 30.8638C30.8206 32.3806 30.6895 33.9173 30.1774 35.3505C29.8739 36.2002 29.4376 37.0101 29.2775 37.8975C29.1005 38.8788 29.2727 39.8891 29.2022 40.8838C29.1446 41.6985 28.9238 42.5058 28.9814 43.3208C29.0796 44.7151 29.977 46.0752 30.0389 47.4045C29.5973 47.4737 29.1545 47.5253 28.7078 47.5425C27.8174 47.5772 26.9369 47.4763 26.0595 47.3205C25.3462 47.1941 24.6354 47.0309 23.9238 46.8747C23.104 46.695 22.2828 46.5245 21.4561 46.4297C21.8209 45.8907 22.1382 45.4371 22.2512 45.2367C23.1447 43.6541 24.0381 42.0712 24.9316 40.4882C25.3199 39.7999 25.7103 39.1073 25.9752 38.3628C26.1708 37.8126 26.2959 37.2386 26.508 36.6945C26.7535 36.066 27.1102 35.4881 27.4651 34.9142C28.1148 33.8636 28.7646 32.813 29.4143 31.7625C29.6966 31.3063 29.99 30.8375 30.4246 30.5228C30.5393 30.4397 30.693 30.3669 30.8168 30.4353C30.9557 30.5119 30.9605 30.7058 30.9475 30.8638Z" fill="#B4A4B2"/>
  <path d="M15.8859 41.0411C14.3653 42.5293 12.8446 44.0175 11.3244 45.5057C10.9417 45.8801 10.5457 46.2767 10.3863 46.7875C10.3461 46.916 10.3271 47.0537 10.3284 47.1913C9.84438 47.1839 9.36 47.177 8.87609 47.1697C8.41466 47.1627 7.95277 47.1559 7.49134 47.1489C6.73253 47.1376 5.97414 47.1264 5.21533 47.1152C7.24419 45.7958 9.30896 44.5335 11.3265 43.1968C12.4663 42.4415 13.603 41.6706 14.6873 40.8364C15.3816 40.3023 15.9227 39.4396 16.8746 39.4023C16.9144 40.0477 16.3123 40.6234 15.8859 41.0411Z" fill="#B4A4B2"/>
  <path d="M36.8194 31.4106C37.0532 32.1996 37.4527 32.9285 37.7434 33.6984C38.0341 34.4683 38.2146 35.3208 37.9892 36.1122C37.2792 34.8088 36.7242 33.4247 36.2751 32.0101C35.9478 30.9793 35.6761 29.9317 35.4046 28.8848C35.2026 28.1061 34.6823 26.7849 34.98 26.0244C36.5435 27.0265 36.36 29.8603 36.8194 31.4106Z" fill="#B4A4B2"/>
  <path d="M27.3927 28.8031C26.8925 29.2285 26.4843 29.7616 26.2041 30.3555C26.5079 30.385 26.7705 30.1599 26.992 29.9498C27.599 29.3741 28.206 28.7984 28.813 28.2227C29.0201 28.0263 29.2292 27.8276 29.3868 27.5896C29.7357 27.0625 30.0253 26.2113 29.963 25.5898C29.5688 25.8745 29.3452 26.4455 29.1079 26.8765C28.6416 27.7236 28.1238 28.1813 27.3927 28.8031Z" fill="#B4A4B2"/>
  <path d="M27.4772 38.6787C27.3854 39.2756 27.2932 39.873 27.201 40.4699C26.8699 42.6178 26.5383 44.7661 26.2071 46.914C26.1838 47.0659 26.1323 47.2014 26.0596 47.3204C25.3462 47.1941 24.6354 47.0308 23.9238 46.8746C23.978 46.4141 24.3935 45.8886 24.5723 45.5306C24.9341 44.8077 25.2233 44.0519 25.5089 43.2965C26.0275 41.9279 26.5457 40.5587 27.0642 39.19C27.1448 38.9761 27.256 38.7345 27.4772 38.6787Z" fill="#AA99A6"/>
  <path d="M45.9537 46.1621C46.0208 45.7063 46.0082 45.2401 45.9429 44.7847C45.8078 43.8601 45.4598 42.9823 45.1144 42.1139C44.5668 40.7374 44.0192 39.3609 43.4717 37.9844C43.6643 38.0294 43.8011 38.1956 43.918 38.3549C45.6806 40.7651 46.362 44.0069 48.7172 45.8426C48.8634 45.9569 49.0163 46.0655 49.1587 46.1841C48.0354 46.272 46.9164 46.472 45.7988 46.6836C45.8619 46.4911 45.9333 46.3023 45.9537 46.1621Z" fill="#AA99A6"/>
  <path d="M11.6329 44.2134C10.9382 44.9917 10.0512 45.5973 9.45041 46.4504C9.2734 46.7019 9.11496 46.9807 8.87645 47.1694C8.41502 47.1625 7.95313 47.1556 7.4917 47.1486C7.6488 46.756 8.66866 46.2565 8.95348 46.0461C9.22831 45.8435 9.48721 45.6206 9.74604 45.3977C10.4408 44.7999 11.1355 44.2017 11.8299 43.6035C11.9355 43.8056 11.7848 44.0433 11.6329 44.2134Z" fill="#AA99A6"/>
  <path d="M46.6712 30.92C47.6305 32.0059 48.4677 33.3282 49.8248 33.836C47.6475 31.1364 44.8668 28.1495 41.7898 26.4717C41.6973 27.1473 43.6233 28.2059 44.1252 28.6029C45.0261 29.3152 45.9091 30.0573 46.6712 30.92Z" fill="#AA99A6"/>
  <path d="M31.1065 23.9408C30.9953 24.1184 30.8798 24.3137 30.9016 24.5221C30.9197 24.6948 31.0296 24.8431 31.0816 25.0088C31.1805 25.3242 31.0618 25.6618 30.9501 25.9728C30.6118 26.9145 30.3251 27.8746 30.0915 28.8476C30.0529 29.0084 30.0157 29.1764 30.0531 29.3375C30.0905 29.4986 30.2259 29.6496 30.3912 29.6476C30.6532 29.6445 30.7591 29.3203 30.8472 29.0736C31.2668 27.8978 32.7709 27.308 33.019 26.0844C33.1224 25.575 32.9803 25.0442 33.0494 24.529C33.1191 24.0084 33.3982 23.5409 33.5411 23.0342C33.7267 22.3749 33.9719 20.1567 32.8629 20.9633C32.1747 21.464 31.5614 23.2139 31.1065 23.9408Z" fill="#CABFC1"/>
  <path d="M24.2753 31.9836C23.0338 33.4042 21.7923 34.8248 20.5507 36.2454C20.1133 36.7459 19.6716 37.2527 19.3659 37.8429C18.9377 38.6696 18.7968 39.6207 18.3735 40.4498C17.6483 41.8701 16.1303 42.8732 15.7926 44.4318C15.769 44.5406 15.7553 44.6661 15.8251 44.7529C15.939 44.8942 16.1657 44.8237 16.3224 44.7319C17.7095 43.9201 18.5153 42.4251 19.4789 41.1389C20.6094 39.6302 22.0182 38.3529 23.2196 36.9C24.421 35.4472 25.4389 33.7366 25.5635 31.8555C25.5685 31.7808 25.5698 31.6986 25.5231 31.64C25.4403 31.536 25.2757 31.576 25.1541 31.6296C24.8461 31.7653 24.6168 31.7611 24.3381 31.9499L24.2753 31.9836Z" fill="#CABFC1"/>
  <path d="M31.7545 35.3354C31.6221 35.7729 31.4888 36.2155 31.4639 36.6719C31.4386 37.1379 31.5272 37.6015 31.5711 38.0661C31.7595 40.0608 31.1229 42.0634 31.2978 44.0593C31.3348 44.4812 31.4787 44.983 31.8881 45.0918C32.449 45.2409 32.821 44.5542 33.1125 44.0524C33.581 43.2461 34.3514 42.671 35.0235 42.0244C35.6956 41.3778 36.3129 40.562 36.3153 39.6293C36.3181 38.4868 35.4144 37.5548 35.0932 36.4583C34.9306 35.9031 34.9213 35.3166 34.8679 34.7404C34.8137 34.1555 34.1281 30.1753 33.2679 30.4685C32.973 30.5691 32.6689 32.315 32.5863 32.5879C32.309 33.5036 32.0318 34.4195 31.7545 35.3354Z" fill="#CABFC1"/>
  <path d="M42.668 33.1148C45.3242 35.2004 46.2546 39.0532 49.1379 40.8113C49.2784 40.177 48.9313 39.5474 48.5974 38.9902C47.7373 37.5551 46.8772 36.1199 46.0172 34.6848C45.4021 33.6586 44.7454 32.59 43.7139 31.984C43.0574 31.5982 42.2879 31.4264 41.6535 31.0053C39.6294 29.6617 39.8195 26.3175 37.6421 25.2275C37.8363 26.597 37.6329 28.6292 38.328 29.8686C39.214 31.4483 41.3117 32.0499 42.668 33.1148Z" fill="#CABFC1"/>
</svg>