<svg xmlns="http://www.w3.org/2000/svg" width="18" height="18" viewBox="0 0 18 18" fill="none">
  <path fill-rule="evenodd" clip-rule="evenodd" d="M3.75 3H3C2.58579 3 2.25 2.66421 2.25 2.25C2.25 1.83579 2.58579 1.5 3 1.5H15C15.4142 1.5 15.75 1.83579 15.75 2.25C15.75 2.66421 15.4142 3 15 3H14.25V5.19722C14.25 5.94952 13.874 6.65204 13.2481 7.06934L10.3521 9L13.2481 10.9307C13.874 11.348 14.25 12.0505 14.25 12.8028V15H15C15.4142 15 15.75 15.3358 15.75 15.75C15.75 16.1642 15.4142 16.5 15 16.5H3C2.58579 16.5 2.25 16.1642 2.25 15.75C2.25 15.3358 2.58579 15 3 15H3.75V12.8028C3.75 12.0505 4.12598 11.348 4.75192 10.9307L7.64792 9L4.75192 7.06934C4.12598 6.65204 3.75 5.94952 3.75 5.19722V3ZM5.25 3V5.19722C5.25 5.21491 5.25062 5.23251 5.25185 5.25H12.7481C12.7494 5.23251 12.75 5.21491 12.75 5.19722V3H5.25ZM12.75 13.5V12.8028C12.75 12.552 12.6247 12.3178 12.416 12.1787L9 9.90139L5.58398 12.1787C5.37533 12.3178 5.25 12.552 5.25 12.8028V13.5H12.75Z" fill="#FDB022"/>
</svg>