<svg fill="none" xmlns="http://www.w3.org/2000/svg" viewBox="0.94 3 16.12 12"> <path fill-rule="evenodd" clip-rule="evenodd" d="M9.00018 3C11.964 2.99998 14.8431 4.70424 16.7677 7.93735C17.1573 8.59188 17.1573 9.40805 16.7677 10.0626C14.8431 13.2957 11.964 15 9.00019 15C6.0364 15 3.15726 13.2958 1.23265 10.0627C0.843022 9.40813 0.843022 8.59196 1.23265 7.93743C3.15726 4.70432 6.0364 3.00002 9.00018 3ZM6.37518 9C6.37518 7.55025 7.55044 6.375 9.00018 6.375C10.4499 6.375 11.6252 7.55025 11.6252 9C11.6252 10.4497 10.4499 11.625 9.00018 11.625C7.55044 11.625 6.37518 10.4497 6.37518 9Z" fill="#5F586A"></path> </svg>