<svg fill="none" xmlns="http://www.w3.org/2000/svg" viewBox="4 2.12 16 20.38"> <path fill-rule="evenodd" clip-rule="evenodd" d="M19.5241 4.64848C19.9945 4.93793 20.1411 5.55388 19.8517 6.02424L17.7126 9.50014H19C19.5523 9.50014 20 9.94786 20 10.5001V20.5001C20 21.6047 19.1046 22.5001 18 22.5001H6C4.89543 22.5001 4 21.6047 4 20.5001V10.5001C4 9.94786 4.44772 9.50014 5 9.50014H15.3643L18.1483 4.97604C18.4378 4.50569 19.0537 4.35903 19.5241 4.64848ZM10 13.5001C9.44772 13.5001 9 13.9479 9 14.5001C9 15.0524 9.44772 15.5001 10 15.5001H14C14.5523 15.5001 15 15.0524 15 14.5001C15 13.9479 14.5523 13.5001 14 13.5001H10Z" fill="#BDB7C7"></path> <path d="M11.8501 3.57467C11.9468 3.52628 12.0253 3.44782 12.0737 3.35106L12.5519 2.39456C12.7362 2.02603 13.2621 2.02603 13.4464 2.39456L13.9246 3.35106C13.973 3.44782 14.0515 3.52628 14.1482 3.57467L15.1047 4.05292C15.4733 4.23718 15.4733 4.76308 15.1047 4.94734L14.1482 5.42559C14.0515 5.47398 13.973 5.55244 13.9246 5.6492L13.4464 6.6057C13.2621 6.97423 12.7362 6.97423 12.5519 6.6057L12.0737 5.6492C12.0253 5.55244 11.9468 5.47398 11.8501 5.42559L10.8936 4.94734C10.5251 4.76308 10.5251 4.23718 10.8936 4.05292L11.8501 3.57467Z" fill="#BDB7C7"></path> <path d="M6.51675 5.24133C6.61351 5.19295 6.69197 5.11449 6.74036 5.01773L7.05194 4.39456C7.2362 4.02603 7.7621 4.02603 7.94637 4.39456L8.25795 5.01773C8.30633 5.11449 8.38479 5.19295 8.48156 5.24133L9.10472 5.55292C9.47325 5.73718 9.47325 6.26308 9.10473 6.44734L8.48156 6.75893C8.38479 6.80731 8.30633 6.88577 8.25795 6.98253L7.94637 7.6057C7.7621 7.97423 7.2362 7.97423 7.05194 7.6057L6.74036 6.98253C6.69197 6.88577 6.61351 6.80731 6.51675 6.75893L5.89358 6.44734C5.52506 6.26308 5.52506 5.73718 5.89358 5.55292L6.51675 5.24133Z" fill="#BDB7C7"></path> </svg>