<svg fill="none" xmlns="http://www.w3.org/2000/svg" viewBox="5.33 2.67 21.33 26.67"> <path fill-rule="evenodd" clip-rule="evenodd" d="M5.33398 6.6665C5.33398 4.45736 7.12485 2.6665 9.33398 2.6665H22.6673C24.8765 2.6665 26.6673 4.45737 26.6673 6.6665V25.3332C26.6673 27.5423 24.8765 29.3332 22.6673 29.3332H9.33398C7.12485 29.3332 5.33398 27.5423 5.33398 25.3332V6.6665ZM12.0007 7.99984C11.2643 7.99984 10.6673 8.59679 10.6673 9.33317C10.6673 10.0696 11.2643 10.6665 12.0007 10.6665H20.0007C20.737 10.6665 21.334 10.0696 21.334 9.33317C21.334 8.59679 20.737 7.99984 20.0007 7.99984H12.0007ZM12.0007 13.3332C11.2643 13.3332 10.6673 13.9301 10.6673 14.6665C10.6673 15.4029 11.2643 15.9998 12.0007 15.9998H20.0007C20.737 15.9998 21.334 15.4029 21.334 14.6665C21.334 13.9301 20.737 13.3332 20.0007 13.3332H12.0007ZM12.0007 18.6665C11.2643 18.6665 10.6673 19.2635 10.6673 19.9998C10.6673 20.7362 11.2643 21.3332 12.0007 21.3332H14.6673C15.4037 21.3332 16.0007 20.7362 16.0007 19.9998C16.0007 19.2635 15.4037 18.6665 14.6673 18.6665H12.0007Z" fill="#9B95A5"></path> </svg>