<svg xmlns="http://www.w3.org/2000/svg" width="20" height="20" viewBox="0 0 24 24" fill="none">
  <path d="M3.5 7C3.5 4.79086 5.29086 3 7.5 3C9.70914 3 11.5 4.79086 11.5 7C11.5 9.20914 9.70914 11 7.5 11C5.29086 11 3.5 9.20914 3.5 7Z" fill="#BDB7C7"/>
  <path d="M12.5 7C12.5 4.79086 14.2909 3 16.5 3C18.7091 3 20.5 4.79086 20.5 7C20.5 9.20914 18.7091 11 16.5 11C14.2909 11 12.5 9.20914 12.5 7Z" fill="#BDB7C7"/>
  <path d="M7.49974 12C10.3705 12 13.0936 13.9807 14.1071 17.6135C14.6371 19.5131 13.017 21 11.3538 21H3.64569C1.98253 21 0.362416 19.5131 0.892353 17.6135C1.90586 13.9807 4.62896 12 7.49974 12Z" fill="#BDB7C7"/>
  <path d="M16.0344 17.0761C15.5465 15.3276 14.7079 13.8486 13.6299 12.7021C14.5254 12.2386 15.504 12 16.5005 12C19.3712 12 22.0943 13.9807 23.1078 17.6135C23.6378 19.5131 22.0177 21 20.3545 21H15.3307C16.0987 19.9549 16.4495 18.5641 16.0344 17.0761Z" fill="#BDB7C7"/>
</svg>