<svg fill="none" xmlns="http://www.w3.org/2000/svg" viewBox="1 3.57 23 17.93"> <path d="M6.49636 4.57983C5.95165 4.48864 5.5 4.94772 5.5 5.5V8C4.782 8.648 4.338 9.51005 4 10.435H3C2.44772 10.435 2 10.8828 2 11.435V14.5C2 15.0523 2.44772 15.5 3 15.5H4C4.525 16.408 5.094 16.973 6 17.5V19.5C6 20.0523 6.44772 20.5 7 20.5H9C9.55228 20.5 10 20.0523 10 19.5C10 18.9478 10.4477 18.5 11 18.5H13C13.5523 18.5 14 18.9478 14 19.5C14 20.0523 14.4477 20.5 15 20.5H17C17.5523 20.5 18 20.0523 18 19.5V16.963C19.225 15.864 20 14.275 20 12.5C20 9.186 17.314 6.50004 14 6.50004H9.474C9.474 6.50004 8.7202 4.95217 6.49636 4.57983Z" fill="#BDB7C7"></path> <path d="M22.7314 12.5C22.9016 12.7942 22.999 13.1358 22.999 13.5C22.999 14.6046 22.1035 15.5 20.999 15.5C20.5646 15.5 20.1625 15.3616 19.8346 15.1263M19.8346 15.1263C19.7385 15.0574 19.6487 14.9802 19.5664 14.8957L19.8346 15.1263ZM5.5 8V5.5C5.5 4.94772 5.95165 4.48864 6.49636 4.57983C8.7202 4.95217 9.474 6.50004 9.474 6.50004H14C17.314 6.50004 20 9.186 20 12.5C20 14.275 19.225 15.864 18 16.963V19.5C18 20.0523 17.5523 20.5 17 20.5H15C14.4477 20.5 14 20.0523 14 19.5V19.5C14 18.9478 13.5523 18.5 13 18.5H11C10.4477 18.5 10 18.9478 10 19.5V19.5C10 20.0523 9.55228 20.5 9 20.5H7C6.44772 20.5 6 20.0523 6 19.5V17.5C5.094 16.973 4.525 16.408 4 15.5H3C2.44772 15.5 2 15.0523 2 14.5V11.435C2 10.8828 2.44772 10.435 3 10.435H4C4.338 9.51005 4.782 8.648 5.5 8Z" stroke="#BDB7C7" stroke-width="2" stroke-linecap="round" stroke-linejoin="round"></path> <circle cx="8.25" cy="11.25" r="1.25" fill="black"></circle> </svg>