<svg fill="none" xmlns="http://www.w3.org/2000/svg" viewBox="1.5 2 15 15"> <path fill-rule="evenodd" clip-rule="evenodd" d="M3.55494 6.9764C3.1988 7.74353 3 8.59855 3 9.5C3 10.8866 3.47033 12.1633 4.26016 13.1793L6.35795 11.0815C5.24617 9.88782 4.36855 8.66347 3.82952 7.5854C3.72723 7.38083 3.63497 7.17724 3.55494 6.9764ZM6.47696 4.05468C6.67773 4.13468 6.88125 4.22692 7.08575 4.32917C8.16382 4.86821 9.38816 5.74582 10.5819 6.8576L12.6793 4.76016C11.6633 3.97033 10.3866 3.5 9 3.5C8.09877 3.5 7.24395 3.6987 6.47696 4.05468ZM13.7466 3.69284C12.4537 2.63479 10.801 2 9 2C4.85786 2 1.5 5.35786 1.5 9.5C1.5 11.301 2.13479 12.9537 3.19284 14.2466L2.63615 14.8033C2.34326 15.0962 2.34326 15.5711 2.63615 15.864C2.92904 16.1569 3.40392 16.1569 3.69681 15.864L4.25351 15.3073C5.54641 16.3652 7.19908 17 9 17C11.0602 17 12.9264 16.1693 14.2819 14.8246C14.2892 14.8176 14.2964 14.8105 14.3036 14.8033C14.3109 14.7961 14.318 14.7888 14.3251 14.7814C15.6695 13.426 16.5 11.56 16.5 9.5C16.5 7.69908 15.8652 6.04641 14.8073 4.75351L15.3641 4.1967C15.657 3.90381 15.657 3.42894 15.3641 3.13604C15.0712 2.84315 14.5963 2.84315 14.3034 3.13604L13.7466 3.69284ZM13.7399 5.82083L11.6425 7.91826C12.7544 9.11201 13.6321 10.3364 14.1712 11.4146C14.2733 11.6189 14.3655 11.8222 14.4454 12.0228C14.8013 11.2559 15 10.4011 15 9.5C15 8.1135 14.5297 6.83683 13.7399 5.82083ZM13.2449 13.7404C13.246 13.7389 13.2475 13.7366 13.2495 13.7329C13.2536 13.7252 13.2608 13.7091 13.2676 13.6808C13.2817 13.6217 13.2909 13.5206 13.2727 13.3669C13.2356 13.0538 13.0968 12.6201 12.8295 12.0854C12.3733 11.173 11.5998 10.0794 10.5811 8.97963L8.47998 11.0808C9.57977 12.0995 10.6733 12.873 11.5858 13.3292C12.1204 13.5965 12.5541 13.7353 12.8672 13.7724C13.021 13.7906 13.122 13.7814 13.1812 13.7672C13.2094 13.7605 13.2255 13.7532 13.2333 13.7491C13.2369 13.7472 13.2393 13.7456 13.2408 13.7445C13.2421 13.7431 13.2435 13.7418 13.2449 13.7404ZM11.5234 14.9452C11.3227 14.8652 11.1193 14.773 10.9149 14.6708C9.83679 14.1317 8.61236 13.2541 7.4186 12.1422L5.32083 14.2399C6.33683 15.0297 7.6135 15.5 9 15.5C9.90136 15.5 10.7563 15.3012 11.5234 14.9452ZM7.41933 10.0201L9.52048 7.91898C8.42076 6.90038 7.32728 6.12699 6.41493 5.67081C5.88028 5.40349 5.44657 5.26472 5.13347 5.22761C4.9797 5.20938 4.87866 5.21861 4.81949 5.23277C4.79126 5.23952 4.77514 5.24675 4.76743 5.25086C4.76045 5.25458 4.7582 5.25685 4.75773 5.25732C4.75726 5.25779 4.75493 5.26011 4.75121 5.26708C4.7471 5.27479 4.73987 5.29091 4.73311 5.31914C4.71896 5.37832 4.70973 5.47935 4.72796 5.63312C4.76506 5.94622 4.90384 6.37994 5.17116 6.91458C5.62734 7.82693 6.40073 8.92042 7.41933 10.0201Z" fill="#9B95A5"></path> </svg>