<svg xmlns="http://www.w3.org/2000/svg" width="18" height="18" viewBox="0 0 18 18" fill="none">
  <path fill-rule="evenodd" clip-rule="evenodd" d="M6 1.5C5.02034 1.5 4.18691 2.12611 3.87803 3H3.75C2.50736 3 1.5 4.00736 1.5 5.25C1.5 6.82279 2.71031 8.1129 4.25037 8.23976C4.98928 9.80393 6.47811 10.9444 8.25293 11.1973V12H6.75C5.50736 12 4.5 13.0074 4.5 14.25C4.5 15.4926 5.50736 16.5 6.75 16.5H11.25C12.4926 16.5 13.5 15.4926 13.5 14.25C13.5 13.0074 12.4926 12 11.25 12H9.75293V11.1964C11.5252 10.9419 13.0115 9.80221 13.7496 8.23976C15.2897 8.1129 16.5 6.82279 16.5 5.25C16.5 4.00736 15.4926 3 14.25 3H14.122C13.8131 2.12611 12.9797 1.5 12 1.5H6ZM3.75 6C3.75 6.19134 3.76024 6.38029 3.78019 6.56633C3.31524 6.31154 3 5.81758 3 5.25C3 4.83579 3.33579 4.5 3.75 4.5V6ZM15 5.25C15 5.81758 14.6848 6.31154 14.2198 6.56633C14.2398 6.38029 14.25 6.19134 14.25 6V4.5C14.6642 4.5 15 4.83579 15 5.25Z" fill="#7A2E0E"/>
</svg>