<svg fill="none" xmlns="http://www.w3.org/2000/svg" viewBox="2.42 1.67 16.67 16.67"> <path fill-rule="evenodd" clip-rule="evenodd" d="M10.7498 1.66666C6.14746 1.66666 2.4165 5.39762 2.4165 9.99999C2.4165 14.6024 6.14746 18.3333 10.7498 18.3333C15.3522 18.3333 19.0832 14.6024 19.0832 9.99999C19.0832 5.39762 15.3522 1.66666 10.7498 1.66666ZM10.7498 7.49999C10.4354 7.49999 10.1604 7.67382 10.0177 7.93459C9.79688 8.33837 9.29052 8.48667 8.88673 8.26581C8.48295 8.04496 8.33465 7.53859 8.5555 7.13481C8.9787 6.36108 9.80204 5.83332 10.7498 5.83332C12.0121 5.83332 12.8889 6.67201 13.1385 7.65749C13.3895 8.6482 13.0082 9.80249 11.8679 10.3727C11.6934 10.4599 11.5832 10.6382 11.5832 10.8333C11.5832 11.2936 11.2101 11.6667 10.7498 11.6667C10.2896 11.6667 9.91651 11.2936 9.91651 10.8333C9.91651 10.007 10.3834 9.25152 11.1225 8.88196C11.5015 8.69248 11.5988 8.36644 11.5229 8.06674C11.4457 7.7618 11.1901 7.49999 10.7498 7.49999ZM10.7498 14.1667C11.2101 14.1667 11.5832 13.7936 11.5832 13.3333C11.5832 12.8731 11.2101 12.5 10.7498 12.5C10.2896 12.5 9.9165 12.8731 9.9165 13.3333C9.9165 13.7936 10.2896 14.1667 10.7498 14.1667Z" fill="#BDB7C7"></path> </svg>