<svg fill="none" xmlns="http://www.w3.org/2000/svg" viewBox="1.48 1.48 15.03 13.52"> <path fill-rule="evenodd" clip-rule="evenodd" d="M7.05771 2.59334C7.92593 1.10496 10.0765 1.10495 10.9447 2.59334L16.2082 11.6164C17.0831 13.1164 16.0012 15.0001 14.2647 15.0001H3.73776C2.00124 15.0001 0.919274 13.1164 1.79426 11.6164L7.05771 2.59334ZM9.00195 6.00012C9.41617 6.00012 9.75195 6.33591 9.75195 6.75012V9.00012C9.75195 9.41434 9.41617 9.75012 9.00195 9.75012C8.58774 9.75012 8.25195 9.41434 8.25195 9.00012V6.75012C8.25195 6.33591 8.58774 6.00012 9.00195 6.00012ZM8.06445 11.2501C8.06445 10.7324 8.48419 10.3126 9.00195 10.3126C9.51972 10.3126 9.93945 10.7324 9.93945 11.2501C9.93945 11.7679 9.51972 12.1876 9.00195 12.1876C8.48419 12.1876 8.06445 11.7679 8.06445 11.2501Z" fill="#FFBE0B"></path> </svg>