<svg xmlns="http://www.w3.org/2000/svg" width="21" height="20" viewBox="0 0 21 20" fill="none">
  <path fill-rule="evenodd" clip-rule="evenodd" d="M10.5 4.16667C7.27834 4.16667 4.66667 6.77834 4.66667 10C4.66667 11.9813 5.65438 13.7331 7.16667 14.7879V12.5C7.16667 12.0398 7.53976 11.6667 8 11.6667C8.46024 11.6667 8.83333 12.0398 8.83333 12.5V16.6667C8.83333 17.1269 8.46024 17.5 8 17.5H3.83333C3.3731 17.5 3 17.1269 3 16.6667C3 16.2064 3.3731 15.8333 3.83333 15.8333H5.78577C4.08729 14.459 3 12.357 3 10C3 5.85786 6.35786 2.5 10.5 2.5C11.4931 2.5 12.443 2.69345 13.3127 3.04548C13.7393 3.21817 13.9451 3.704 13.7724 4.13061C13.5998 4.55722 13.1139 4.76307 12.6873 4.59038C12.0129 4.3174 11.2751 4.16667 10.5 4.16667Z" fill="white"/>
  <path d="M11.3333 17.5C11.7936 17.5 12.1667 17.1269 12.1667 16.6667C12.1667 16.2064 11.7936 15.8333 11.3333 15.8333C10.8731 15.8333 10.5 16.2064 10.5 16.6667C10.5 17.1269 10.8731 17.5 11.3333 17.5Z" fill="white"/>
  <path d="M18 9.16665C18 8.70642 17.6269 8.33332 17.1667 8.33332C16.7064 8.33332 16.3333 8.70642 16.3333 9.16665C16.3333 9.62689 16.7064 9.99999 17.1667 9.99999C17.6269 9.99999 18 9.62689 18 9.16665Z" fill="white"/>
  <path d="M17.1079 11.89C17.5065 12.1201 17.643 12.6297 17.4129 13.0283C17.1828 13.4269 16.6731 13.5634 16.2746 13.3333C15.876 13.1032 15.7394 12.5935 15.9695 12.195C16.1997 11.7964 16.7093 11.6598 17.1079 11.89Z" fill="white"/>
  <path d="M14.973 16.0785C15.3716 15.8484 15.5081 15.3387 15.278 14.9401C15.0479 14.5416 14.5382 14.405 14.1397 14.6351C13.7411 14.8652 13.6045 15.3749 13.8347 15.7735C14.0648 16.172 14.5744 16.3086 14.973 16.0785Z" fill="white"/>
  <path d="M16.2725 6.66665C15.8739 6.89677 15.3642 6.76021 15.1341 6.36163C14.904 5.96305 15.0405 5.45339 15.4391 5.22328C15.8377 4.99316 16.3474 5.12972 16.5775 5.5283C16.8076 5.92687 16.671 6.43653 16.2725 6.66665Z" fill="white"/>
</svg>