<svg fill="none" xmlns="http://www.w3.org/2000/svg" viewBox="1.5 1.5 15 15"> <path fill-rule="evenodd" clip-rule="evenodd" d="M7.33892 2.38898C7.70918 1.8336 8.33251 1.5 9 1.5C9.66749 1.5 10.2908 1.8336 10.6611 2.38898L11.0782 3.01469C11.247 3.26793 11.555 3.39021 11.8516 3.32178L12.3661 3.20303C13.0471 3.04588 13.761 3.25062 14.2552 3.7448C14.7494 4.23898 14.9541 4.95287 14.797 5.63385L14.6782 6.14843C14.6098 6.445 14.7321 6.75295 14.9853 6.92178L15.611 7.33892C16.1664 7.70918 16.5 8.33251 16.5 9C16.5 9.66749 16.1664 10.2908 15.611 10.6611L14.9853 11.0782C14.7321 11.247 14.6098 11.555 14.6782 11.8516L14.797 12.3662C14.9541 13.0471 14.7494 13.761 14.2552 14.2552C13.761 14.7494 13.0471 14.9541 12.3662 14.797L11.8516 14.6782C11.555 14.6098 11.247 14.7321 11.0782 14.9853L10.6611 15.611C10.2908 16.1664 9.66749 16.5 9 16.5C8.33251 16.5 7.70918 16.1664 7.33892 15.611L6.92178 14.9853C6.75295 14.7321 6.445 14.6098 6.14843 14.6782L5.63385 14.797C4.95287 14.9541 4.23898 14.7494 3.7448 14.2552C3.25062 13.761 3.04588 13.0471 3.20303 12.3661L3.32178 11.8516C3.39021 11.555 3.26793 11.247 3.01469 11.0782L2.38898 10.6611C1.8336 10.2908 1.5 9.66749 1.5 9C1.5 8.33251 1.8336 7.70918 2.38898 7.33892L3.01469 6.92178C3.26793 6.75295 3.39021 6.445 3.32178 6.14843L3.20303 5.63385C3.04588 4.95288 3.25062 4.23898 3.7448 3.7448C4.23898 3.25062 4.95288 3.04588 5.63385 3.20303L6.14843 3.32178C6.445 3.39021 6.75295 3.26793 6.92178 3.01469L7.33892 2.38898ZM6.375 9C6.375 7.55025 7.55025 6.375 9 6.375C10.4497 6.375 11.625 7.55025 11.625 9C11.625 10.4497 10.4497 11.625 9 11.625C7.55025 11.625 6.375 10.4497 6.375 9Z" fill="#9B95A5"></path> </svg>