<svg xmlns="http://www.w3.org/2000/svg" width="24" height="24" viewBox="0 0 24 24" fill="none">
  <path fill-rule="evenodd" clip-rule="evenodd" d="M12 22.0001C16.9706 22.0001 21 17.9706 21 13.0001V7.30811C21 6.11621 20.2944 5.03737 19.2025 4.55963L13.2025 1.93463C12.4359 1.59926 11.5641 1.59926 10.7975 1.93463L4.79754 4.55963C3.70558 5.03737 3 6.11621 3 7.30811V13.0001C3 17.9706 7.02944 22.0001 12 22.0001ZM15.7071 10.7072C16.0976 10.3166 16.0976 9.68348 15.7071 9.29295C15.3166 8.90243 14.6834 8.90243 14.2929 9.29295L11 12.5858L9.70711 11.293C9.31658 10.9024 8.68342 10.9024 8.29289 11.293C7.90237 11.6835 7.90237 12.3166 8.29289 12.7072L10.2929 14.7072C10.6834 15.0977 11.3166 15.0977 11.7071 14.7072L15.7071 10.7072Z" fill="#3CCB7F"/>
</svg>