<svg xmlns="http://www.w3.org/2000/svg" width="18" height="18" viewBox="0 0 18 18" fill="none">
  <g clip-path="url(#clip0_126_32247)">
    <path d="M12 6C12 5.58579 11.6642 5.25 11.25 5.25C10.8358 5.25 10.5 5.58579 10.5 6C10.5 7.73136 10.1169 8.80682 9.46186 9.46186C8.80682 10.1169 7.73136 10.5 6 10.5C5.58579 10.5 5.25 10.8358 5.25 11.25C5.25 11.6642 5.58579 12 6 12C7.73136 12 8.80682 12.3831 9.46186 13.0381C10.1169 13.6932 10.5 14.7686 10.5 16.5C10.5 16.9142 10.8358 17.25 11.25 17.25C11.6642 17.25 12 16.9142 12 16.5C12 14.7686 12.3831 13.6932 13.0381 13.0381C13.6932 12.3831 14.7686 12 16.5 12C16.9142 12 17.25 11.6642 17.25 11.25C17.25 10.8358 16.9142 10.5 16.5 10.5C14.7686 10.5 13.6932 10.1169 13.0381 9.46186C12.3831 8.80682 12 7.73136 12 6Z" fill="#FFBE0B"/>
    <path d="M5.625 1.5C5.625 1.08579 5.28921 0.75 4.875 0.75C4.46079 0.75 4.125 1.08579 4.125 1.5C4.125 2.58032 3.88512 3.18703 3.53608 3.53608C3.18703 3.88512 2.58032 4.125 1.5 4.125C1.08579 4.125 0.75 4.46079 0.75 4.875C0.75 5.28921 1.08579 5.625 1.5 5.625C2.58032 5.625 3.18703 5.86488 3.53608 6.21392C3.88512 6.56297 4.125 7.16968 4.125 8.25C4.125 8.66421 4.46079 9 4.875 9C5.28921 9 5.625 8.66421 5.625 8.25C5.625 7.16968 5.86488 6.56297 6.21392 6.21392C6.56297 5.86488 7.16968 5.625 8.25 5.625C8.66421 5.625 9 5.28921 9 4.875C9 4.46079 8.66421 4.125 8.25 4.125C7.16968 4.125 6.56297 3.88512 6.21392 3.53608C5.86488 3.18703 5.625 2.58032 5.625 1.5Z" fill="#FFBE0B"/>
  </g>
  <defs>
    <clipPath id="clip0_126_32247">
      <rect width="18" height="18" fill="white"/>
    </clipPath>
  </defs>
</svg>