<svg fill="none" xmlns="http://www.w3.org/2000/svg" viewBox="1.5 0.75 14.25 16.5"> <path d="M10.5 6C10.5 5.58579 10.1642 5.25 9.75 5.25C9.33579 5.25 9 5.58579 9 6C9 7.73136 8.61689 8.80682 7.96186 9.46186C7.30682 10.1169 6.23136 10.5 4.5 10.5C4.08579 10.5 3.75 10.8358 3.75 11.25C3.75 11.6642 4.08579 12 4.5 12C6.23136 12 7.30682 12.3831 7.96186 13.0381C8.61689 13.6932 9 14.7686 9 16.5C9 16.9142 9.33579 17.25 9.75 17.25C10.1642 17.25 10.5 16.9142 10.5 16.5C10.5 14.7686 10.8831 13.6932 11.5381 13.0381C12.1932 12.3831 13.2686 12 15 12C15.4142 12 15.75 11.6642 15.75 11.25C15.75 10.8358 15.4142 10.5 15 10.5C13.2686 10.5 12.1932 10.1169 11.5381 9.46186C10.8831 8.80682 10.5 7.73136 10.5 6Z" ></path> <path d="M4.5 4.125C4.5 3.91789 4.33211 3.75 4.125 3.75C3.91789 3.75 3.75 3.91789 3.75 4.125C3.75 4.86047 3.58709 5.30445 3.32077 5.57077C3.05445 5.83709 2.61047 6 1.875 6C1.66789 6 1.5 6.16789 1.5 6.375C1.5 6.58211 1.66789 6.75 1.875 6.75C2.61047 6.75 3.05445 6.91291 3.32077 7.17923C3.58709 7.44555 3.75 7.88953 3.75 8.625C3.75 8.83211 3.91789 9 4.125 9C4.33211 9 4.5 8.83211 4.5 8.625C4.5 7.88953 4.66291 7.44555 4.92923 7.17923C5.19555 6.91291 5.63953 6.75 6.375 6.75C6.58211 6.75 6.75 6.58211 6.75 6.375C6.75 6.16789 6.58211 6 6.375 6C5.63953 6 5.19555 5.83709 4.92923 5.57077C4.66291 5.30445 4.5 4.86047 4.5 4.125Z" ></path> <path d="M8.25 1.125C8.25 0.917893 8.08211 0.75 7.875 0.75C7.66789 0.75 7.5 0.917893 7.5 1.125C7.5 1.60006 7.39438 1.85654 7.25046 2.00046C7.10654 2.14438 6.85006 2.25 6.375 2.25C6.16789 2.25 6 2.41789 6 2.625C6 2.83211 6.16789 3 6.375 3C6.85006 3 7.10654 3.10562 7.25046 3.24954C7.39438 3.39346 7.5 3.64994 7.5 4.125C7.5 4.33211 7.66789 4.5 7.875 4.5C8.08211 4.5 8.25 4.33211 8.25 4.125C8.25 3.64994 8.35562 3.39346 8.49954 3.24954C8.64346 3.10562 8.89994 3 9.375 3C9.58211 3 9.75 2.83211 9.75 2.625C9.75 2.41789 9.58211 2.25 9.375 2.25C8.89994 2.25 8.64346 2.14438 8.49954 2.00046C8.35562 1.85654 8.25 1.60006 8.25 1.125Z"></path> </svg>