<svg fill="none" xmlns="http://www.w3.org/2000/svg" viewBox="3 1.5 12 15"> <path fill-rule="evenodd" clip-rule="evenodd" d="M3 3.75C3 2.50736 4.00736 1.5 5.25 1.5H12.75C13.9926 1.5 15 2.50736 15 3.75V15.75C15 16.0429 14.8295 16.309 14.5634 16.4314C14.2973 16.5538 13.9843 16.5101 13.7619 16.3194L12.5 15.2378L11.2381 16.3194C10.9572 16.5602 10.5428 16.5602 10.2619 16.3194L9 15.2378L7.73809 16.3194C7.45723 16.5602 7.04277 16.5602 6.76191 16.3194L5.5 15.2378L4.23809 16.3194C4.01571 16.5101 3.70271 16.5538 3.43661 16.4314C3.17051 16.309 3 16.0429 3 15.75V3.75ZM6 6C6 5.58579 6.33579 5.25 6.75 5.25H11.25C11.6642 5.25 12 5.58579 12 6C12 6.41421 11.6642 6.75 11.25 6.75H6.75C6.33579 6.75 6 6.41421 6 6ZM6 9C6 8.58579 6.33579 8.25 6.75 8.25H8.25C8.66421 8.25 9 8.58579 9 9C9 9.41421 8.66421 9.75 8.25 9.75H6.75C6.33579 9.75 6 9.41421 6 9Z" fill="#9B95A5"></path> </svg>