<svg fill="none" xmlns="http://www.w3.org/2000/svg" viewBox="2 3 15 12"> <path fill-rule="evenodd" clip-rule="evenodd" d="M2.75 3C3.16421 3 3.5 3.33579 3.5 3.75V13.5H16.25C16.6642 13.5 17 13.8358 17 14.25C17 14.6642 16.6642 15 16.25 15H2.75C2.33579 15 2 14.6642 2 14.25V3.75C2 3.33579 2.33579 3 2.75 3ZM11.75 6C11.3358 6 11 5.66421 11 5.25C11 4.83579 11.3358 4.5 11.75 4.5H14.75C15.1642 4.5 15.5 4.83579 15.5 5.25V8.25C15.5 8.66421 15.1642 9 14.75 9C14.3358 9 14 8.66421 14 8.25V7.06066L10.7803 10.2803C10.4874 10.5732 10.0126 10.5732 9.71967 10.2803L8.75 9.31066L6.28033 11.7803C5.98744 12.0732 5.51256 12.0732 5.21967 11.7803C4.92678 11.4874 4.92678 11.0126 5.21967 10.7197L8.21967 7.71967C8.51256 7.42678 8.98744 7.42678 9.28033 7.71967L10.25 8.68934L12.9393 6H11.75Z" fill="#BDB7C7"></path> </svg>