<svg xmlns="http://www.w3.org/2000/svg" width="21" height="20" viewBox="0 0 21 20" fill="none">
  <g clip-path="url(#clip0_2361_32328)">
    <path d="M0.666748 0H5.04214L9.89058 5.74922C9.89369 5.75294 9.8954 5.75765 9.8954 5.7625C9.8954 5.76736 9.89369 5.77206 9.89058 5.77578L6.76167 9.49102C6.76029 9.49261 6.7586 9.49392 6.75672 9.49486C6.75483 9.4958 6.75277 9.49636 6.75067 9.49651C6.74856 9.49665 6.74645 9.49638 6.74445 9.49571C6.74245 9.49503 6.7406 9.49397 6.73901 9.49258L0.666748 4.37266V0Z" fill="#BDB7C7"/>
    <path d="M16.2933 0H20.6667V4.37539L9.14292 14.0875C9.13858 14.0912 9.133 14.093 9.12729 14.0927C9.12158 14.0924 9.11614 14.09 9.11206 14.0859L6.5773 11.5516C6.57452 11.5487 6.57291 11.5449 6.57276 11.541C6.57262 11.537 6.57396 11.5331 6.57651 11.5301L16.2933 0Z" fill="#BDB7C7"/>
    <path d="M14.7582 11.5504L12.2179 14.0906C12.2154 14.0932 12.2119 14.0947 12.2083 14.0948C12.2047 14.0949 12.2012 14.0937 12.1984 14.0914L11.5902 13.5801C11.5886 13.5787 11.5874 13.577 11.5865 13.5751C11.5857 13.5732 11.5852 13.5712 11.5852 13.5691C11.5852 13.567 11.5857 13.565 11.5865 13.5631C11.5874 13.5612 11.5886 13.5595 11.5902 13.5582L14.4316 11.1648C14.4345 11.1624 14.4383 11.1611 14.4421 11.1614C14.4459 11.1617 14.4494 11.1635 14.4519 11.1664L14.759 11.5308C14.7613 11.5336 14.7625 11.5371 14.7624 11.5408C14.7622 11.5444 14.7607 11.5478 14.7582 11.5504Z" fill="#BDB7C7"/>
    <path d="M7.44173 15.7317C7.43903 15.729 7.43538 15.7275 7.43158 15.7275C7.42777 15.7275 7.42412 15.729 7.42142 15.7317L5.32689 17.8262C5.32538 17.8277 5.3235 17.8287 5.32145 17.8291C5.31939 17.8296 5.31725 17.8295 5.31527 17.8288C5.31328 17.8281 5.31152 17.8269 5.3102 17.8252C5.30887 17.8236 5.30802 17.8216 5.30775 17.8196C5.12884 16.5184 4.13783 15.5508 2.8429 15.3563C2.84144 15.3561 2.84005 15.3555 2.8389 15.3546C2.83774 15.3537 2.83687 15.3525 2.83638 15.3511C2.83589 15.3497 2.83581 15.3482 2.83613 15.3468C2.83645 15.3454 2.83718 15.344 2.83822 15.343L4.93236 13.2492C4.93586 13.2456 4.93783 13.2407 4.93783 13.2357C4.93783 13.2306 4.93586 13.2258 4.93236 13.2223L4.12767 12.4176C4.12628 12.4162 4.12517 12.4146 4.12441 12.4128C4.12366 12.411 4.12327 12.409 4.12327 12.4071C4.12327 12.4051 4.12366 12.4032 4.12441 12.4013C4.12517 12.3995 4.12628 12.3979 4.12767 12.3965L4.93704 11.5871C4.93942 11.5847 4.94268 11.5834 4.94611 11.5834C4.94955 11.5834 4.95288 11.5847 4.9554 11.5871L9.07728 15.7094C9.07884 15.7109 9.08008 15.7128 9.08092 15.7148C9.08177 15.7168 9.0822 15.7189 9.0822 15.7211C9.0822 15.7233 9.08177 15.7255 9.08092 15.7275C9.08008 15.7295 9.07884 15.7313 9.07728 15.7328L8.27103 16.5395C8.26811 16.5423 8.26418 16.5439 8.26009 16.5439C8.256 16.5439 8.25208 16.5423 8.24915 16.5395L7.44173 15.7317Z" fill="#BDB7C7"/>
    <path d="M16.4016 13.2231C16.3982 13.2265 16.3963 13.2311 16.3963 13.236C16.3963 13.2408 16.3982 13.2454 16.4016 13.2489L18.493 15.3399C18.4942 15.3412 18.4951 15.3428 18.4955 15.3445C18.4959 15.3462 18.4958 15.348 18.4952 15.3497C18.4946 15.3514 18.4936 15.3529 18.4923 15.3541C18.4909 15.3552 18.4893 15.356 18.4875 15.3563C17.1867 15.5551 16.2156 16.5145 16.0238 17.8203C16.0235 17.8221 16.0228 17.8238 16.0216 17.8251C16.0205 17.8265 16.019 17.8275 16.0173 17.828C16.0156 17.8286 16.0138 17.8287 16.012 17.8283C16.0103 17.8279 16.0087 17.8271 16.0074 17.8258L13.9184 15.7368C13.9082 15.7266 13.8981 15.7266 13.8879 15.7368L13.0856 16.5395C13.0826 16.5424 13.0787 16.544 13.0746 16.544C13.0705 16.544 13.0666 16.5424 13.0637 16.5395L12.2566 15.7325C12.2552 15.731 12.254 15.7292 12.2532 15.7273C12.2524 15.7253 12.252 15.7232 12.252 15.7211C12.252 15.719 12.2524 15.7169 12.2532 15.715C12.254 15.7131 12.2552 15.7113 12.2566 15.7098L16.3766 11.5895C16.3797 11.5864 16.3839 11.5848 16.3883 11.5848C16.3926 11.5849 16.3969 11.5867 16.4 11.5899L17.2063 12.3957C17.2077 12.3972 17.2089 12.399 17.2097 12.4009C17.2105 12.4029 17.211 12.405 17.211 12.4071C17.211 12.4092 17.2105 12.4113 17.2097 12.4132C17.2089 12.4151 17.2077 12.4169 17.2063 12.4184L16.4016 13.2231Z" fill="#BDB7C7"/>
    <path d="M2.51206 20H2.33237C1.66519 19.9403 1.17664 19.6263 0.866748 19.0578C0.754769 18.8526 0.688102 18.6152 0.666748 18.3457V18.1328C0.730811 17.4815 1.03433 17.0044 1.57729 16.7015C2.11323 16.4027 2.80503 16.4172 3.34097 16.7453C4.19565 17.2683 4.42573 18.391 3.89526 19.205C3.58224 19.6858 3.12117 19.9508 2.51206 20Z" fill="#BDB7C7"/>
    <path d="M20.6666 18.1473V18.343C20.5866 19.2574 19.9116 19.9402 18.9952 20H18.8166C18.2364 19.9443 17.792 19.6991 17.4834 19.2645C17.0987 18.7234 17.0475 18.0313 17.3444 17.4473C17.81 16.5309 18.9772 16.2066 19.8424 16.752C20.3385 17.0647 20.6133 17.5298 20.6666 18.1473Z" fill="#BDB7C7"/>
  </g>
  <defs>
    <clipPath id="clip0_2361_32328">
      <rect width="20" height="20" fill="white" transform="translate(0.666748)"/>
    </clipPath>
  </defs>
</svg>