<svg width="16" height="16" viewBox="0 0 16 16" fill="none" xmlns="http://www.w3.org/2000/svg">
<g id="Group 23623508">
<path id="Vector" d="M0.799805 0.799988H3.95009L7.44097 4.93943C7.44321 4.94211 7.44444 4.9455 7.44444 4.94899C7.44444 4.95249 7.44321 4.95588 7.44097 4.95856L5.18816 7.63353C5.18716 7.63468 5.18595 7.63562 5.18459 7.6363C5.18323 7.63698 5.18175 7.63738 5.18023 7.63748C5.17872 7.63759 5.1772 7.63739 5.17576 7.63691C5.17432 7.63642 5.17299 7.63566 5.17184 7.63465L0.799805 3.94831V0.799988Z" fill="white"/>
<path id="Vector_2" d="M12.052 0.799988H15.2009V3.95027L6.90375 10.943C6.90062 10.9456 6.89661 10.947 6.89249 10.9468C6.88838 10.9466 6.88446 10.9448 6.88153 10.9419L5.05649 9.11713C5.0545 9.11508 5.05333 9.11236 5.05323 9.1095C5.05313 9.10664 5.05409 9.10385 5.05593 9.10166L12.052 0.799988Z" fill="white"/>
<path id="Vector_3" d="M10.9471 9.11638L9.11817 10.9454C9.11632 10.9472 9.11385 10.9483 9.11125 10.9484C9.10865 10.9485 9.1061 10.9476 9.10411 10.9459L8.6662 10.5778C8.66507 10.5768 8.66416 10.5756 8.66354 10.5742C8.66292 10.5729 8.6626 10.5714 8.6626 10.5699C8.6626 10.5684 8.66292 10.5669 8.66354 10.5656C8.66416 10.5642 8.66507 10.563 8.6662 10.562L10.712 8.83879C10.7141 8.83701 10.7168 8.83612 10.7196 8.83633C10.7223 8.83655 10.7248 8.83783 10.7266 8.83991L10.9477 9.10232C10.9494 9.10431 10.9503 9.10686 10.9502 9.10946C10.9501 9.11206 10.949 9.11453 10.9471 9.11638Z" fill="white"/>
<path id="Vector_4" d="M5.67848 12.127C5.67653 12.1251 5.67391 12.124 5.67117 12.124C5.66843 12.124 5.6658 12.1251 5.66386 12.127L4.15579 13.6351C4.15471 13.6362 4.15335 13.6369 4.15187 13.6372C4.1504 13.6375 4.14885 13.6375 4.14742 13.637C4.14599 13.6365 4.14473 13.6356 4.14377 13.6344C4.14282 13.6332 4.14221 13.6318 4.14201 13.6303C4.0132 12.6935 3.29967 11.9968 2.36732 11.8568C2.36627 11.8566 2.36527 11.8562 2.36444 11.8556C2.36361 11.8549 2.36298 11.854 2.36263 11.853C2.36227 11.852 2.36221 11.851 2.36244 11.8499C2.36268 11.8489 2.3632 11.8479 2.36395 11.8472L3.87173 10.3397C3.87425 10.337 3.87567 10.3335 3.87567 10.3299C3.87567 10.3263 3.87425 10.3228 3.87173 10.3203L3.29235 9.7409C3.29135 9.73991 3.29055 9.73873 3.29001 9.73742C3.28947 9.73612 3.28919 9.73472 3.28919 9.73331C3.28919 9.7319 3.28947 9.7305 3.29001 9.7292C3.29055 9.72789 3.29135 9.72671 3.29235 9.72572L3.8751 9.14297C3.87681 9.14123 3.87916 9.14026 3.88163 9.14026C3.88411 9.14026 3.88651 9.14123 3.88832 9.14297L6.85608 12.111C6.8572 12.1121 6.85809 12.1134 6.8587 12.1149C6.85931 12.1163 6.85962 12.1179 6.85962 12.1194C6.85962 12.121 6.85931 12.1226 6.8587 12.124C6.85809 12.1255 6.8572 12.1268 6.85608 12.1279L6.27558 12.7087C6.27347 12.7107 6.27065 12.7119 6.2677 12.7119C6.26476 12.7119 6.26193 12.7107 6.25983 12.7087L5.67848 12.127Z" fill="white"/>
<path id="Vector_5" d="M12.1284 10.3205C12.1259 10.323 12.1245 10.3263 12.1245 10.3298C12.1245 10.3333 12.1259 10.3366 12.1284 10.3391L13.6342 11.8446C13.6351 11.8456 13.6357 11.8467 13.636 11.848C13.6362 11.8492 13.6362 11.8505 13.6358 11.8517C13.6354 11.8529 13.6346 11.854 13.6337 11.8549C13.6327 11.8557 13.6315 11.8562 13.6302 11.8564C12.6937 11.9996 11.9945 12.6903 11.8564 13.6306C11.8562 13.6318 11.8556 13.633 11.8548 13.634C11.854 13.635 11.8529 13.6357 11.8517 13.6361C11.8505 13.6365 11.8491 13.6366 11.8479 13.6363C11.8466 13.636 11.8455 13.6354 11.8446 13.6345L10.3404 12.1304C10.3331 12.1231 10.3258 12.1231 10.3185 12.1304L9.74082 12.7083C9.73872 12.7104 9.73589 12.7116 9.73294 12.7116C9.73 12.7116 9.72717 12.7104 9.72507 12.7083L9.14401 12.1273C9.14293 12.1262 9.14208 12.1249 9.1415 12.1235C9.14092 12.1221 9.14062 12.1206 9.14062 12.1191C9.14062 12.1176 9.14092 12.1161 9.1415 12.1147C9.14208 12.1133 9.14293 12.112 9.14401 12.111L12.1104 9.14434C12.1126 9.14214 12.1156 9.14094 12.1188 9.14099C12.1219 9.14105 12.125 9.14235 12.1272 9.14462L12.7077 9.72484C12.7088 9.72591 12.7097 9.72718 12.7102 9.72858C12.7108 9.72998 12.7111 9.73148 12.7111 9.733C12.7111 9.73451 12.7108 9.73601 12.7102 9.73741C12.7097 9.73881 12.7088 9.74008 12.7077 9.74115L12.1284 10.3205Z" fill="white"/>
<path id="Vector_6" d="M2.12843 15.1999H1.99906C1.51868 15.1569 1.16693 14.9308 0.943805 14.5215C0.86318 14.3737 0.81518 14.2028 0.799805 14.0088V13.8555C0.84593 13.3865 1.06446 13.043 1.4554 12.825C1.84128 12.6098 2.33937 12.6202 2.72525 12.8565C3.34062 13.2331 3.50628 14.0414 3.12434 14.6275C2.89896 14.9736 2.567 15.1644 2.12843 15.1999Z" fill="white"/>
<path id="Vector_7" d="M15.2015 13.8663V14.0072C15.1438 14.6656 14.6578 15.1572 13.998 15.2002H13.8695C13.4517 15.1601 13.1317 14.9836 12.9096 14.6706C12.6325 14.2811 12.5957 13.7827 12.8094 13.3623C13.1447 12.7024 13.9851 12.469 14.608 12.8616C14.9652 13.0868 15.163 13.4217 15.2015 13.8663Z" fill="white"/>
</g>
</svg>
