<svg fill="none" xmlns="http://www.w3.org/2000/svg" viewBox="2 4.5 20 16"> <path fill-rule="evenodd" clip-rule="evenodd" d="M2 6.5C2 5.39543 2.89543 4.5 4 4.5H20C21.1046 4.5 22 5.39543 22 6.5V9.67071C22 10.0945 21.7328 10.4723 21.3332 10.6135C20.5551 10.8886 20 11.6307 20 12.5C20 13.3693 20.5551 14.1114 21.3332 14.3865C21.7328 14.5277 22 14.9055 22 15.3293V18.5C22 19.6046 21.1046 20.5 20 20.5H4C2.89543 20.5 2 19.6046 2 18.5V15.3293C2 14.9055 2.26716 14.5277 2.66675 14.3865C3.4449 14.1114 4 13.3693 4 12.5C4 11.6307 3.4449 10.8886 2.66675 10.6135C2.26716 10.4723 2 10.0945 2 9.67071V6.5ZM14 8.5C14 7.94772 14.4477 7.5 15 7.5C15.5523 7.5 16 7.94772 16 8.5C16 9.05228 15.5523 9.5 15 9.5C14.4477 9.5 14 9.05228 14 8.5ZM14 12.5C14 11.9477 14.4477 11.5 15 11.5C15.5523 11.5 16 11.9477 16 12.5C16 13.0523 15.5523 13.5 15 13.5C14.4477 13.5 14 13.0523 14 12.5ZM15 15.5C14.4477 15.5 14 15.9477 14 16.5C14 17.0523 14.4477 17.5 15 17.5C15.5523 17.5 16 17.0523 16 16.5C16 15.9477 15.5523 15.5 15 15.5Z" fill="#BDB7C7"></path> </svg>