<svg fill="none" xmlns="http://www.w3.org/2000/svg" viewBox="2.15 1 15.16 17.38"> <path d="M15.0391 4.48351C14.1029 3.87314 13.4275 2.8962 13.2167 1.75808C13.1712 1.51224 13.1459 1.25899 13.1459 1H10.1581L10.1531 12.9744C10.1032 14.3156 8.99942 15.3916 7.64649 15.3916C7.22597 15.3916 6.83007 15.2868 6.48139 15.103C5.68183 14.6825 5.13452 13.8445 5.13452 12.8803C5.13452 11.4954 6.26152 10.3684 7.64615 10.3684C7.9048 10.3684 8.15266 10.4112 8.38703 10.4844V7.4342C8.14423 7.40082 7.89772 7.38059 7.64615 7.38059C4.61385 7.38059 2.14673 9.84737 2.14673 12.8803C2.14673 14.7408 3.07611 16.3875 4.49481 17.3829C5.38777 18.0105 6.47464 18.3798 7.64649 18.3798C10.6791 18.3798 13.1459 15.9126 13.1459 12.8803V6.80798C14.3178 7.64901 15.7537 8.14473 17.3032 8.14473V5.1566C16.4686 5.1566 15.6913 4.90875 15.0391 4.48351Z" ></path> </svg>