<svg fill="none" xmlns="http://www.w3.org/2000/svg" viewBox="1.07 2.93 17.87 14.52"> <path d="M17.1092 6.54489C17.1201 6.70239 17.1201 6.85989 17.1201 7.01884C17.1201 11.8621 13.433 17.448 6.69098 17.448V17.4451C4.69936 17.448 2.74912 16.8775 1.07251 15.8018C1.36211 15.8367 1.65315 15.8541 1.94493 15.8548C3.59541 15.8563 5.19872 15.3025 6.49719 14.2827C4.92872 14.253 3.55332 13.2303 3.07283 11.7373C3.62227 11.8433 4.1884 11.8215 4.72767 11.6742C3.01767 11.3287 1.78743 9.82626 1.78743 8.08142V8.03497C2.29695 8.31876 2.86743 8.47626 3.45098 8.49368C1.84041 7.41731 1.34396 5.27473 2.31654 3.59957C4.17751 5.88949 6.92324 7.28158 9.87074 7.42892C9.57533 6.15586 9.97888 4.82182 10.9311 3.92691C12.4074 2.53916 14.7293 2.61029 16.117 4.08586C16.9379 3.924 17.7247 3.62279 18.4447 3.19602C18.1711 4.04449 17.5984 4.76521 16.8334 5.2232C17.5599 5.13755 18.2698 4.94303 18.9382 4.64618C18.4461 5.3836 17.8263 6.02594 17.1092 6.54489Z" ></path> </svg>