<svg fill="none" xmlns="http://www.w3.org/2000/svg" viewBox="1 4.5 19.96 12.49"> <path d="M4.90949 4.5H9.89221C10.5878 4.5 11.0204 5.06693 10.8581 5.76478L8.53829 15.7246C8.37457 16.42 7.67818 16.9875 6.98215 16.9875H1.99993C1.30536 16.9875 0.87178 16.42 1.03404 15.7246L3.35482 5.76478C3.51707 5.06693 4.2131 4.5 4.90949 4.5Z" fill="#E21836"></path> <path d="M9.47754 4.5H15.2075C15.903 4.5 15.5894 5.06693 15.4258 5.76478L13.1063 15.7246C12.9436 16.42 12.9944 16.9875 12.2975 16.9875H6.56749C5.87061 16.9875 5.43934 16.42 5.60306 15.7246L7.92238 5.76478C8.08706 5.06693 8.78164 4.5 9.47754 4.5Z" fill="#00447C"></path> <path d="M14.9802 4.5H19.963C20.6595 4.5 21.0921 5.06693 20.9285 5.76478L18.609 15.7246C18.4453 16.42 17.7484 16.9875 17.052 16.9875H12.0716C11.3748 16.9875 10.9425 16.42 11.1058 15.7246L13.4256 5.76478C13.5878 5.06693 14.2834 4.5 14.9802 4.5Z" fill="#007B84"></path> <path d="M6.21054 7.6919C5.69814 7.69712 5.54682 7.6919 5.49848 7.68049C5.4799 7.76878 5.13413 9.36378 5.13316 9.36511C5.05871 9.68781 5.00455 9.91783 4.82055 10.0664C4.7161 10.1527 4.59417 10.1944 4.4528 10.1944C4.22557 10.1944 4.09319 10.0815 4.07096 9.86755L4.06671 9.79407C4.06671 9.79407 4.13594 9.36183 4.13594 9.35941C4.13594 9.35941 4.49883 7.9059 4.5638 7.71376C4.56721 7.70283 4.56818 7.69712 4.56903 7.6919C3.86268 7.6981 3.73746 7.6919 3.72884 7.68049C3.7241 7.69615 3.70661 7.78627 3.70661 7.78627L3.33607 9.4245L3.30425 9.56344L3.24268 10.0179C3.24268 10.1527 3.26915 10.2627 3.32186 10.3558C3.49068 10.6508 3.97222 10.695 4.24463 10.695C4.59562 10.695 4.92487 10.6204 5.14737 10.4843C5.53358 10.2561 5.63463 9.89937 5.72474 9.58239L5.76652 9.41977C5.76652 9.41977 6.14034 7.91015 6.20386 7.71376C6.20629 7.70283 6.20726 7.69712 6.21054 7.6919ZM7.48245 8.90973C7.39233 8.90973 7.22764 8.93159 7.07972 9.00409C7.02604 9.03166 6.97527 9.06348 6.92171 9.09518L6.97005 8.92066L6.94357 8.89127C6.62987 8.95478 6.55967 8.96329 6.26989 9.00409L6.2456 9.02025C6.21196 9.29922 6.18208 9.50896 6.05736 10.0573C6.00987 10.2594 5.96056 10.4634 5.91113 10.665L5.92449 10.6907C6.22143 10.675 6.31155 10.675 6.56963 10.6792L6.59052 10.6565C6.62331 10.4886 6.62756 10.4492 6.70019 10.109C6.73432 9.94776 6.80549 9.59337 6.84058 9.46718C6.90507 9.4373 6.96871 9.40791 7.02944 9.40791C7.17409 9.40791 7.15648 9.5341 7.15089 9.58438C7.14469 9.66879 7.09199 9.94448 7.03794 10.1812L7.00187 10.334C6.97673 10.4468 6.94916 10.5565 6.92402 10.6683L6.93495 10.6907C7.22764 10.675 7.31691 10.675 7.56685 10.6792L7.59624 10.6565C7.64142 10.3942 7.65466 10.324 7.73482 9.94205L7.77514 9.76655C7.85347 9.42309 7.89282 9.24893 7.83356 9.10708C7.77089 8.9481 7.62053 8.90973 7.48245 8.90973ZM8.90331 9.26933C8.74773 9.2992 8.64851 9.31912 8.54989 9.33199C8.45212 9.34766 8.35679 9.36187 8.20643 9.38276L8.19453 9.39357L8.1836 9.40219C8.16793 9.51417 8.157 9.61096 8.13623 9.72476C8.11862 9.84245 8.09154 9.97616 8.04745 10.1683C8.01333 10.3154 7.99572 10.3666 7.97628 10.4184C7.95734 10.4701 7.93645 10.5204 7.89807 10.665L7.90706 10.6784L7.91459 10.6907C8.05511 10.684 8.14704 10.6792 8.24153 10.6784C8.3359 10.675 8.43366 10.6784 8.58499 10.6792L8.59823 10.6684L8.61244 10.6565C8.6343 10.5261 8.63758 10.491 8.65094 10.4273C8.66418 10.3591 8.68701 10.2646 8.743 10.0122C8.76947 9.8937 8.79898 9.77553 8.82643 9.65456C8.85497 9.53409 8.88485 9.41543 8.91327 9.2969L8.90902 9.28256L8.90331 9.26933ZM8.90662 8.78448C8.76526 8.70104 8.51714 8.72752 8.35014 8.84277C8.18364 8.95572 8.16469 9.11603 8.30557 9.20056C8.44451 9.28169 8.6936 9.25752 8.85914 9.14129C9.02528 9.02592 9.04605 8.86706 8.90662 8.78448ZM9.76157 10.7168C10.0476 10.7168 10.3408 10.638 10.5614 10.4041C10.7312 10.2144 10.8091 9.93211 10.836 9.81589C10.9238 9.43065 10.8555 9.25078 10.7696 9.14123C10.6392 8.97424 10.4087 8.92068 10.1695 8.92068C10.0257 8.92068 9.68323 8.93489 9.41568 9.18155C9.22355 9.35948 9.13477 9.60092 9.08121 9.8324C9.02716 10.0683 8.96498 10.4928 9.35544 10.6509C9.47592 10.7026 9.64959 10.7168 9.76157 10.7168ZM9.73922 9.85001C9.80517 9.55829 9.88302 9.31345 10.0817 9.31345C10.2374 9.31345 10.2487 9.49562 10.1795 9.78832C10.1671 9.85329 10.1103 10.0949 10.0334 10.1977C9.97969 10.2736 9.91618 10.3197 9.84598 10.3197C9.82509 10.3197 9.70084 10.3197 9.6989 10.1352C9.69793 10.0441 9.71651 9.95106 9.73922 9.85001ZM11.551 10.6793L11.5734 10.6566C11.6051 10.4886 11.6103 10.4491 11.6805 10.1091C11.7156 9.94779 11.7882 9.5934 11.8223 9.46722C11.8869 9.43722 11.9495 9.40783 12.0122 9.40783C12.1558 9.40783 12.1383 9.53401 12.1326 9.58429C12.1274 9.66882 12.0747 9.94439 12.0197 10.1811L11.9856 10.3339C11.9594 10.4468 11.931 10.5564 11.9059 10.6684L11.9168 10.6907C12.2105 10.675 12.2963 10.675 12.5477 10.6793L12.5781 10.6566C12.6222 10.3941 12.6341 10.3239 12.7167 9.94208L12.756 9.76647C12.8347 9.42301 12.8746 9.24897 12.8163 9.10712C12.7518 8.94814 12.6005 8.90976 12.4643 8.90976C12.3741 8.90976 12.2085 8.9315 12.0615 9.00413C12.0089 9.0317 11.9562 9.0634 11.9044 9.09522L11.9495 8.92069L11.9253 8.89118C11.6117 8.95482 11.5401 8.96332 11.2507 9.00413L11.2284 9.02028C11.1933 9.29925 11.1648 9.50887 11.0401 10.0573C10.9926 10.2594 10.9433 10.4635 10.894 10.6651L10.9072 10.6907C11.2046 10.675 11.2934 10.675 11.551 10.6793ZM13.7086 10.6906C13.7271 10.6005 13.8368 10.0664 13.8377 10.0664C13.8377 10.0664 13.9311 9.67447 13.9368 9.66026C13.9368 9.66026 13.9662 9.61945 13.9956 9.6033H14.0388C14.4468 9.6033 14.9075 9.6033 15.2685 9.33769C15.5142 9.15552 15.6822 8.88651 15.7571 8.55956C15.7765 8.47941 15.7909 8.38407 15.7909 8.28873C15.7909 8.16352 15.7657 8.03964 15.6931 7.94284C15.509 7.68525 15.1423 7.68051 14.7191 7.67857C14.7177 7.67857 14.5104 7.68051 14.5104 7.68051C13.9686 7.68719 13.7514 7.68525 13.6621 7.67432C13.6546 7.71379 13.6404 7.78399 13.6404 7.78399C13.6404 7.78399 13.4463 8.68344 13.4463 8.6849C13.4463 8.6849 12.9819 10.5972 12.96 10.6874C13.4331 10.6817 13.627 10.6817 13.7086 10.6906ZM14.0682 9.09285C14.0682 9.09285 14.2746 8.19521 14.2736 8.19861L14.2803 8.15258L14.2832 8.11749L14.3657 8.12599C14.3657 8.12599 14.7912 8.16254 14.8012 8.16352C14.9691 8.22849 15.0384 8.39597 14.99 8.61458C14.946 8.81436 14.8164 8.98233 14.6499 9.06346C14.5127 9.1322 14.3448 9.13791 14.1717 9.13791H14.0597L14.0682 9.09285ZM15.353 9.86664C15.2984 10.0991 15.2358 10.5237 15.6243 10.675C15.7482 10.7277 15.8592 10.7434 15.972 10.7377C16.0911 10.7312 16.2015 10.6715 16.3038 10.5855C16.2946 10.6208 16.2853 10.6562 16.2761 10.6916L16.2937 10.7144C16.5732 10.7026 16.6599 10.7026 16.9627 10.7049L16.9901 10.684C17.0343 10.4241 17.076 10.1717 17.1909 9.67451C17.2469 9.43634 17.3027 9.20049 17.3602 8.9633L17.3512 8.93719C17.0386 8.99512 16.955 9.00751 16.6543 9.05013L16.6315 9.06872C16.6284 9.09288 16.6253 9.11608 16.6224 9.13928C16.5756 9.06374 16.5078 8.99925 16.4033 8.95905C16.2696 8.90646 15.9555 8.97423 15.6855 9.22004C15.4958 9.39554 15.4047 9.63601 15.353 9.86664ZM16.0095 9.88085C16.0765 9.59435 16.1533 9.35194 16.3525 9.35194C16.4785 9.35194 16.5448 9.46816 16.5313 9.66637C16.5206 9.7158 16.5091 9.7679 16.4953 9.8268C16.4754 9.91194 16.4538 9.99635 16.4328 10.0809C16.4114 10.1387 16.3865 10.1932 16.3592 10.2295C16.3079 10.3022 16.186 10.3472 16.1158 10.3472C16.0959 10.3472 15.973 10.3472 15.9687 10.166C15.9678 10.0758 15.9863 9.98287 16.0095 9.88085ZM19.4381 8.93487L19.4139 8.9073C19.1046 8.96997 19.0486 8.97992 18.7644 9.0183L18.7435 9.03919C18.7426 9.04259 18.7417 9.04781 18.7403 9.05255L18.7393 9.04781C18.5277 9.53592 18.5339 9.43062 18.3617 9.81489C18.3607 9.7974 18.3607 9.78647 18.3598 9.76789L18.3167 8.93487L18.2896 8.9073C17.9655 8.96997 17.9579 8.97992 17.6586 9.0183L17.6353 9.03919C17.632 9.04915 17.632 9.06008 17.6301 9.07198L17.632 9.07623C17.6694 9.2674 17.6605 9.22477 17.698 9.52645C17.7155 9.67449 17.7388 9.82339 17.7563 9.96962C17.7858 10.2143 17.8023 10.3348 17.8384 10.7083C17.6363 11.0418 17.5884 11.168 17.3939 11.4607L17.3952 11.4636L17.2582 11.6802C17.2426 11.7031 17.2283 11.7187 17.2084 11.7254C17.1866 11.7362 17.1581 11.7382 17.1187 11.7382H17.0428L16.9299 12.1134L17.317 12.1201C17.5442 12.1192 17.6871 12.0129 17.7639 11.8701L18.0073 11.453H18.0034L18.0291 11.4236C18.1928 11.0712 19.4381 8.93487 19.4381 8.93487ZM15.353 13.8636H15.1888L15.7965 11.8535H15.9981L16.0621 11.6464L16.0683 11.8767C16.0608 12.019 16.1728 12.1452 16.4669 12.1243H16.8071L16.9242 11.7373H16.7962C16.7226 11.7373 16.6884 11.7187 16.6927 11.6788L16.6865 11.4446H16.0565V11.4458C15.8529 11.45 15.2446 11.4653 15.1215 11.4981C14.9725 11.5365 14.8154 11.6494 14.8154 11.6494L14.8771 11.4421H14.2879L14.1651 11.8535L13.5492 13.8943H13.4297L13.3125 14.2786H14.4862L14.4468 14.4067H15.0252L15.0636 14.2786H15.2258L15.353 13.8636ZM14.8714 12.2619C14.7771 12.288 14.6014 12.3672 14.6014 12.3672L14.7576 11.8535H15.2258L15.1129 12.2278C15.1129 12.2278 14.9682 12.2363 14.8714 12.2619ZM14.8804 12.9958C14.8804 12.9958 14.7333 13.0143 14.6365 13.0362C14.5412 13.0651 14.3624 13.1562 14.3624 13.1562L14.5237 12.6215H14.9943L14.8804 12.9958ZM14.6181 13.8683H14.1484L14.2846 13.4171H14.7528L14.6181 13.8683ZM15.7491 12.6215H16.426L16.3288 12.9366H15.6428L15.5398 13.281H16.14L15.6856 13.9209C15.6537 13.9679 15.6252 13.9846 15.5935 13.9978C15.5617 14.0139 15.5199 14.0329 15.4716 14.0329H15.3051L15.1907 14.4101H15.6262C15.8526 14.4101 15.9863 14.3071 16.085 14.172L16.3967 13.7454L16.4636 14.1785C16.4778 14.2596 16.5361 14.3071 16.5756 14.3256C16.6192 14.3475 16.6642 14.385 16.7278 14.3906C16.7961 14.3935 16.8454 14.3958 16.8782 14.3958H17.0922L17.2207 13.9736H17.1363C17.0878 13.9736 17.0044 13.9655 16.9902 13.9503C16.976 13.9319 16.976 13.9034 16.9683 13.8602L16.9004 13.4261H16.6224L16.7444 13.281H17.429L17.5343 12.9366H16.9004L16.9992 12.6215H17.6311L17.7483 12.233H15.8643L15.7491 12.6215ZM10.0315 13.9561L10.1895 13.4304H10.8389L10.9575 13.0395H10.3075L10.4067 12.7159H11.0419L11.1596 12.3374H9.57031L9.45505 12.7159H9.81612L9.71982 13.0395H9.35777L9.23778 13.4371H9.59873L9.38814 14.1325C9.35972 14.2246 9.40149 14.2597 9.42797 14.3024C9.45505 14.3441 9.4825 14.3717 9.5442 14.3873C9.60784 14.4015 9.65144 14.41 9.71071 14.41H10.4428L10.5732 13.9769L10.2487 14.0215C10.1861 14.0215 10.0125 14.014 10.0315 13.9561ZM10.1059 11.4398L9.94138 11.7372C9.90616 11.8022 9.87446 11.8425 9.84592 11.8611C9.82078 11.8767 9.77098 11.8833 9.69884 11.8833H9.61298L9.49821 12.2638H9.78337C9.92049 12.2638 10.0258 12.2135 10.0761 12.1884C10.1301 12.1595 10.1443 12.176 10.1861 12.1357L10.2824 12.0522H11.1729L11.291 11.6561H10.6392L10.753 11.4398H10.1059ZM11.4206 13.9637C11.4054 13.9418 11.4163 13.9033 11.4395 13.8232L11.6829 13.0176H12.5487C12.6749 13.0158 12.766 13.0143 12.8252 13.0101C12.8889 13.0034 12.9581 12.9807 13.0335 12.9399C13.1114 12.8971 13.1512 12.8521 13.1849 12.8003C13.2224 12.7487 13.2826 12.6358 13.3344 12.4616L13.6403 11.4422L12.7418 11.4474C12.7418 11.4474 12.4651 11.4882 12.3433 11.5332C12.2204 11.5835 12.0448 11.7239 12.0448 11.7239L12.1259 11.4445H11.5709L10.7939 14.0215C10.7663 14.1216 10.7478 14.1942 10.7436 14.2378C10.7421 14.2848 10.8029 14.3313 10.8422 14.3664C10.8887 14.4015 10.9575 14.3958 11.0234 14.4015C11.0928 14.4067 11.1914 14.41 11.3275 14.41H11.7541L11.885 13.9679L11.5031 14.004C11.4623 14.004 11.4328 13.9822 11.4206 13.9637ZM11.8399 12.4735H12.7493L12.6915 12.6547C12.6834 12.659 12.664 12.6457 12.5714 12.6567H11.7839L11.8399 12.4735ZM12.0221 11.8658H12.9392L12.8732 12.084C12.8732 12.084 12.441 12.0798 12.3718 12.0925C12.0672 12.1452 11.8892 12.308 11.8892 12.308L12.0221 11.8658ZM12.7119 13.2615C12.7044 13.2886 12.6925 13.3051 12.6758 13.3175C12.6574 13.3294 12.6275 13.3337 12.5829 13.3337H12.4533L12.461 13.113H11.922L11.9001 14.1918C11.8993 14.2697 11.9068 14.3147 11.9638 14.3508C12.0207 14.3958 12.1962 14.4016 12.4324 14.4016H12.7702L12.8921 13.9977L12.5981 14.0139L12.5003 14.0196C12.487 14.0139 12.4742 14.0087 12.46 13.9945C12.4476 13.9822 12.4267 13.9897 12.4301 13.9119L12.4324 13.6353L12.7408 13.6226C12.9073 13.6226 12.9785 13.5684 13.0392 13.5168C13.0971 13.4674 13.1161 13.4105 13.1379 13.3337L13.1897 13.0888H12.7659L12.7119 13.2615Z" fill="#FEFEFE"></path> </svg>