<svg width="18" height="18" viewBox="0 0 18 18" fill="none" xmlns="http://www.w3.org/2000/svg">
<path d="M2.625 5.25C2.625 3.59315 3.96815 2.25 5.625 2.25C7.28185 2.25 8.625 3.59315 8.625 5.25C8.625 6.90685 7.28185 8.25 5.625 8.25C3.96815 8.25 2.625 6.90685 2.625 5.25Z" />
<path d="M9.375 5.25C9.375 3.59315 10.7181 2.25 12.375 2.25C14.0319 2.25 15.375 3.59315 15.375 5.25C15.375 6.90685 14.0319 8.25 12.375 8.25C10.7181 8.25 9.375 6.90685 9.375 5.25Z" />
<path d="M5.62481 9C7.77789 9 9.82022 10.4855 10.5803 13.2101C10.9778 14.6348 9.76271 15.75 8.51535 15.75H2.73426C1.48689 15.75 0.271812 14.6348 0.669265 13.2101C1.42939 10.4855 3.47172 9 5.62481 9Z" />
<path d="M12.0258 12.8071C11.6599 11.4957 11.0309 10.3864 10.2224 9.52658C10.8941 9.17896 11.628 9 12.3753 9C14.5284 9 16.5708 10.4855 17.3309 13.2101C17.7283 14.6348 16.5132 15.75 15.2659 15.75H11.498C12.0741 14.9662 12.3371 13.9231 12.0258 12.8071Z" />
</svg>
