<svg fill="none" xmlns="http://www.w3.org/2000/svg" viewBox="2.63 1.88 12.75 14.25"> <path d="M7.875 7.875C7.875 7.25368 8.37868 6.75 9 6.75C9.62132 6.75 10.125 7.25368 10.125 7.875C10.125 8.49632 9.62132 9 9 9C8.37868 9 7.875 8.49632 7.875 7.875Z" fill="#9B95A5"></path> <path fill-rule="evenodd" clip-rule="evenodd" d="M4.875 1.875C3.63236 1.875 2.625 2.88236 2.625 4.125V13.875C2.625 15.1176 3.63236 16.125 4.875 16.125H13.125C14.3676 16.125 15.375 15.1176 15.375 13.875V4.125C15.375 2.88236 14.3676 1.875 13.125 1.875H4.875ZM6.375 12C6.375 11.5858 6.71079 11.25 7.125 11.25H10.875C11.2892 11.25 11.625 11.5858 11.625 12C11.625 12.4142 11.2892 12.75 10.875 12.75H7.125C6.71079 12.75 6.375 12.4142 6.375 12ZM9 5.25C7.55025 5.25 6.375 6.42525 6.375 7.875C6.375 9.32475 7.55025 10.5 9 10.5C10.4497 10.5 11.625 9.32475 11.625 7.875C11.625 6.42525 10.4497 5.25 9 5.25Z" fill="#9B95A5"></path> </svg>