<svg fill="none" xmlns="http://www.w3.org/2000/svg" viewBox="1.57 8.35 18.85 6.1"> <path d="M9.73655 14.3668H8.20947L9.16461 8.46094H10.6916L9.73655 14.3668Z" fill="white"></path> <path d="M15.2732 8.60544C14.972 8.48594 14.4942 8.354 13.9035 8.354C12.3955 8.354 11.3335 9.15817 11.327 10.3079C11.3145 11.1561 12.0873 11.6273 12.6654 11.9101C13.2562 12.1991 13.457 12.3878 13.457 12.6454C13.451 13.041 12.9796 13.2234 12.54 13.2234C11.9303 13.2234 11.6036 13.1294 11.1072 12.9093L10.9061 12.8149L10.6924 14.1406C11.0505 14.3038 11.7104 14.4486 12.3955 14.455C13.9978 14.455 15.041 13.6632 15.0533 12.438C15.0594 11.7657 14.6513 11.2506 13.7715 10.8296C13.2374 10.5594 12.9103 10.3772 12.9103 10.1007C12.9166 9.84935 13.187 9.5919 13.7899 9.5919C14.2863 9.57929 14.6511 9.69862 14.9274 9.81803L15.0655 9.88074L15.2732 8.60544Z" fill="white"></path> <path d="M17.3021 12.2746C17.4278 11.9353 17.9118 10.6222 17.9118 10.6222C17.9054 10.6348 18.0373 10.2766 18.1127 10.0567L18.2194 10.5656C18.2194 10.5656 18.5086 11.9793 18.5714 12.2746C18.3327 12.2746 17.6037 12.2746 17.3021 12.2746ZM19.1871 8.46094H18.0059C17.6416 8.46094 17.3649 8.56766 17.2077 8.95095L14.9395 14.3667H16.5418C16.5418 14.3667 16.8056 13.6378 16.8623 13.4808C17.038 13.4808 18.5968 13.4808 18.8229 13.4808C18.8667 13.6882 19.0051 14.3667 19.0051 14.3667H20.419L19.1871 8.46094Z" fill="white"></path> <path d="M6.93428 8.46094L5.43877 12.4882L5.27534 11.6714C4.99886 10.729 4.13173 9.70501 3.16406 9.19587L4.5339 14.3606H6.14873L8.54903 8.46094H6.93428Z" fill="white"></path> <path d="M4.04992 8.46094H1.59301L1.56787 8.58027C3.48442 9.07036 4.75371 10.2517 5.2752 11.6717L4.7411 8.95738C4.65317 8.58018 4.38294 8.47338 4.04992 8.46094Z" fill="white"></path> </svg>