<svg fill="none" xmlns="http://www.w3.org/2000/svg" viewBox="2.75 2.25 13.5 13.5"> <path fill-rule="evenodd" clip-rule="evenodd" d="M5.375 2.25C3.92525 2.25 2.75 3.42525 2.75 4.875V12.75C2.75 14.4069 4.09315 15.75 5.75 15.75H14C15.2426 15.75 16.25 14.7426 16.25 13.5V8.25C16.25 7.00736 15.2426 6 14 6H13.25V4.05882C13.25 3.05984 12.4402 2.25 11.4412 2.25H5.375ZM11.75 6V4.05882C11.75 3.88827 11.6117 3.75 11.4412 3.75H5.375C4.75368 3.75 4.25 4.25368 4.25 4.875C4.25 5.49632 4.75368 6 5.375 6H11.75ZM12.125 11.8125C12.6428 11.8125 13.0625 11.3928 13.0625 10.875C13.0625 10.3572 12.6428 9.9375 12.125 9.9375C11.6072 9.9375 11.1875 10.3572 11.1875 10.875C11.1875 11.3928 11.6072 11.8125 12.125 11.8125Z" fill="#9B95A5"></path> </svg>