<svg width="18" height="19" viewBox="0 0 18 19" fill="none" xmlns="http://www.w3.org/2000/svg">
<g id="wallet 2">
<path id="Icon" fill-rule="evenodd" clip-rule="evenodd" d="M4.875 2.75C3.42525 2.75 2.25 3.92525 2.25 5.375V13.25C2.25 14.9069 3.59315 16.25 5.25 16.25H15C15.4142 16.25 15.75 15.9142 15.75 15.5V7.25C15.75 6.83579 15.4142 6.5 15 6.5H12.75V3.5C12.75 3.08579 12.4142 2.75 12 2.75H4.875ZM11.25 6.5V4.25H4.875C4.25368 4.25 3.75 4.75368 3.75 5.375C3.75 5.99632 4.25368 6.5 4.875 6.5H11.25ZM11.625 12.3125C12.1428 12.3125 12.5625 11.8928 12.5625 11.375C12.5625 10.8572 12.1428 10.4375 11.625 10.4375C11.1072 10.4375 10.6875 10.8572 10.6875 11.375C10.6875 11.8928 11.1072 12.3125 11.625 12.3125Z" fill="white"/>
</g>
</svg>
