<svg fill="none" xmlns="http://www.w3.org/2000/svg" viewBox="1.48 1.48 15.03 13.52"> <path fill-rule="evenodd" clip-rule="evenodd" d="M7.05575 2.59334C7.92398 1.10496 10.0745 1.10495 10.9428 2.59334L16.2062 11.6164C17.0812 13.1164 15.9992 15.0001 14.2627 15.0001H3.73581C1.99928 15.0001 0.91732 13.1164 1.79231 11.6164L7.05575 2.59334ZM9 6.00012C9.41421 6.00012 9.75 6.33591 9.75 6.75012V9.00012C9.75 9.41434 9.41421 9.75012 9 9.75012C8.58579 9.75012 8.25 9.41434 8.25 9.00012V6.75012C8.25 6.33591 8.58579 6.00012 9 6.00012ZM8.0625 11.2501C8.0625 10.7324 8.48223 10.3126 9 10.3126C9.51777 10.3126 9.9375 10.7324 9.9375 11.2501C9.9375 11.7679 9.51777 12.1876 9 12.1876C8.48223 12.1876 8.0625 11.7679 8.0625 11.2501Z" fill="#D92D20"></path> </svg>