
<svg xmlns="http://www.w3.org/2000/svg" viewBox="0 0 95.67 87.55000000000001" x="20px" y="20px"><title>JappanesseAsset 124</title><g data-name="Layer 2"><g data-name="Layer 1"><path d="M47.83,70a25.07,25.07,0,0,1-17.55-7.12,3,3,0,1,1,4.18-4.3,19.21,19.21,0,0,0,26.75,0,3,3,0,0,1,4.18,4.3A25.08,25.08,0,0,1,47.83,70ZM25.24,40.87a11.11,11.11,0,1,1-11.11-11.1A11.11,11.11,0,0,1,25.24,40.87Zm-11.9-2.38a3.17,3.17,0,1,0-3.17,3.18A3.17,3.17,0,0,0,13.34,38.49Zm1.59,8.33A1.19,1.19,0,1,0,13.74,48,1.19,1.19,0,0,0,14.93,46.82Zm5.55-4.36a1.59,1.59,0,1,0-1.59,1.59A1.59,1.59,0,0,0,20.48,42.46Zm72.16-1.59a11.11,11.11,0,1,1-11.11-11.1A11.11,11.11,0,0,1,92.64,40.87Zm-11.9-2.38a3.17,3.17,0,1,0-3.17,3.18A3.17,3.17,0,0,0,80.74,38.49Zm1.59,8.33A1.19,1.19,0,1,0,81.14,48,1.19,1.19,0,0,0,82.33,46.82Zm5.55-4.36a1.59,1.59,0,1,0-1.59,1.59A1.59,1.59,0,0,0,87.88,42.46Zm-7.8-25.15c11.07-1.68,15.59-3.89,15.59-7.64S91.15,3.72,80.08,2A224.94,224.94,0,0,0,47.83,0,224.79,224.79,0,0,0,15.59,2C4.52,3.72,0,5.93,0,9.67s4.52,6,15.59,7.64a224.79,224.79,0,0,0,32.24,2A224.94,224.94,0,0,0,80.08,17.31ZM47.83,3.67c22.11,0,35.68,2.25,40.59,4-4.91,1.76-18.48,4-40.59,4s-35.67-2.25-40.58-4C12.16,5.92,25.73,3.67,47.83,3.67Z"/></g></g><text x="0" y="85.04" fill="#ffffff" font-size="5px" font-weight="bold" font-family="'Helvetica Neue', Helvetica, Arial-Unicode, Arial, Sans-serif"></text><text x="0" y="90.04" fill="#000000" font-size="5px" font-weight="bold" font-family="'Helvetica Neue', Helvetica, Arial-Unicode, Arial, Sans-serif"></text></svg>