<svg width="820" height="817" viewBox="0 0 820 817" fill="none" xmlns="http://www.w3.org/2000/svg">
<path d="M327.496 60.003C327.225 58.907 327.914 57.8038 329.017 57.5668L366.767 49.4611C394.279 43.5536 422.728 43.5181 450.255 49.3572L489.017 57.5793C490.108 57.8107 490.798 58.8897 490.552 59.9774L443.426 268.118C443.188 269.168 442.162 269.842 441.104 269.642L429.819 267.509C417.548 265.19 404.952 265.19 392.681 267.509L381.358 269.649C380.315 269.846 379.3 269.194 379.045 268.164L327.496 60.003Z" fill="#16131C"/>
<path d="M327.981 59.8828C327.778 59.0608 328.294 58.2334 329.122 58.0557L366.872 49.95C394.315 44.0572 422.693 44.0219 450.152 49.8463L488.913 58.0684C489.731 58.242 490.249 59.0512 490.065 59.867L442.938 268.008C442.76 268.795 441.99 269.3 441.197 269.15L429.912 267.018C417.58 264.687 404.92 264.687 392.588 267.018L381.265 269.158C380.483 269.305 379.722 268.817 379.531 268.044L327.981 59.8828Z" stroke="white" stroke-opacity="0.15"/>
<g filter="url(#filter0_dd_279_177)">
<path d="M331.5 60.5C343.5 58 378.5 48.5 408.5 48.5C438.5 48.5 472.5 58 487.5 61" stroke="url(#paint0_linear_279_177)" stroke-width="5" stroke-linecap="square" shape-rendering="crispEdges"/>
</g>
<path d="M495.761 61.8908C496.023 60.7925 497.141 60.1282 498.231 60.4239L535.493 70.5358C562.65 77.9055 587.946 90.923 609.729 108.738L640.401 133.823C641.264 134.529 641.383 135.804 640.665 136.658L503.32 299.997C502.627 300.821 501.406 300.949 500.558 300.286L491.508 293.215C481.668 285.526 470.475 279.748 458.507 276.18L447.464 272.888C446.447 272.585 445.844 271.541 446.09 270.508L495.761 61.8908Z" fill="#16131C"/>
<path d="M496.248 62.0066C496.444 61.1829 497.282 60.6847 498.1 60.9064L535.362 71.0183C562.451 78.3696 587.684 91.3546 609.412 109.125L640.084 134.21C640.732 134.739 640.821 135.696 640.283 136.336L502.937 299.675C502.418 300.293 501.502 300.389 500.866 299.892L491.816 292.821C481.927 285.093 470.677 279.287 458.65 275.701L447.607 272.409C446.844 272.182 446.392 271.398 446.576 270.624L496.248 62.0066Z" stroke="white" stroke-opacity="0.15"/>
<g filter="url(#filter1_dd_279_177)">
<path d="M499.091 64.169C510.901 67.4516 546.36 75.0635 573.018 88.8237C599.676 102.584 625.531 126.621 637.484 136.167" stroke="url(#paint1_linear_279_177)" stroke-width="5" stroke-linecap="square" shape-rendering="crispEdges"/>
</g>
<path d="M741.976 278.447C743.023 278.025 744.212 278.551 744.602 279.611L757.941 315.843C767.662 342.25 771.702 370.411 769.796 398.486L767.112 438.019C767.036 439.131 766.065 439.967 764.954 439.877L552.252 422.518C551.179 422.43 550.367 421.509 550.416 420.434L550.939 408.961C551.508 396.486 549.735 384.015 545.712 372.192L541.999 361.283C541.658 360.279 542.16 359.182 543.144 358.785L741.976 278.447Z" fill="#16131C"/>
<path d="M742.164 278.911C742.949 278.594 743.841 278.989 744.133 279.784L757.472 316.016C767.169 342.357 771.198 370.448 769.297 398.452L766.613 437.985C766.556 438.819 765.828 439.446 764.994 439.378L552.292 422.02C551.488 421.954 550.879 421.263 550.916 420.456L551.439 408.983C552.01 396.446 550.228 383.913 546.185 372.031L542.473 361.122C542.216 360.369 542.593 359.547 543.331 359.248L742.164 278.911Z" stroke="white" stroke-opacity="0.15"/>
<g filter="url(#filter2_dd_279_177)">
<path d="M742.048 282.482C746.212 294.01 760.544 327.324 764.767 357.026C768.99 386.727 764.37 421.726 763.512 436.999" stroke="url(#paint2_linear_279_177)" stroke-width="5" stroke-linecap="square" shape-rendering="crispEdges"/>
</g>
<path d="M764.434 446.739C765.558 446.844 766.372 447.858 766.232 448.979L761.432 487.289C757.933 515.21 748.582 542.079 733.99 566.139L713.442 600.018C712.864 600.972 711.617 601.268 710.672 600.677L529.726 487.53C528.813 486.959 528.516 485.768 529.054 484.836L534.79 474.886C541.026 464.067 545.181 452.175 547.04 439.826L548.755 428.431C548.913 427.382 549.863 426.639 550.919 426.738L764.434 446.739Z" fill="#16131C"/>
<path d="M764.387 447.237C765.23 447.316 765.841 448.076 765.736 448.916L760.936 487.227C757.446 515.078 748.118 541.879 733.562 565.879L713.015 599.759C712.581 600.474 711.646 600.696 710.937 600.253L529.991 487.106C529.307 486.678 529.084 485.785 529.487 485.085L535.223 475.135C541.491 464.262 545.667 452.311 547.534 439.901L549.249 428.506C549.368 427.719 550.08 427.161 550.873 427.236L764.387 447.237Z" stroke="white" stroke-opacity="0.15"/>
<g filter="url(#filter3_dd_279_177)">
<path d="M762.644 450.355C761.046 462.508 758.469 498.682 748.573 527.003C738.677 555.324 718.493 584.287 710.713 597.458" stroke="url(#paint3_linear_279_177)" stroke-width="5" stroke-linecap="square" shape-rendering="crispEdges"/>
</g>
<path d="M701.066 614.441C701.982 615.101 702.17 616.388 701.482 617.283L677.943 647.888C660.787 670.192 639.118 688.626 614.351 701.984L579.476 720.793C578.495 721.323 577.27 720.947 576.754 719.958L478.02 530.763C477.522 529.808 477.868 528.631 478.804 528.099L488.789 522.423C499.646 516.252 509.25 508.102 517.106 498.395L524.355 489.438C525.023 488.613 526.218 488.453 527.079 489.073L701.066 614.441Z" fill="#16131C"/>
<path d="M700.774 614.847C701.461 615.342 701.602 616.307 701.086 616.978L677.547 647.583C660.434 669.832 638.819 688.22 614.114 701.544L579.239 720.353C578.503 720.75 577.584 720.469 577.197 719.727L478.463 530.531C478.089 529.816 478.35 528.932 479.052 528.533L489.036 522.858C499.947 516.656 509.6 508.465 517.495 498.71L524.744 489.752C525.245 489.133 526.141 489.014 526.787 489.479L700.774 614.847Z" stroke="white" stroke-opacity="0.15"/>
<g filter="url(#filter4_dd_279_177)">
<path d="M697.691 616.653C690.159 626.323 669.618 656.212 646.744 675.622C623.869 695.032 591.798 709.786 578.42 717.204" stroke="url(#paint4_linear_279_177)" stroke-width="5" stroke-linecap="square" shape-rendering="crispEdges"/>
</g>
<path d="M569.147 725.279C569.645 726.291 569.207 727.516 568.179 727.983L533.025 743.947C507.403 755.582 479.615 761.68 451.476 761.841L411.853 762.069C410.738 762.075 409.833 761.168 409.842 760.053L411.528 546.651C411.536 545.574 412.395 544.697 413.472 544.667L424.952 544.346C437.435 543.996 449.742 541.312 461.237 536.431L471.844 531.928C472.82 531.513 473.951 531.933 474.42 532.885L569.147 725.279Z" fill="#16131C"/>
<path d="M568.698 725.499C569.072 726.259 568.744 727.178 567.973 727.528L532.818 743.492C507.261 755.098 479.542 761.18 451.473 761.341L411.85 761.569C411.014 761.574 410.335 760.893 410.342 760.057L412.028 546.654C412.034 545.847 412.679 545.19 413.486 545.167L424.966 544.846C437.511 544.494 449.88 541.796 461.432 536.891L472.039 532.388C472.772 532.077 473.619 532.392 473.971 533.106L568.698 725.499Z" stroke="white" stroke-opacity="0.15"/>
<g filter="url(#filter5_dd_279_177)">
<path d="M565.129 725.646C553.937 730.646 521.766 747.387 492.455 753.78C463.144 760.174 427.901 758.138 412.606 758.403" stroke="url(#paint5_linear_279_177)" stroke-width="5" stroke-linecap="square" shape-rendering="crispEdges"/>
</g>
<path d="M54.8638 440.607C53.7405 440.721 52.7453 439.884 52.6659 438.758L49.9533 400.243C47.9763 372.173 51.9449 344.002 61.5997 317.571L75.1947 280.352C75.5774 279.305 76.7429 278.773 77.7851 279.17L277.222 355.118C278.229 355.501 278.751 356.612 278.404 357.631L274.705 368.504C270.682 380.326 268.909 392.798 269.478 405.272L270.003 416.784C270.052 417.844 269.264 418.757 268.208 418.865L54.8638 440.607Z" fill="#16131C"/>
<path d="M54.8131 440.109C53.9707 440.195 53.2242 439.567 53.1647 438.722L50.4521 400.208C48.48 372.208 52.4387 344.108 62.0693 317.742L75.6644 280.524C75.9514 279.738 76.8255 279.339 77.6072 279.637L277.045 355.585C277.799 355.873 278.191 356.706 277.931 357.47L274.231 368.343C270.188 380.224 268.407 392.758 268.979 405.295L269.504 416.807C269.54 417.602 268.949 418.286 268.157 418.367L54.8131 440.109Z" stroke="white" stroke-opacity="0.15"/>
<g filter="url(#filter6_dd_279_177)">
<path d="M55.9193 436.713C55.1329 424.48 50.653 388.492 54.8748 358.79C59.0967 329.089 73.2869 296.764 78.368 282.335" stroke="url(#paint6_linear_279_177)" stroke-width="5" stroke-linecap="square" shape-rendering="crispEdges"/>
</g>
<path d="M113.264 600.408C112.321 601.029 111.052 600.747 110.461 599.785L90.2474 566.889C75.5157 542.914 66.009 516.1 62.3487 488.2L57.1945 448.913C57.0494 447.807 57.8368 446.796 58.9444 446.666L270.899 421.795C271.969 421.669 272.945 422.413 273.109 423.477L274.856 434.828C276.755 447.171 280.95 459.048 287.222 469.846L293.01 479.811C293.543 480.728 293.267 481.902 292.381 482.486L113.264 600.408Z" fill="#16131C"/>
<path d="M112.989 599.991C112.282 600.457 111.33 600.245 110.887 599.523L90.6734 566.627C75.9786 542.712 66.4956 515.965 62.8445 488.135L57.6903 448.848C57.5815 448.018 58.172 447.26 59.0027 447.163L270.957 422.291C271.759 422.197 272.492 422.755 272.615 423.553L274.362 434.904C276.271 447.308 280.486 459.245 286.79 470.098L292.578 480.062C292.978 480.75 292.771 481.63 292.106 482.068L112.989 599.991Z" stroke="white" stroke-opacity="0.15"/>
<g filter="url(#filter7_dd_279_177)">
<path d="M112.4 596.468C106.047 585.985 85.4341 556.146 75.4445 527.858C65.4548 499.57 63.0911 464.347 60.9251 449.204" stroke="url(#paint7_linear_279_177)" stroke-width="5" stroke-linecap="square" shape-rendering="crispEdges"/>
</g>
<path d="M239.794 718.926C239.251 719.916 237.997 720.261 237.024 719.688L203.759 700.089C179.515 685.804 158.558 666.565 142.258 643.627L119.305 611.328C118.659 610.419 118.882 609.157 119.799 608.524L295.427 487.287C296.313 486.676 297.525 486.875 298.168 487.739L305.027 496.95C312.485 506.966 321.754 515.496 332.353 522.1L342.134 528.193C343.034 528.754 343.34 529.921 342.83 530.852L239.794 718.926Z" fill="#16131C"/>
<path d="M239.355 718.686C238.948 719.428 238.008 719.687 237.278 719.258L204.013 699.658C179.83 685.409 158.925 666.218 142.666 643.337L119.713 611.038C119.228 610.357 119.395 609.41 120.083 608.935L295.711 487.699C296.376 487.24 297.284 487.39 297.767 488.037L304.626 497.249C312.122 507.315 321.437 515.888 332.089 522.524L341.869 528.617C342.545 529.038 342.774 529.913 342.391 530.611L239.355 718.686Z" stroke="white" stroke-opacity="0.15"/>
<g filter="url(#filter8_dd_279_177)">
<path d="M237.184 715.849C226.662 709.562 194.475 692.85 172.401 672.534C150.327 652.218 131.743 622.204 122.738 609.838" stroke="url(#paint8_linear_279_177)" stroke-width="5" stroke-linecap="square" shape-rendering="crispEdges"/>
</g>
<path d="M401.518 762.377C401.48 763.505 400.516 764.378 399.389 764.305L360.861 761.788C332.782 759.954 305.405 752.215 280.521 739.077L245.481 720.578C244.495 720.057 244.125 718.83 244.659 717.851L346.86 530.506C347.376 529.561 348.547 529.193 349.51 529.675L359.783 534.809C370.953 540.393 383.07 543.834 395.508 544.956L406.984 545.991C408.041 546.087 408.84 546.991 408.804 548.051L401.518 762.377Z" fill="#16131C"/>
<path d="M401.018 762.36C400.99 763.206 400.267 763.861 399.422 763.806L360.894 761.289C332.885 759.46 305.576 751.74 280.754 738.635L245.714 720.136C244.975 719.745 244.697 718.825 245.098 718.091L347.299 530.745C347.686 530.036 348.564 529.761 349.286 530.122L359.559 535.257C370.785 540.868 382.963 544.327 395.463 545.454L406.94 546.489C407.732 546.561 408.331 547.239 408.304 548.034L401.018 762.36Z" stroke="white" stroke-opacity="0.15"/>
<g filter="url(#filter9_dd_279_177)">
<path d="M397.802 760.805C385.576 759.931 349.312 759.507 320.453 751.31C291.595 743.114 261.484 724.686 247.874 717.702" stroke="url(#paint9_linear_279_177)" stroke-width="5" stroke-linecap="square" shape-rendering="crispEdges"/>
</g>
<path d="M645.525 140.562C646.262 139.706 647.56 139.63 648.392 140.393L676.853 166.483C697.596 185.497 714.093 208.675 725.266 234.502L740.998 270.868C741.441 271.892 740.961 273.08 739.931 273.509L542.928 355.563C541.934 355.977 540.791 355.53 540.341 354.552L535.548 344.115C530.336 332.767 523.044 322.495 514.05 313.832L505.751 305.837C504.987 305.101 504.931 303.896 505.623 303.092L645.525 140.562Z" fill="#16131C"/>
<path d="M645.904 140.888C646.456 140.247 647.43 140.189 648.054 140.761L676.515 166.851C697.206 185.818 713.662 208.938 724.807 234.7L740.539 271.067C740.871 271.834 740.511 272.725 739.739 273.047L542.736 355.102C541.99 355.412 541.133 355.077 540.796 354.343L536.002 343.906C530.764 332.501 523.436 322.179 514.397 313.472L506.098 305.477C505.525 304.925 505.483 304.021 506.002 303.418L645.904 140.888Z" stroke="white" stroke-opacity="0.15"/>
<g filter="url(#filter10_dd_279_177)">
<path d="M647.437 144.115C656.422 152.453 684.429 175.494 701.794 199.957C719.16 224.42 731.094 257.644 737.331 271.612" stroke="url(#paint10_linear_279_177)" stroke-width="5" stroke-linecap="square" shape-rendering="crispEdges"/>
</g>
<path d="M177.074 137.183C176.33 136.333 176.436 135.037 177.308 134.32L207.135 109.804C228.874 91.9354 254.138 78.8557 281.277 71.4192L319.492 60.9476C320.568 60.6529 321.677 61.2948 321.957 62.3743L375.543 268.946C375.813 269.988 375.21 271.057 374.179 271.365L363.172 274.646C351.205 278.213 340.011 283.991 330.171 291.679L321.091 298.774C320.254 299.427 319.054 299.314 318.355 298.515L177.074 137.183Z" fill="#16131C"/>
<path d="M177.45 136.853C176.892 136.216 176.972 135.244 177.626 134.706L207.453 110.19C229.137 92.3664 254.338 79.3193 281.409 71.9014L319.624 61.4298C320.431 61.2088 321.263 61.6902 321.473 62.4999L375.059 269.072C375.262 269.853 374.81 270.655 374.036 270.886L363.029 274.167C351.002 277.752 339.753 283.558 329.863 291.285L320.783 298.38C320.156 298.87 319.255 298.785 318.731 298.186L177.45 136.853Z" stroke="white" stroke-opacity="0.15"/>
<g filter="url(#filter11_dd_279_177)">
<path d="M180.86 135.788C190.377 128.063 217.121 103.568 243.779 89.8085C270.438 76.049 305.008 68.8968 319.713 64.6829" stroke="url(#paint11_linear_279_177)" stroke-width="5" stroke-linecap="square" shape-rendering="crispEdges"/>
</g>
<path d="M78.4136 274.534C77.3628 274.121 76.8621 272.921 77.3078 271.883L92.5495 236.409C103.658 210.555 120.097 187.336 140.792 168.27L169.934 141.422C170.754 140.667 172.034 140.728 172.779 141.558L315.224 300.47C315.942 301.271 315.897 302.498 315.122 303.245L306.851 311.213C297.857 319.876 290.565 330.148 285.353 341.496L280.544 351.968C280.101 352.932 278.982 353.383 277.994 352.994L78.4136 274.534Z" fill="#16131C"/>
<path d="M78.5965 274.069C77.8085 273.759 77.4329 272.859 77.7672 272.081L93.0089 236.607C104.09 210.817 120.488 187.657 141.131 168.638L170.273 141.79C170.888 141.223 171.848 141.269 172.406 141.892L314.851 300.803C315.39 301.405 315.357 302.325 314.775 302.885L306.504 310.853C297.465 319.56 290.137 329.882 284.899 341.287L280.089 351.759C279.757 352.482 278.918 352.82 278.177 352.529L78.5965 274.069Z" stroke="white" stroke-opacity="0.15"/>
<g filter="url(#filter12_dd_279_177)">
<path d="M81.1366 271.557C86.0443 260.325 98.5576 226.285 115.923 201.822C133.289 177.36 160.716 155.134 171.846 144.639" stroke="url(#paint12_linear_279_177)" stroke-width="5" stroke-linecap="square" shape-rendering="crispEdges"/>
</g>
<defs>
<filter id="filter0_dd_279_177" x="278.543" y="0" width="261.899" height="117.942" filterUnits="userSpaceOnUse" color-interpolation-filters="sRGB">
<feFlood flood-opacity="0" result="BackgroundImageFix"/>
<feColorMatrix in="SourceAlpha" type="matrix" values="0 0 0 0 0 0 0 0 0 0 0 0 0 0 0 0 0 0 127 0" result="hardAlpha"/>
<feOffset dy="4"/>
<feGaussianBlur stdDeviation="12.5"/>
<feComposite in2="hardAlpha" operator="out"/>
<feColorMatrix type="matrix" values="0 0 0 0 0.537255 0 0 0 0 0.384314 0 0 0 0 0.972549 0 0 0 1 0"/>
<feBlend mode="normal" in2="BackgroundImageFix" result="effect1_dropShadow_279_177"/>
<feColorMatrix in="SourceAlpha" type="matrix" values="0 0 0 0 0 0 0 0 0 0 0 0 0 0 0 0 0 0 127 0" result="hardAlpha"/>
<feOffset dy="4"/>
<feGaussianBlur stdDeviation="25"/>
<feComposite in2="hardAlpha" operator="out"/>
<feColorMatrix type="matrix" values="0 0 0 0 0.537255 0 0 0 0 0.384314 0 0 0 0 0.972549 0 0 0 1 0"/>
<feBlend mode="normal" in2="effect1_dropShadow_279_177" result="effect2_dropShadow_279_177"/>
<feBlend mode="normal" in="SourceGraphic" in2="effect2_dropShadow_279_177" result="shape"/>
</filter>
<filter id="filter1_dd_279_177" x="446.013" y="15.0909" width="244.985" height="178.589" filterUnits="userSpaceOnUse" color-interpolation-filters="sRGB">
<feFlood flood-opacity="0" result="BackgroundImageFix"/>
<feColorMatrix in="SourceAlpha" type="matrix" values="0 0 0 0 0 0 0 0 0 0 0 0 0 0 0 0 0 0 127 0" result="hardAlpha"/>
<feOffset dy="4"/>
<feGaussianBlur stdDeviation="12.5"/>
<feComposite in2="hardAlpha" operator="out"/>
<feColorMatrix type="matrix" values="0 0 0 0 0.984314 0 0 0 0 0.337255 0 0 0 0 0.027451 0 0 0 1 0"/>
<feBlend mode="normal" in2="BackgroundImageFix" result="effect1_dropShadow_279_177"/>
<feColorMatrix in="SourceAlpha" type="matrix" values="0 0 0 0 0 0 0 0 0 0 0 0 0 0 0 0 0 0 127 0" result="hardAlpha"/>
<feOffset dy="4"/>
<feGaussianBlur stdDeviation="25"/>
<feComposite in2="hardAlpha" operator="out"/>
<feColorMatrix type="matrix" values="0 0 0 0 0.984314 0 0 0 0 0.337255 0 0 0 0 0.027451 0 0 0 1 0"/>
<feBlend mode="normal" in2="effect1_dropShadow_279_177" result="effect2_dropShadow_279_177"/>
<feBlend mode="normal" in="SourceGraphic" in2="effect2_dropShadow_279_177" result="shape"/>
</filter>
<filter id="filter2_dd_279_177" x="688.847" y="233.281" width="130.171" height="260.354" filterUnits="userSpaceOnUse" color-interpolation-filters="sRGB">
<feFlood flood-opacity="0" result="BackgroundImageFix"/>
<feColorMatrix in="SourceAlpha" type="matrix" values="0 0 0 0 0 0 0 0 0 0 0 0 0 0 0 0 0 0 127 0" result="hardAlpha"/>
<feOffset dy="4"/>
<feGaussianBlur stdDeviation="12.5"/>
<feComposite in2="hardAlpha" operator="out"/>
<feColorMatrix type="matrix" values="0 0 0 0 0.537255 0 0 0 0 0.384314 0 0 0 0 0.972549 0 0 0 1 0"/>
<feBlend mode="normal" in2="BackgroundImageFix" result="effect1_dropShadow_279_177"/>
<feColorMatrix in="SourceAlpha" type="matrix" values="0 0 0 0 0 0 0 0 0 0 0 0 0 0 0 0 0 0 127 0" result="hardAlpha"/>
<feOffset dy="4"/>
<feGaussianBlur stdDeviation="25"/>
<feComposite in2="hardAlpha" operator="out"/>
<feColorMatrix type="matrix" values="0 0 0 0 0.537255 0 0 0 0 0.384314 0 0 0 0 0.972549 0 0 0 1 0"/>
<feBlend mode="normal" in2="effect1_dropShadow_279_177" result="effect2_dropShadow_279_177"/>
<feBlend mode="normal" in="SourceGraphic" in2="effect2_dropShadow_279_177" result="shape"/>
</filter>
<filter id="filter3_dd_279_177" x="657.289" y="401.55" width="158.159" height="253.332" filterUnits="userSpaceOnUse" color-interpolation-filters="sRGB">
<feFlood flood-opacity="0" result="BackgroundImageFix"/>
<feColorMatrix in="SourceAlpha" type="matrix" values="0 0 0 0 0 0 0 0 0 0 0 0 0 0 0 0 0 0 127 0" result="hardAlpha"/>
<feOffset dy="4"/>
<feGaussianBlur stdDeviation="12.5"/>
<feComposite in2="hardAlpha" operator="out"/>
<feColorMatrix type="matrix" values="0 0 0 0 0.537255 0 0 0 0 0.384314 0 0 0 0 0.972549 0 0 0 1 0"/>
<feBlend mode="normal" in2="BackgroundImageFix" result="effect1_dropShadow_279_177"/>
<feColorMatrix in="SourceAlpha" type="matrix" values="0 0 0 0 0 0 0 0 0 0 0 0 0 0 0 0 0 0 127 0" result="hardAlpha"/>
<feOffset dy="4"/>
<feGaussianBlur stdDeviation="25"/>
<feComposite in2="hardAlpha" operator="out"/>
<feColorMatrix type="matrix" values="0 0 0 0 0.537255 0 0 0 0 0.384314 0 0 0 0 0.972549 0 0 0 1 0"/>
<feBlend mode="normal" in2="effect1_dropShadow_279_177" result="effect2_dropShadow_279_177"/>
<feBlend mode="normal" in="SourceGraphic" in2="effect2_dropShadow_279_177" result="shape"/>
</filter>
<filter id="filter4_dd_279_177" x="525.021" y="567.144" width="226.179" height="207.458" filterUnits="userSpaceOnUse" color-interpolation-filters="sRGB">
<feFlood flood-opacity="0" result="BackgroundImageFix"/>
<feColorMatrix in="SourceAlpha" type="matrix" values="0 0 0 0 0 0 0 0 0 0 0 0 0 0 0 0 0 0 127 0" result="hardAlpha"/>
<feOffset dy="4"/>
<feGaussianBlur stdDeviation="12.5"/>
<feComposite in2="hardAlpha" operator="out"/>
<feColorMatrix type="matrix" values="0 0 0 0 0.537255 0 0 0 0 0.384314 0 0 0 0 0.972549 0 0 0 1 0"/>
<feBlend mode="normal" in2="BackgroundImageFix" result="effect1_dropShadow_279_177"/>
<feColorMatrix in="SourceAlpha" type="matrix" values="0 0 0 0 0 0 0 0 0 0 0 0 0 0 0 0 0 0 127 0" result="hardAlpha"/>
<feOffset dy="4"/>
<feGaussianBlur stdDeviation="25"/>
<feComposite in2="hardAlpha" operator="out"/>
<feColorMatrix type="matrix" values="0 0 0 0 0.537255 0 0 0 0 0.384314 0 0 0 0 0.972549 0 0 0 1 0"/>
<feBlend mode="normal" in2="effect1_dropShadow_279_177" result="effect2_dropShadow_279_177"/>
<feBlend mode="normal" in="SourceGraphic" in2="effect2_dropShadow_279_177" result="shape"/>
</filter>
<filter id="filter5_dd_279_177" x="360.063" y="676.344" width="258.368" height="138.669" filterUnits="userSpaceOnUse" color-interpolation-filters="sRGB">
<feFlood flood-opacity="0" result="BackgroundImageFix"/>
<feColorMatrix in="SourceAlpha" type="matrix" values="0 0 0 0 0 0 0 0 0 0 0 0 0 0 0 0 0 0 127 0" result="hardAlpha"/>
<feOffset dy="4"/>
<feGaussianBlur stdDeviation="12.5"/>
<feComposite in2="hardAlpha" operator="out"/>
<feColorMatrix type="matrix" values="0 0 0 0 0.537255 0 0 0 0 0.384314 0 0 0 0 0.972549 0 0 0 1 0"/>
<feBlend mode="normal" in2="BackgroundImageFix" result="effect1_dropShadow_279_177"/>
<feColorMatrix in="SourceAlpha" type="matrix" values="0 0 0 0 0 0 0 0 0 0 0 0 0 0 0 0 0 0 127 0" result="hardAlpha"/>
<feOffset dy="4"/>
<feGaussianBlur stdDeviation="25"/>
<feComposite in2="hardAlpha" operator="out"/>
<feColorMatrix type="matrix" values="0 0 0 0 0.537255 0 0 0 0 0.384314 0 0 0 0 0.972549 0 0 0 1 0"/>
<feBlend mode="normal" in2="effect1_dropShadow_279_177" result="effect2_dropShadow_279_177"/>
<feBlend mode="normal" in="SourceGraphic" in2="effect2_dropShadow_279_177" result="shape"/>
</filter>
<filter id="filter6_dd_279_177" x="0.590179" y="233.147" width="130.966" height="260.221" filterUnits="userSpaceOnUse" color-interpolation-filters="sRGB">
<feFlood flood-opacity="0" result="BackgroundImageFix"/>
<feColorMatrix in="SourceAlpha" type="matrix" values="0 0 0 0 0 0 0 0 0 0 0 0 0 0 0 0 0 0 127 0" result="hardAlpha"/>
<feOffset dy="4"/>
<feGaussianBlur stdDeviation="12.5"/>
<feComposite in2="hardAlpha" operator="out"/>
<feColorMatrix type="matrix" values="0 0 0 0 0.984314 0 0 0 0 0.337255 0 0 0 0 0.027451 0 0 0 1 0"/>
<feBlend mode="normal" in2="BackgroundImageFix" result="effect1_dropShadow_279_177"/>
<feColorMatrix in="SourceAlpha" type="matrix" values="0 0 0 0 0 0 0 0 0 0 0 0 0 0 0 0 0 0 127 0" result="hardAlpha"/>
<feOffset dy="4"/>
<feGaussianBlur stdDeviation="25"/>
<feComposite in2="hardAlpha" operator="out"/>
<feColorMatrix type="matrix" values="0 0 0 0 0.984314 0 0 0 0 0.337255 0 0 0 0 0.027451 0 0 0 1 0"/>
<feBlend mode="normal" in2="effect1_dropShadow_279_177" result="effect2_dropShadow_279_177"/>
<feBlend mode="normal" in="SourceGraphic" in2="effect2_dropShadow_279_177" result="shape"/>
</filter>
<filter id="filter7_dd_279_177" x="8.09626" y="400.375" width="157.737" height="253.526" filterUnits="userSpaceOnUse" color-interpolation-filters="sRGB">
<feFlood flood-opacity="0" result="BackgroundImageFix"/>
<feColorMatrix in="SourceAlpha" type="matrix" values="0 0 0 0 0 0 0 0 0 0 0 0 0 0 0 0 0 0 127 0" result="hardAlpha"/>
<feOffset dy="4"/>
<feGaussianBlur stdDeviation="12.5"/>
<feComposite in2="hardAlpha" operator="out"/>
<feColorMatrix type="matrix" values="0 0 0 0 0.984314 0 0 0 0 0.337255 0 0 0 0 0.027451 0 0 0 1 0"/>
<feBlend mode="normal" in2="BackgroundImageFix" result="effect1_dropShadow_279_177"/>
<feColorMatrix in="SourceAlpha" type="matrix" values="0 0 0 0 0 0 0 0 0 0 0 0 0 0 0 0 0 0 127 0" result="hardAlpha"/>
<feOffset dy="4"/>
<feGaussianBlur stdDeviation="25"/>
<feComposite in2="hardAlpha" operator="out"/>
<feColorMatrix type="matrix" values="0 0 0 0 0.984314 0 0 0 0 0.337255 0 0 0 0 0.027451 0 0 0 1 0"/>
<feBlend mode="normal" in2="effect1_dropShadow_279_177" result="effect2_dropShadow_279_177"/>
<feBlend mode="normal" in="SourceGraphic" in2="effect2_dropShadow_279_177" result="shape"/>
</filter>
<filter id="filter8_dd_279_177" x="69.2452" y="560.346" width="221.367" height="212.932" filterUnits="userSpaceOnUse" color-interpolation-filters="sRGB">
<feFlood flood-opacity="0" result="BackgroundImageFix"/>
<feColorMatrix in="SourceAlpha" type="matrix" values="0 0 0 0 0 0 0 0 0 0 0 0 0 0 0 0 0 0 127 0" result="hardAlpha"/>
<feOffset dy="4"/>
<feGaussianBlur stdDeviation="12.5"/>
<feComposite in2="hardAlpha" operator="out"/>
<feColorMatrix type="matrix" values="0 0 0 0 0.984314 0 0 0 0 0.337255 0 0 0 0 0.027451 0 0 0 1 0"/>
<feBlend mode="normal" in2="BackgroundImageFix" result="effect1_dropShadow_279_177"/>
<feColorMatrix in="SourceAlpha" type="matrix" values="0 0 0 0 0 0 0 0 0 0 0 0 0 0 0 0 0 0 127 0" result="hardAlpha"/>
<feOffset dy="4"/>
<feGaussianBlur stdDeviation="25"/>
<feComposite in2="hardAlpha" operator="out"/>
<feColorMatrix type="matrix" values="0 0 0 0 0.984314 0 0 0 0 0.337255 0 0 0 0 0.027451 0 0 0 1 0"/>
<feBlend mode="normal" in2="effect1_dropShadow_279_177" result="effect2_dropShadow_279_177"/>
<feBlend mode="normal" in="SourceGraphic" in2="effect2_dropShadow_279_177" result="shape"/>
</filter>
<filter id="filter9_dd_279_177" x="194.509" y="668.336" width="255.965" height="149.141" filterUnits="userSpaceOnUse" color-interpolation-filters="sRGB">
<feFlood flood-opacity="0" result="BackgroundImageFix"/>
<feColorMatrix in="SourceAlpha" type="matrix" values="0 0 0 0 0 0 0 0 0 0 0 0 0 0 0 0 0 0 127 0" result="hardAlpha"/>
<feOffset dy="4"/>
<feGaussianBlur stdDeviation="12.5"/>
<feComposite in2="hardAlpha" operator="out"/>
<feColorMatrix type="matrix" values="0 0 0 0 0.984314 0 0 0 0 0.337255 0 0 0 0 0.027451 0 0 0 1 0"/>
<feBlend mode="normal" in2="BackgroundImageFix" result="effect1_dropShadow_279_177"/>
<feColorMatrix in="SourceAlpha" type="matrix" values="0 0 0 0 0 0 0 0 0 0 0 0 0 0 0 0 0 0 127 0" result="hardAlpha"/>
<feOffset dy="4"/>
<feGaussianBlur stdDeviation="25"/>
<feComposite in2="hardAlpha" operator="out"/>
<feColorMatrix type="matrix" values="0 0 0 0 0.984314 0 0 0 0 0.337255 0 0 0 0 0.027451 0 0 0 1 0"/>
<feBlend mode="normal" in2="effect1_dropShadow_279_177" result="effect2_dropShadow_279_177"/>
<feBlend mode="normal" in="SourceGraphic" in2="effect2_dropShadow_279_177" result="shape"/>
</filter>
<filter id="filter10_dd_279_177" x="593.904" y="94.5817" width="196.728" height="234.332" filterUnits="userSpaceOnUse" color-interpolation-filters="sRGB">
<feFlood flood-opacity="0" result="BackgroundImageFix"/>
<feColorMatrix in="SourceAlpha" type="matrix" values="0 0 0 0 0 0 0 0 0 0 0 0 0 0 0 0 0 0 127 0" result="hardAlpha"/>
<feOffset dy="4"/>
<feGaussianBlur stdDeviation="12.5"/>
<feComposite in2="hardAlpha" operator="out"/>
<feColorMatrix type="matrix" values="0 0 0 0 0.9412 0 0 0 0 0.26696 0 0 0 0 0.2188 0 0 0 1 0"/>
<feBlend mode="normal" in2="BackgroundImageFix" result="effect1_dropShadow_279_177"/>
<feColorMatrix in="SourceAlpha" type="matrix" values="0 0 0 0 0 0 0 0 0 0 0 0 0 0 0 0 0 0 127 0" result="hardAlpha"/>
<feOffset dy="4"/>
<feGaussianBlur stdDeviation="25"/>
<feComposite in2="hardAlpha" operator="out"/>
<feColorMatrix type="matrix" values="0 0 0 0 0.9412 0 0 0 0 0.26696 0 0 0 0 0.2188 0 0 0 1 0"/>
<feBlend mode="normal" in2="effect1_dropShadow_279_177" result="effect2_dropShadow_279_177"/>
<feBlend mode="normal" in="SourceGraphic" in2="effect2_dropShadow_279_177" result="shape"/>
</filter>
<filter id="filter11_dd_279_177" x="127.343" y="15.591" width="245.462" height="177.714" filterUnits="userSpaceOnUse" color-interpolation-filters="sRGB">
<feFlood flood-opacity="0" result="BackgroundImageFix"/>
<feColorMatrix in="SourceAlpha" type="matrix" values="0 0 0 0 0 0 0 0 0 0 0 0 0 0 0 0 0 0 127 0" result="hardAlpha"/>
<feOffset dy="4"/>
<feGaussianBlur stdDeviation="12.5"/>
<feComposite in2="hardAlpha" operator="out"/>
<feColorMatrix type="matrix" values="0 0 0 0 0.996078 0 0 0 0 0.784314 0 0 0 0 0.294118 0 0 0 1 0"/>
<feBlend mode="normal" in2="BackgroundImageFix" result="effect1_dropShadow_279_177"/>
<feColorMatrix in="SourceAlpha" type="matrix" values="0 0 0 0 0 0 0 0 0 0 0 0 0 0 0 0 0 0 127 0" result="hardAlpha"/>
<feOffset dy="4"/>
<feGaussianBlur stdDeviation="25"/>
<feComposite in2="hardAlpha" operator="out"/>
<feColorMatrix type="matrix" values="0 0 0 0 0.996078 0 0 0 0 0.784314 0 0 0 0 0.294118 0 0 0 1 0"/>
<feBlend mode="normal" in2="effect1_dropShadow_279_177" result="effect2_dropShadow_279_177"/>
<feBlend mode="normal" in="SourceGraphic" in2="effect2_dropShadow_279_177" result="shape"/>
</filter>
<filter id="filter12_dd_279_177" x="27.8448" y="95.1051" width="197.535" height="233.744" filterUnits="userSpaceOnUse" color-interpolation-filters="sRGB">
<feFlood flood-opacity="0" result="BackgroundImageFix"/>
<feColorMatrix in="SourceAlpha" type="matrix" values="0 0 0 0 0 0 0 0 0 0 0 0 0 0 0 0 0 0 127 0" result="hardAlpha"/>
<feOffset dy="4"/>
<feGaussianBlur stdDeviation="12.5"/>
<feComposite in2="hardAlpha" operator="out"/>
<feColorMatrix type="matrix" values="0 0 0 0 0.152941 0 0 0 0 0.0941176 0 0 0 0 0.494118 0 0 0 1 0"/>
<feBlend mode="normal" in2="BackgroundImageFix" result="effect1_dropShadow_279_177"/>
<feColorMatrix in="SourceAlpha" type="matrix" values="0 0 0 0 0 0 0 0 0 0 0 0 0 0 0 0 0 0 127 0" result="hardAlpha"/>
<feOffset dy="4"/>
<feGaussianBlur stdDeviation="25"/>
<feComposite in2="hardAlpha" operator="out"/>
<feColorMatrix type="matrix" values="0 0 0 0 0.152941 0 0 0 0 0.0941176 0 0 0 0 0.494118 0 0 0 1 0"/>
<feBlend mode="normal" in2="effect1_dropShadow_279_177" result="effect2_dropShadow_279_177"/>
<feBlend mode="normal" in="SourceGraphic" in2="effect2_dropShadow_279_177" result="shape"/>
</filter>
<linearGradient id="paint0_linear_279_177" x1="409" y1="46.0127" x2="409" y2="60" gradientUnits="userSpaceOnUse">
<stop stop-color="#8962F8"/>
<stop offset="1" stop-color="#8962F8" stop-opacity="0"/>
</linearGradient>
<linearGradient id="paint1_linear_279_177" x1="573.46" y1="89.0646" x2="567.732" y2="100.162" gradientUnits="userSpaceOnUse">
<stop stop-color="#FB5607"/>
<stop offset="1" stop-color="#FB5607" stop-opacity="0"/>
</linearGradient>
<linearGradient id="paint2_linear_279_177" x1="764.827" y1="357.526" x2="752.462" y2="359.283" gradientUnits="userSpaceOnUse">
<stop stop-color="#8962F8"/>
<stop offset="1" stop-color="#8962F8" stop-opacity="0"/>
</linearGradient>
<linearGradient id="paint3_linear_279_177" x1="748.396" y1="527.475" x2="736.606" y2="523.355" gradientUnits="userSpaceOnUse">
<stop stop-color="#8962F8"/>
<stop offset="1" stop-color="#8962F8" stop-opacity="0"/>
</linearGradient>
<linearGradient id="paint4_linear_279_177" x1="646.353" y1="675.939" x2="638.273" y2="666.416" gradientUnits="userSpaceOnUse">
<stop stop-color="#8962F8"/>
<stop offset="1" stop-color="#8962F8" stop-opacity="0"/>
</linearGradient>
<linearGradient id="paint5_linear_279_177" x1="491.961" y1="753.876" x2="489.299" y2="741.675" gradientUnits="userSpaceOnUse">
<stop stop-color="#8962F8"/>
<stop offset="1" stop-color="#8962F8" stop-opacity="0"/>
</linearGradient>
<linearGradient id="paint6_linear_279_177" x1="54.9568" y1="358.294" x2="67.3213" y2="360.051" gradientUnits="userSpaceOnUse">
<stop stop-color="#FB5607"/>
<stop offset="1" stop-color="#FB5607" stop-opacity="0"/>
</linearGradient>
<linearGradient id="paint7_linear_279_177" x1="75.2876" y1="527.379" x2="87.0636" y2="523.221" gradientUnits="userSpaceOnUse">
<stop stop-color="#FB5607"/>
<stop offset="1" stop-color="#FB5607" stop-opacity="0"/>
</linearGradient>
<linearGradient id="paint8_linear_279_177" x1="172.039" y1="672.185" x2="180.496" y2="662.996" gradientUnits="userSpaceOnUse">
<stop stop-color="#FB5607"/>
<stop offset="1" stop-color="#FB5607" stop-opacity="0"/>
</linearGradient>
<linearGradient id="paint9_linear_279_177" x1="319.972" y1="751.162" x2="323.385" y2="739.148" gradientUnits="userSpaceOnUse">
<stop stop-color="#FB5607"/>
<stop offset="1" stop-color="#FB5607" stop-opacity="0"/>
</linearGradient>
<linearGradient id="paint10_linear_279_177" x1="702.076" y1="200.374" x2="691.893" y2="207.603" gradientUnits="userSpaceOnUse">
<stop stop-color="#F04438"/>
<stop offset="1" stop-color="#F04438" stop-opacity="0"/>
</linearGradient>
<linearGradient id="paint11_linear_279_177" x1="244.232" y1="89.5878" x2="249.96" y2="100.685" gradientUnits="userSpaceOnUse">
<stop stop-color="#FEC84B"/>
<stop offset="1" stop-color="#FEC84B" stop-opacity="0"/>
</linearGradient>
<linearGradient id="paint12_linear_279_177" x1="116.224" y1="201.419" x2="126.407" y2="208.648" gradientUnits="userSpaceOnUse">
<stop stop-color="#27187E"/>
<stop offset="1" stop-color="#8962F8" stop-opacity="0"/>
</linearGradient>
</defs>
</svg>
