<svg width="26" height="26" viewBox="0 0 26 26" fill="none" xmlns="http://www.w3.org/2000/svg">
<g id="Group 1">
<ellipse id="Ellipse 3" cx="0.348072" cy="0.345426" rx="0.348072" ry="0.345426" transform="matrix(0.864926 -0.501899 0.498084 0.867129 6.35107 18.9536)" fill="#FFBE0B"/>
<ellipse id="Ellipse 12" cx="0.348072" cy="0.345426" rx="0.348072" ry="0.345426" transform="matrix(-0.864926 0.501899 0.498084 0.867129 18.7114 9.86407)" fill="#FFBE0B"/>
<ellipse id="Ellipse 4" cx="0.348072" cy="0.345426" rx="0.348072" ry="0.345426" transform="matrix(0.864926 -0.501899 0.498084 0.867129 6.67773 16.4476)" fill="#FFBE0B"/>
<ellipse id="Ellipse 13" cx="0.348072" cy="0.345426" rx="0.348072" ry="0.345426" transform="matrix(-0.864926 0.501899 0.498084 0.867129 19.5713 7.44806)" fill="#FFBE0B"/>
<ellipse id="Ellipse 5" cx="0.348072" cy="0.345426" rx="0.348072" ry="0.345426" transform="matrix(0.864926 -0.501899 0.498084 0.867129 4.21729 15.2394)" fill="#FFBE0B"/>
<ellipse id="Ellipse 14" cx="0.348072" cy="0.345426" rx="0.348072" ry="0.345426" transform="matrix(-0.864926 0.501899 0.498084 0.867129 17.4038 7.58765)" fill="#FFBE0B"/>
<ellipse id="Ellipse 6" cx="0.348072" cy="0.345426" rx="0.348072" ry="0.345426" transform="matrix(0.864926 -0.501899 0.498084 0.867129 5.80029 13.5223)" fill="#FFBE0B"/>
<ellipse id="Ellipse 21" cx="0.348072" cy="0.345426" rx="0.348072" ry="0.345426" transform="matrix(0.864926 -0.501899 -0.498084 -0.867129 9.82617 19.413)" fill="#FFBE0B"/>
<ellipse id="Ellipse 15" cx="0.348072" cy="0.345426" rx="0.348072" ry="0.345426" transform="matrix(-0.864926 0.501899 0.498084 0.867129 16.8188 4.89197)" fill="#FFBE0B"/>
<ellipse id="Ellipse 22" cx="0.348072" cy="0.345426" rx="0.348072" ry="0.345426" transform="matrix(-0.864926 0.501899 -0.498084 -0.867129 22.2725 12.9893)" fill="#FFBE0B"/>
<ellipse id="Ellipse 7" cx="0.348072" cy="0.345426" rx="0.348072" ry="0.345426" transform="matrix(0.864926 -0.501899 0.498084 0.867129 3.78711 11.4155)" fill="#FFBE0B"/>
<ellipse id="Ellipse 23" cx="0.348071" cy="0.345426" rx="0.348071" ry="0.345426" transform="matrix(0.864926 -0.501899 -0.498084 -0.867129 10.8066 22.5181)" fill="#FFBE0B"/>
<ellipse id="Ellipse 16" cx="0.348072" cy="0.345426" rx="0.348072" ry="0.345426" transform="matrix(-0.864926 0.501899 0.498084 0.867129 14.1777 6.02496)" fill="#FFBE0B"/>
<ellipse id="Ellipse 24" cx="0.348071" cy="0.345426" rx="0.348071" ry="0.345426" transform="matrix(-0.864926 0.501899 -0.498084 -0.867129 19.9844 14.317)" fill="#FFBE0B"/>
<ellipse id="Ellipse 8" cx="0.348072" cy="0.345426" rx="0.348072" ry="0.345426" transform="matrix(0.864926 -0.501899 0.498084 0.867129 6.29053 10.602)" fill="#FFBE0B"/>
<ellipse id="Ellipse 25" cx="0.348072" cy="0.345426" rx="0.348072" ry="0.345426" transform="matrix(0.864926 -0.501899 -0.498084 -0.867129 13.1807 19.9424)" fill="#FFBE0B"/>
<ellipse id="Ellipse 17" cx="0.348072" cy="0.345426" rx="0.348072" ry="0.345426" transform="matrix(-0.864926 0.501899 0.498084 0.867129 13.2573 4.00317)" fill="#FFBE0B"/>
<ellipse id="Ellipse 26" cx="0.348072" cy="0.345425" rx="0.348072" ry="0.345425" transform="matrix(-0.864926 0.501899 -0.498084 -0.867129 21.9976 16.9828)" fill="#FFBE0B"/>
<ellipse id="Ellipse 9" cx="0.348072" cy="0.345426" rx="0.348072" ry="0.345426" transform="matrix(0.864926 -0.501899 0.498084 0.867129 5.31836 8.21082)" fill="#FFBE0B"/>
<ellipse id="Ellipse 27" cx="0.348072" cy="0.345426" rx="0.348072" ry="0.345426" transform="matrix(0.864926 -0.501899 -0.498084 -0.867129 14.5742 22.0891)" fill="#FFBE0B"/>
<ellipse id="Ellipse 18" cx="0.348072" cy="0.345426" rx="0.348072" ry="0.345426" transform="matrix(-0.864926 0.501899 0.498084 0.867129 11.0815 6.22443)" fill="#FFBE0B"/>
<ellipse id="Ellipse 28" cx="0.348072" cy="0.345426" rx="0.348072" ry="0.345426" transform="matrix(-0.864926 0.501899 -0.498084 -0.867129 18.5483 16.9875)" fill="#FFBE0B"/>
<ellipse id="Ellipse 10" cx="0.348072" cy="0.345426" rx="0.348072" ry="0.345426" transform="matrix(0.864926 -0.501899 0.498084 0.867129 7.83008 8.11115)" fill="#FFBE0B"/>
<ellipse id="Ellipse 29" cx="0.348072" cy="0.345426" rx="0.348072" ry="0.345426" transform="matrix(0.864926 -0.501899 -0.498084 -0.867129 15.6323 19.3186)" fill="#FFBE0B"/>
<ellipse id="Ellipse 11" cx="0.348072" cy="0.345426" rx="0.348072" ry="0.345426" transform="matrix(0.864926 -0.501899 0.498084 0.867129 8.68994 6.25421)" fill="#FFBE0B"/>
<ellipse id="Ellipse 30" cx="0.348072" cy="0.345426" rx="0.348072" ry="0.345426" transform="matrix(0.864926 -0.501899 -0.498084 -0.867129 18.1353 20.1824)" fill="#FFBE0B"/>
</g>
</svg>
