<svg width="33" height="33" viewBox="0 0 33 33" fill="none" xmlns="http://www.w3.org/2000/svg">
<g id="Group 1">
<ellipse id="Ellipse 3" cx="26.8326" cy="14.8365" rx="0.993561" ry="0.993561" transform="rotate(-180 26.8326 14.8365)" fill="#73E2A3"/>
<ellipse id="Ellipse 12" cx="0.993561" cy="0.993561" rx="0.993561" ry="0.993561" transform="matrix(1 -1.88652e-07 1.5885e-07 -1 5.37158 15.8301)" fill="#73E2A3"/>
<circle id="Ellipse 4" cx="26.9322" cy="17.1217" r="0.993561" transform="rotate(180 26.9322 17.1217)" fill="#73E2A3"/>
<circle id="Ellipse 13" cx="0.993561" cy="0.993561" r="0.993561" transform="matrix(1 0 0 -1 5.27246 18.1153)" fill="#73E2A3"/>
<circle id="Ellipse 5" cx="26.5348" cy="19.5063" r="0.993561" transform="rotate(180 26.5348 19.5063)" fill="#73E2A3"/>
<ellipse id="Ellipse 14" cx="0.993561" cy="0.993561" rx="0.993561" ry="0.993561" transform="matrix(1 2.91891e-07 -3.21693e-07 -1 5.66992 20.4998)" fill="#73E2A3"/>
<ellipse id="Ellipse 6" cx="25.6402" cy="21.7915" rx="0.993561" ry="0.993561" transform="rotate(-180 25.6402 21.7915)" fill="#73E2A3"/>
<circle id="Ellipse 21" cx="0.993561" cy="0.993561" r="0.993561" transform="matrix(-1 0 0 1 26.9321 11.2597)" fill="#73E2A3"/>
<ellipse id="Ellipse 15" cx="0.993561" cy="0.993561" rx="0.993561" ry="0.993561" transform="matrix(1 1.5885e-07 -1.88652e-07 -1 6.56396 22.785)" fill="#73E2A3"/>
<circle id="Ellipse 22" cx="7.06094" cy="12.2533" r="0.993561" fill="#73E2A3"/>
<ellipse id="Ellipse 7" cx="24.15" cy="23.7786" rx="0.993561" ry="0.993561" transform="rotate(-180 24.15 23.7786)" fill="#73E2A3"/>
<ellipse id="Ellipse 23" cx="0.993561" cy="0.993561" rx="0.993561" ry="0.993561" transform="matrix(-1 5.56119e-08 -7.74287e-08 1 25.3423 8.97449)" fill="#73E2A3"/>
<ellipse id="Ellipse 16" cx="0.993561" cy="0.993561" rx="0.993561" ry="0.993561" transform="matrix(1 1.5885e-07 -1.88652e-07 -1 8.0542 24.7722)" fill="#73E2A3"/>
<ellipse id="Ellipse 24" cx="8.55118" cy="9.96805" rx="0.993561" ry="0.993561" fill="#73E2A3"/>
<ellipse id="Ellipse 8" cx="22.2623" cy="25.2689" rx="0.993561" ry="0.993561" transform="rotate(-180 22.2623 25.2689)" fill="#73E2A3"/>
<ellipse id="Ellipse 25" cx="0.993561" cy="0.993561" rx="0.993561" ry="0.993561" transform="matrix(-1 -7.74287e-08 5.56119e-08 1 23.2559 7.1861)" fill="#73E2A3"/>
<ellipse id="Ellipse 17" cx="0.993561" cy="0.993561" rx="0.993561" ry="0.993561" transform="matrix(1 1.5885e-07 -1.88652e-07 -1 9.94238 26.2625)" fill="#73E2A3"/>
<circle id="Ellipse 26" cx="10.7372" cy="8.17966" r="0.993561" fill="#73E2A3"/>
<ellipse id="Ellipse 9" cx="20.275" cy="26.4612" rx="0.993561" ry="0.993561" transform="rotate(-180 20.275 26.4612)" fill="#73E2A3"/>
<ellipse id="Ellipse 27" cx="0.993561" cy="0.993561" rx="0.993561" ry="0.993561" transform="matrix(-1 5.56119e-08 -7.74287e-08 1 21.2686 5.99384)" fill="#73E2A3"/>
<ellipse id="Ellipse 18" cx="0.993561" cy="0.993561" rx="0.993561" ry="0.993561" transform="matrix(1 -1.88652e-07 1.5885e-07 -1 11.9292 27.4547)" fill="#73E2A3"/>
<ellipse id="Ellipse 28" cx="12.9228" cy="6.9874" rx="0.993561" ry="0.993561" fill="#73E2A3"/>
<ellipse id="Ellipse 10" cx="17.9898" cy="26.958" rx="0.993561" ry="0.993561" transform="rotate(-180 17.9898 26.958)" fill="#73E2A3"/>
<ellipse id="Ellipse 29" cx="0.993561" cy="0.993561" rx="0.993561" ry="0.993561" transform="matrix(-1 5.56119e-08 -7.74287e-08 1 18.9834 5.49707)" fill="#73E2A3"/>
<ellipse id="Ellipse 11" cx="15.6056" cy="26.958" rx="0.993561" ry="0.993561" transform="rotate(-180 15.6056 26.958)" fill="#73E2A3"/>
<ellipse id="Ellipse 30" cx="0.993561" cy="0.993561" rx="0.993561" ry="0.993561" transform="matrix(-1 -2.58096e-08 5.56119e-08 1 16.5991 5.49707)" fill="#73E2A3"/>
</g>
</svg>
