<svg width="65" height="66" viewBox="0 0 65 66" fill="none" xmlns="http://www.w3.org/2000/svg">
<g id="Group 1">
<circle id="Ellipse 3" cx="39.7347" cy="10.8119" r="0.959881" transform="rotate(120 39.7347 10.8119)" fill="#FB5607"/>
<circle id="Ellipse 12" cx="0.959881" cy="0.959881" r="0.959881" transform="matrix(0.5 -0.866025 -0.866025 -0.5 24.0146 49.1743)" fill="#FB5607"/>
<ellipse id="Ellipse 4" cx="42.4441" cy="17.2531" rx="0.959881" ry="0.959881" transform="rotate(120 42.4441 17.2531)" fill="#FB5607"/>
<circle id="Ellipse 13" cx="0.959881" cy="0.959881" r="0.959881" transform="matrix(0.5 -0.866025 -0.866025 -0.5 25.3174 56.1332)" fill="#FB5607"/>
<ellipse id="Ellipse 5" cx="50.0428" cy="16.7631" rx="0.959881" ry="0.959881" transform="rotate(120 50.0428 16.7631)" fill="#FB5607"/>
<ellipse id="Ellipse 14" cx="0.959881" cy="0.959881" rx="0.959881" ry="0.959881" transform="matrix(0.5 -0.866025 -0.866025 -0.5 30.3325 52.8219)" fill="#FB5607"/>
<ellipse id="Ellipse 6" cx="48.6336" cy="23.0432" rx="0.959881" ry="0.95988" transform="rotate(120 48.6336 23.0432)" fill="#FB5607"/>
<circle id="Ellipse 21" cx="0.959881" cy="0.959881" r="0.959881" transform="matrix(-0.5 0.866025 0.866025 0.5 32.0522 14.1351)" fill="#FB5607"/>
<circle id="Ellipse 15" cx="0.959881" cy="0.959881" r="0.959881" transform="matrix(0.5 -0.866025 -0.866025 -0.5 35.498 58.4645)" fill="#FB5607"/>
<circle id="Ellipse 22" cx="12.4074" cy="46.2414" r="0.959881" transform="rotate(-60 12.4074 46.2414)" fill="#FB5607"/>
<ellipse id="Ellipse 7" cx="56.41" cy="25.3161" rx="0.959881" ry="0.959881" transform="rotate(120 56.41 25.3161)" fill="#FB5607"/>
<circle id="Ellipse 23" cx="0.959881" cy="0.959881" r="0.959881" transform="matrix(-0.5 0.866025 0.866025 0.5 25.3647 8.05713)" fill="#FB5607"/>
<circle id="Ellipse 16" cx="0.959881" cy="0.959881" r="0.959881" transform="matrix(0.5 -0.866025 -0.866025 -0.5 40.2651 52.1279)" fill="#FB5607"/>
<circle id="Ellipse 24" cx="16.0549" cy="39.9237" r="0.959881" transform="rotate(-60 16.0549 39.9237)" fill="#FB5607"/>
<circle id="Ellipse 8" cx="51.5281" cy="30.6997" r="0.959881" transform="rotate(120 51.5281 30.6997)" fill="#FB5607"/>
<circle id="Ellipse 25" cx="0.959881" cy="0.959881" r="0.959881" transform="matrix(-0.5 0.866025 0.866025 0.5 23.251 17.4772)" fill="#FB5607"/>
<ellipse id="Ellipse 17" cx="0.959881" cy="0.959881" rx="0.959881" ry="0.959881" transform="matrix(0.5 -0.866025 -0.866025 -0.5 45.2974 55.6984)" fill="#FB5607"/>
<circle id="Ellipse 26" cx="7.49872" cy="36.3138" r="0.959881" transform="rotate(-60 7.49872 36.3138)" fill="#FB5607"/>
<ellipse id="Ellipse 9" cx="57.2" cy="35.0825" rx="0.959881" ry="0.959881" transform="rotate(120 57.2 35.0825)" fill="#FB5607"/>
<circle id="Ellipse 27" cx="0.959881" cy="0.959881" r="0.959881" transform="matrix(-0.5 0.866025 0.866025 0.5 16.9077 14.2582)" fill="#FB5607"/>
<circle id="Ellipse 18" cx="0.959881" cy="0.959881" r="0.959881" transform="matrix(0.5 -0.866025 -0.866025 -0.5 47.4297 47.3975)" fill="#FB5607"/>
<circle id="Ellipse 28" cx="15.7829" cy="31.5645" r="0.959881" transform="rotate(-60 15.7829 31.5645)" fill="#FB5607"/>
<circle id="Ellipse 10" cx="51.3021" cy="38.771" r="0.959881" transform="rotate(120 51.3021 38.771)" fill="#FB5607"/>
<circle id="Ellipse 29" cx="0.959881" cy="0.959881" r="0.959881" transform="matrix(-0.5 0.866025 0.866025 0.5 18.229 22.3363)" fill="#FB5607"/>
<ellipse id="Ellipse 11" cx="51.8245" cy="44.3929" rx="0.959881" ry="0.959881" transform="rotate(120 51.8245 44.3929)" fill="#FB5607"/>
<circle id="Ellipse 30" cx="0.959881" cy="0.959881" r="0.959881" transform="matrix(-0.5 0.866025 0.866025 0.5 11.0078 23.7091)" fill="#FB5607"/>
</g>
</svg>
