<svg width="68" height="69" viewBox="0 0 68 69" fill="none" xmlns="http://www.w3.org/2000/svg">
<g id="Group 1">
<ellipse id="Ellipse 3" cx="14.647" cy="22.1088" rx="0.959881" ry="0.95988" transform="rotate(45 14.647 22.1088)" fill="#8962F8"/>
<ellipse id="Ellipse 12" cx="0.959881" cy="0.95988" rx="0.959881" ry="0.95988" transform="matrix(-0.707107 -0.707107 -0.707107 0.707107 47.6333 47.222)" fill="#8962F8"/>
<circle id="Ellipse 4" cx="21.5698" cy="21.1585" r="0.959881" transform="rotate(45 21.5698 21.1585)" fill="#8962F8"/>
<ellipse id="Ellipse 13" cx="0.959881" cy="0.959881" rx="0.959881" ry="0.959881" transform="matrix(-0.707107 -0.707107 -0.707107 0.707107 54.6924 47.765)" fill="#8962F8"/>
<ellipse id="Ellipse 5" cx="23.063" cy="13.6924" rx="0.959881" ry="0.959881" transform="rotate(45 23.063 13.6924)" fill="#8962F8"/>
<ellipse id="Ellipse 14" cx="0.959881" cy="0.959881" rx="0.959881" ry="0.959881" transform="matrix(-0.707107 -0.707107 -0.707107 0.707107 52.792 42.0637)" fill="#8962F8"/>
<ellipse id="Ellipse 6" cx="28.7646" cy="16.6788" rx="0.959881" ry="0.959881" transform="rotate(45 28.7646 16.6788)" fill="#8962F8"/>
<ellipse id="Ellipse 21" cx="0.959881" cy="0.95988" rx="0.959881" ry="0.95988" transform="matrix(0.707107 0.707107 0.707107 -0.707107 15.8687 30.3893)" fill="#8962F8"/>
<circle id="Ellipse 15" cx="0.959881" cy="0.959881" r="0.959881" transform="matrix(-0.707107 -0.707107 -0.707107 0.707107 59.5791 38.5342)" fill="#8962F8"/>
<ellipse id="Ellipse 22" cx="41.7964" cy="57.6746" rx="0.959881" ry="0.959881" transform="rotate(-135 41.7964 57.6746)" fill="#8962F8"/>
<ellipse id="Ellipse 7" cx="32.9727" cy="9.75567" rx="0.959881" ry="0.959881" transform="rotate(45 32.9727 9.75567)" fill="#8962F8"/>
<circle id="Ellipse 23" cx="0.959881" cy="0.959881" r="0.959881" transform="matrix(0.707107 0.707107 0.707107 -0.707107 8.2666 35.2762)" fill="#8962F8"/>
<circle id="Ellipse 16" cx="0.959881" cy="0.959881" r="0.959881" transform="matrix(-0.707107 -0.707107 -0.707107 0.707107 54.6924 32.2898)" fill="#8962F8"/>
<ellipse id="Ellipse 24" cx="36.6377" cy="52.5162" rx="0.959881" ry="0.959881" transform="rotate(-135 36.6377 52.5162)" fill="#8962F8"/>
<ellipse id="Ellipse 8" cx="36.9092" cy="15.8643" rx="0.959881" ry="0.959881" transform="rotate(45 36.9092 15.8643)" fill="#8962F8"/>
<ellipse id="Ellipse 25" cx="0.959881" cy="0.95988" rx="0.959881" ry="0.95988" transform="matrix(0.707107 0.707107 0.707107 -0.707107 16.8188 39.7559)" fill="#8962F8"/>
<circle id="Ellipse 17" cx="0.959881" cy="0.959881" r="0.959881" transform="matrix(-0.707107 -0.707107 -0.707107 0.707107 59.4434 28.3531)" fill="#8962F8"/>
<ellipse id="Ellipse 26" cx="30.9365" cy="59.8466" rx="0.959881" ry="0.95988" transform="rotate(-135 30.9365 59.8466)" fill="#8962F8"/>
<ellipse id="Ellipse 9" cx="42.6108" cy="11.5204" rx="0.959881" ry="0.959881" transform="rotate(45 42.6108 11.5204)" fill="#8962F8"/>
<ellipse id="Ellipse 27" cx="0.95988" cy="0.959881" rx="0.95988" ry="0.959881" transform="matrix(0.707107 0.707107 0.707107 -0.707107 12.0674 45.0501)" fill="#8962F8"/>
<ellipse id="Ellipse 18" cx="0.959881" cy="0.959881" rx="0.959881" ry="0.959881" transform="matrix(-0.707107 -0.707107 -0.707107 0.707107 51.9775 24.145)" fill="#8962F8"/>
<circle id="Ellipse 28" cx="28.4932" cy="50.6157" r="0.959881" transform="rotate(-135 28.4932 50.6157)" fill="#8962F8"/>
<ellipse id="Ellipse 10" cx="44.647" cy="18.1721" rx="0.959881" ry="0.959881" transform="rotate(45 44.647 18.1721)" fill="#8962F8"/>
<ellipse id="Ellipse 29" cx="0.95988" cy="0.95988" rx="0.95988" ry="0.95988" transform="matrix(0.707107 0.707107 0.707107 -0.707107 20.2124 45.8646)" fill="#8962F8"/>
<ellipse id="Ellipse 11" cx="50.2124" cy="19.1223" rx="0.959881" ry="0.959881" transform="rotate(45 50.2124 19.1223)" fill="#8962F8"/>
<circle id="Ellipse 30" cx="0.959881" cy="0.959881" r="0.959881" transform="matrix(0.707107 0.707107 0.707107 -0.707107 19.6694 53.1949)" fill="#8962F8"/>
</g>
</svg>
