<svg fill="none" xmlns="http://www.w3.org/2000/svg" viewBox="0.73 4 18.46 12.92"> <path fill-rule="evenodd" clip-rule="evenodd" d="M17.1703 4.38593C17.965 4.59864 18.5895 5.22312 18.8022 6.01776C19.1866 7.45663 19.1881 10.4605 19.1881 10.4605C19.1881 10.4605 19.1881 13.4643 18.8022 14.9032C18.5895 15.6979 17.965 16.3223 17.1703 16.535C15.7315 16.921 9.95926 16.921 9.95926 16.921C9.95926 16.921 4.1871 16.921 2.74822 16.535C1.95359 16.3223 1.32911 15.6979 1.1164 14.9032C0.730469 13.4643 0.730469 10.4605 0.730469 10.4605C0.730469 10.4605 0.730469 7.45663 1.1164 6.01776C1.32911 5.22312 1.95359 4.59864 2.74822 4.38593C4.1871 4 9.95926 4 9.95926 4C9.95926 4 15.7315 4 17.1703 4.38593ZM12.907 10.4607L8.11173 13.229V7.69233L12.907 10.4607Z" style="fill:color(display-p3 0.3718 0.3458 0.4142);fill-opacity:1;"></path> </svg>